CoelacanthGrossRefined.sfdir
StartChar: exclam
Encoding: 33 33 241
Width: 266
Flags: HW
LayerCount: 2
Fore
SplineSet
97 210 m 1
 97 339.598765432 93 437.296296296 79 533 c 0
 71 580.777 23 605.174 27 656 c 1
 189 676 251 732 261 670 c 1
 229 631.469254237 233 578.06542794 221 533 c 0
 199 408 163 342 163 208 c 1
 97 210 l 1
EndSplineSet
Refer: 405 46 N 1 0 0 1 23 0 2
Position2: "cpsp-1" dx=0 dy=0 dh=50 dv=100
Substitution2: "pcap-1" exclam.pcap
Substitution2: "smcp-1" exclam.smcp
EndChar
StartChar: dollar
Encoding: 36 36 209
Width: 463
UnlinkRmOvrlpSave: 1
Flags: HW
LayerCount: 2
Fore
SplineSet
390 384 m 1
 367.307768723 346.667025863 353.849188442 320 331 288 c 1
 309 298 l 1
 309 302.24279661 311 309.194156399 311 317 c 3
 311 373.748231132 285.374873992 389 258 389 c 3
 222.999989611 389 191 372.701091829 191 350 c 3
 191 296.687915091 252.409591245 291.603982167 304 256 c 0
 358.702661547 218.248165246 396 178.838327119 396 111 c 3
 396 43.2158203125 318.341796875 -8 230 -8 c 3
 158.830078125 -8 95.2880859375 34.1015625 68 83 c 1
 87.6031188965 107.153889974 115.413635254 134.167629665 138 162 c 1
 165 147 l 1
 165 128 162 111.035105148 162 90 c 3
 162 56.5581873544 198.886862664 36 239 36 c 3
 282.28015253 36 310 49.2594369448 310 71 c 3
 310 107.518054497 286.273915234 117.439244101 242 142 c 0
 181.096224851 175.786096099 100 220.842633929 100 306 c 3
 100 370.165039062 174.412109375 417 258 417 c 3
 314.828371063 417 362.86980192 399.148732739 390 384 c 1
EndSplineSet
Refer: 487 58113 N 0.0181668 0.693762 -0.968418 0.0253589 236.417 -147.881 2
Substitution2: "case-1" dollar.alt
Substitution2: "lnum-1" dollar.alt
EndChar
StartChar: asterisk
Encoding: 42 42 162
Width: 362
Flags: HW
LayerCount: 2
Fore
SplineSet
188.004816085 525.514700556 m 1
 160.034912703 457.87062601 189.050294115 433.448989217 156.764982561 371.264536536 c 1
 110.764982561 363.264536536 63.2416217341 416.746266375 53.2416217341 452.746266375 c 1
 95.863426478 507.358787187 122.239915844 486.106800174 170.09785044 534.298965416 c 1
 97.753110193 536.543399553 85.5119987981 504.945653345 16.1421305664 513.581321837 c 1
 -7.8578694336 559.581321837 33.9022724639 620.40672246 57.9022724639 638.40672246 c 1
 124.768032012 617.673010125 107.453831294 585.538303619 172.78868506 554.795527946 c 1
 155.110854064 619.264691014 118.181093932 618.181634015 108.459890255 693.980318873 c 1
 138.459890255 725.980318873 210.544067585 713.972537058 242.544067585 689.972537058 c 1
 239.972758817 615.165948177 207.013394581 620.032179776 194.767574183 557.127630002 c 1
 249.019205586 595.860473915 242.211974933 628.845126184 306.18178841 659.950979352 c 1
 338.18178841 645.950979352 360.797655218 586.040287748 342.797655218 534.040287748 c 1
 271.777172208 512.901933873 267.174778663 546.974747102 203.862295038 537.519078164 c 1
 258.110981347 494.694963606 285.622335006 514.351367172 337.969079664 461.097944706 c 1
 333.969079664 421.097944706 273.968911824 388.972366066 227.968911824 388.972366066 c 1
 186.277281915 452.125449714 218.657513105 468.762100016 188.004816085 525.514700556 c 1
EndSplineSet
EndChar
StartChar: three
Encoding: 51 51 491
Width: 388
Flags: HW
LayerCount: 2
Fore
SplineSet
81 -199 m 1
 185.79505814 -143.064676617 216 -117.044776119 216 -21 c 3
 216 58.1666666666 173.25 110.887387388 138 131 c 1
 134.444444445 131 108.666666666 119.2 90 120 c 1
 78 151 l 1
 127.342105263 167.327868852 203 219.032786885 203 317 c 3
 203 363.661971831 171.79032258 368 160 368 c 3
 121.88271605 368 114.774410774 356.725 87 347 c 1
 77 369 l 1
 88.8498185118 409.626064421 166.882032668 448 200 448 c 3
 260.609090909 448 313 404.636363636 313 342 c 3
 313 270.530232559 222.722772277 189.627906977 219 186 c 1
 267.347107438 171.595564075 336 102.506024096 336 6 c 3
 336 -138.3 141.162162162 -221.175 93 -228 c 1
 81 -199 l 1
EndSplineSet
Substitution2: "dnom-1" three.denom
Substitution2: "numr-1" three.numerator
Substitution2: "tnum-1" three.tabulartext
Substitution2: "lnum-1" three.proportionallining
EndChar
StartChar: A
Encoding: 65 65 1243
Width: 718
Flags: HMW
HStem: -10 37<481.198 522.465 646.751 696.047> 245 42<243 433.657> 692 20G<354 401.5>
VStem: 356 43<632.023 712>
DStem2: 102 80 160 87 0.391141 0.920331<-3.53261 211.909 245.659 524.174> 413 642 471 236 0.354654 -0.934998<388.302 400.179 571.058 597.203>
AnchorPoint: "Bottom" 359 -15 basechar 0
AnchorPoint: "Ogonek" 529 27 basechar 0
AnchorPoint: "Top" 373 699 basechar 0
LayerCount: 2
Fore
SplineSet
255.936523438 262.078125 m 1
 271.607421875 257.814453125 306.077148438 256.685546875 338.802734375 256.685546875 c 0
 362.094726562 256.685546875 389.861328125 257.411132812 404.59375 257.98046875 c 1
 382.03515625 327.087890625 363.157226562 383.354492188 328 449 c 1
 303 388 278.552734375 323.162109375 255.936523438 262.078125 c 1
392 -8.9794921875 m 1
 392 -8.9794921875 387.200195312 4.56640625 384 25 c 1
 426.96484375 33.712890625 463.112304688 64.4453125 451.563476562 100.247070312 c 0
 437.6875 143.262695312 433.890625 159.688476562 420 198 c 1
 390.465820312 205.131835938 343.004882812 208.59375 299.6015625 208.59375 c 0
 278.224609375 208.59375 256.584960938 207.047851562 236 204 c 1
 222.926757812 170.885742188 208 137 204.0546875 118.518554688 c 0
 196.3046875 82.2158203125 222 39.015625 296 27 c 1
 293.5 -11.1337890625 l 1
 249.64453125 -3.5107421875 175.069335938 0.8515625 110.580078125 0.8515625 c 3
 77.5947265625 0.8515625 47.248046875 -0.6708984375 25 -3.9111328125 c 1
 25 -3.9111328125 23 19.150390625 22 31 c 1
 90.185546875 44.2490234375 111.2734375 97.9072265625 115.467773438 107.530273438 c 0
 202.8984375 308.107421875 268.1015625 464.05859375 330 636 c 0
 339 661 346 695 346.456054688 711 c 1
 403.65625 711 l 1
 404.897460938 683.991210938 410.936523438 659.349609375 415 644 c 0
 445.444335938 529 519.9765625 322 620.416992188 80.8017578125 c 0
 637.370117188 40.0908203125 681.85546875 30.4072265625 696 29 c 1
 696 29 694 13.541015625 692 -5.0830078125 c 1
 658.33984375 -1.6083984375 614.365234375 0.2919921875 569.958007812 0.2919921875 c 3
 498.750976562 0.2919921875 426.455078125 -2.54296875 392 -8.9794921875 c 1
EndSplineSet
Position2: "cpsp-1" dx=0 dy=0 dh=50 dv=100
Substitution2: "c2pc-1" a.pcap
Substitution2: "c2sc-1" a.smcp
EndChar
StartChar: B
Encoding: 66 66 1250
Width: 643
Flags: HMW
HStem: -4 38<43 117.426 219.57 409.69> 349 30<209 348.635> 653 41<45 112.219 221.972 354.268>
VStem: 127 80<45.6349 349 379 533.879> 414 90<447.929 586.24> 485 90<100.26 258.491>
AnchorPoint: "Bottom" 308 -15 basechar 0
AnchorPoint: "Top" 275 699 basechar 0
LayerCount: 2
Fore
SplineSet
310 381 m 0
 357.216796875 389.64453125 401 432 401 483 c 3
 401 578.01953125 352.514648438 635 310 635 c 3
 306.016601562 635 294.790010785 636.315500397 289 634 c 0
 284.51171875 632.205078125 279.282716146 616.613259306 278 588 c 0
 274.727539063 515.001953125 272 379 272 379 c 1
 293 379 306.149395227 380.295024748 310 381 c 0
290 343 m 0
 271 343 l 1
 272 258.169921875 271.985233258 175.101557836 274 124 c 0
 275.413085938 88.1591796875 278.749004252 50.3826252881 302 48 c 0
 307.565429688 47.4296875 333.234375 47 348 47 c 3
 413.059570312 47 450 90.5556640625 450 175 c 3
 450 257.526367188 393.831054688 343 290 343 c 0
36 40 m 1
 61.1005859375 43.3406878972 127 58.9873377913 127 89 c 0
 127 93.54296875 133 182.59375 133 288 c 3
 133 445.454101562 127.088672384 562.797014866 121 588 c 0
 119.065429688 594.673177083 109.424107735 616.378869387 89 628 c 0
 81.9130859375 632.838867188 49.947265625 646.15625 36 651 c 1
 42 690 l 1
 52.666015625 690 97.3447265625 681 154 681 c 3
 210.90625 681 270.202148438 691 324 691 c 3
 497.188476562 691 543 578.954101562 543 521 c 3
 543 451.80859375 495.586914062 408.838867188 391 369.735351562 c 1
 503.006835938 354.813476562 606 265.686523438 606 181 c 3
 606 69.3994140625 498.137695312 -5 330 -5 c 3
 272.01953125 -5 218.9375 1 158 1 c 0
 95.279296875 1 47.44140625 -3 40 -3 c 1
 36 40 l 1
EndSplineSet
Position2: "cpsp-1" dx=0 dy=0 dh=50 dv=100
Substitution2: "c2pc-1" b.pcap
Substitution2: "c2sc-1" b.smcp
EndChar
StartChar: D
Encoding: 68 68 1260
Width: 834
Flags: HW
HStem: -10 38<40.6316 106.688> -7 44<184.868 488.195> 647 41<38 107.506> 659 37<213.563 460.412>
VStem: 119.188 82.2977<49.5582 525.672> 680 94<221.047 461.211>
AnchorPoint: "Bottom" 382 -15 basechar 0
AnchorPoint: "Top" 382 699 basechar 0
LayerCount: 2
Fore
SplineSet
370 48 m 1
 548 48 627 163.220007588 627 334 c 3
 627 544.001953125 480.349609375 644 337 644 c 3
 334.74609375 644 329.448242188 642.745117188 325.5 641.900390625 c 0
 299.815429688 636.407226562 287 613 284.5 585.900390625 c 1
 278.5 476.182617188 280.788085938 350.090820312 280.788085938 236.322265625 c 3
 280.788085938 196.981779909 282.891601562 155.582841156 287 114 c 0
 289.071289062 96.119140625 309 66 331 55 c 0
 343.322265625 48.8388671875 354.411132812 48 370 48 c 1
37 689 m 25
 86.97265625 685 116 680 166 680 c 19
 253 680 301.0390625 697 388 697 c 3
 593.40234375 697 791 569.276367188 791 354 c 3
 791 62.714268816 556.733398438 -9 364 -9 c 3
 290 -9 246.8984375 0 173 0 c 3
 132 0 73.6953125 -6 39 -12 c 9
 35 32 l 1
 69 38.763671875 124.787109375 50.1845703125 131 85 c 1
 138.37890625 128.385431005 140.948242188 179.750046337 140.948242188 223.1171875 c 3
 140.948242188 372.393155135 131.443359375 537.483451899 120 597 c 1
 116.971679688 621.125 75.5 641.3046875 35 648 c 9
 37 689 l 25
EndSplineSet
Position2: "cpsp-1" dx=0 dy=0 dh=50 dv=100
Substitution2: "c2pc-1" d.pcap
Substitution2: "c2sc-1" d.smcp
EndChar
StartChar: E
Encoding: 69 69 1264
Width: 685
Flags: HW
AnchorPoint: "Bottom" 324 -15 basechar 0
AnchorPoint: "Ogonek" 563 15 basechar 0
AnchorPoint: "Top" 327 699 basechar 0
LayerCount: 2
Fore
SplineSet
43 683 m 1
 190.122070312 675.711914062 239.961914062 672.938476562 325.912109375 672.938476562 c 3
 489.7265625 672.938476562 557.950195312 681.373046875 591 689 c 1
 604.150390625 677.61328125 608.794921875 672.633789062 608.794921875 664.500976562 c 3
 608.794921875 649.040039062 596.204101562 622.23046875 589 520 c 1
 550 516 l 1
 548 532 542.925251341 577.432762526 526 589 c 0
 493.030710774 611.532226562 437.906575654 623.568359375 386.26953125 623.568359375 c 3
 359.68359375 623.568359375 332.041914989 620.596969925 311 615 c 0
 303.671875 613.05078125 294.389105959 572.312449038 294 569 c 0
 287 509.409179688 288 434.249023438 286 378 c 1
 322.83984375 382 431.854747037 382.318582161 440 384 c 0
 483.432617188 393.563476562 501.294668692 421 515 468 c 1
 552 459 l 1
 543.80078125 422.314453125 540.486328125 385.90625 540.486328125 349.5078125 c 3
 540.486328125 309.107421875 544.305664062 268.71875 550 228 c 1
 514 218 l 1
 497.338867188 282.333984375 491.053814033 299.843034558 440 320 c 0
 414.671875 330 339.53515625 328 286 330 c 1
 286 255.415039062 289.997539479 175.747842133 297 125 c 0
 298.880859375 111.369140625 318.684497649 81.8807508536 320 81 c 0
 340.672851562 67.1591796875 365.379882812 64.060546875 388.392578125 64.060546875 c 1
 410.389648438 64.060546875 458.673841565 76.3954865043 485 93 c 0
 541.865234375 128.866210938 576.211914062 154 611 199 c 1
 644 191 l 1
 619.768554688 100.682617188 615.922851562 76.7529296875 603 6 c 1
 393.470703125 4.9091796875 372.283203125 12.1396484375 300.466796875 12.1396484375 c 3
 205.018554688 12.1396484375 168.754882812 7.10546875 48 -12 c 1
 39 31 l 1
 96.375 50.4189989698 141 82.9665393201 141 121 c 1
 144.595703125 185.353627634 146.575195312 191.23117514 146.575195312 271.65625 c 3
 146.575195312 401.190435283 142.216192049 486.603942999 137 576 c 0
 135 610.276367188 98 626.478515625 37 640 c 1
 43 683 l 1
EndSplineSet
Position2: "cpsp-1" dx=0 dy=0 dh=50 dv=100
Substitution2: "c2pc-1" e.pcap
Substitution2: "c2sc-1" e.smcp
EndChar
StartChar: F
Encoding: 70 70 1274
Width: 648
Flags: HW
HStem: -9 35<57 103.518> 332 39<210 413.616> 654 31<41 105.778> 680 20G<538.477 549.182>
VStem: 128.705 81.2945<84.0664 332 371 638.375> 475 36<246.75 303.707 394.284 440.094> 523 31<534 596.775>
AnchorPoint: "Bottom" 195 -15 basechar 0
AnchorPoint: "Top" 333 699 basechar 0
LayerCount: 2
Fore
SplineSet
403 -7 m 1
 351.939453125 -3 306.969726562 -1 260 -1 c 0
 199.240234375 -1 134 -2.111328125 43 -7 c 1
 40 36 l 1
 95 44.947265625 117 89 120 122 c 1
 126 153.901388077 129 219.475580715 129 301 c 3
 129 392.216542419 123.662109375 531.656256877 120 571 c 0
 117.16796875 603 94.189453125 625 35 643 c 1
 39 686 l 1
 96 681 159 681 223 681 c 3
 402.438476562 681 575.505859375 689.689453125 584 699 c 1
 594 688 599 687 599 660 c 1
 599 629.321289062 593.400390625 585.627929688 591 475 c 1
 562 470 l 1
 541 478.08203125 523.120117188 564.978515625 491 590 c 0
 443.236938477 628 368.098327637 636.080078125 303 625 c 0
 279 621 275.203125 586.979492188 274 576 c 0
 266 503 268 433 268 365 c 1
 300.157226562 365 376.471679688 366.245117188 386 368 c 0
 429.75 376.056640625 442.388671875 425.056640625 456 464 c 1
 491 459 l 1
 485 424.354492188 482 390.645507812 482 356 c 0
 482 303 488.631835938 249 503 195 c 1
 463 187 l 1
 438.3203125 274.458007812 431.327148438 286.825195312 386 307 c 0
 374.466796875 312.194335938 313.47265625 316 266 317 c 1
 267.111328125 221.103972549 270.529296875 139.31918363 280 103 c 0
 291.23046875 59.125 336.751953125 40 405 36 c 1
 403 -7 l 1
EndSplineSet
Position2: "cpsp-1" dx=0 dy=0 dh=50 dv=100
Substitution2: "c2pc-1" f.pcap
Substitution2: "c2sc-1" f.smcp
EndChar
StartChar: G
Encoding: 71 71 1275
Width: 824
Flags: HW
AnchorPoint: "Bottom" 426 -21 basechar 0
AnchorPoint: "Top" 449 689 basechar 0
LayerCount: 2
Fore
SplineSet
43 355 m 3
 43 623.25390625 338 704 466 704 c 3
 532.413761089 704 584.127552232 685.98046875 628.578125 685.98046875 c 0
 642.397460938 685.98046875 646.4453125 690.321289062 651 700 c 1
 694 698 l 1
 709 516 l 1
 668 509 l 1
 583.045694041 602.971597161 499.919997578 652 420 652 c 3
 260.551757812 652 216 487.530273438 216 373 c 3
 216 186.549804688 372.645507812 34 523 34 c 3
 547.998046875 34 561.55686689 37.6659263706 568 54 c 0
 575.314453125 72.54296875 580.584133575 111.249010375 581 116 c 0
 583 138.848632812 583 176.728515625 583 211 c 3
 583 274.017249474 532.988114995 300.997640242 490 306 c 0
 487.129882812 306.333984375 482 307 482 307 c 1
 484 350 l 1
 597.247070312 339.666992188 721.596679688 342 776 346 c 1
 779 306 l 1
 754.974609375 297.599609375 733.085173504 289.971368655 729 256 c 0
 725.799804688 229.387907609 725.710252616 165.026048468 725 127 c 0
 724.537109375 102.217407227 732.896484375 88.2244330512 753 68 c 1
 745 30 l 1
 666 16.857421875 502 -16 448 -16 c 3
 247 -16 43 114.6953125 43 355 c 3
EndSplineSet
Position2: "cpsp-1" dx=0 dy=0 dh=50 dv=100
Substitution2: "c2pc-1" g.pcap
Substitution2: "c2sc-1" g.smcp
EndChar
StartChar: H
Encoding: 72 72 1278
Width: 882
Flags: HW
AnchorPoint: "Bottom" 445 -15 basechar 0
AnchorPoint: "Top" 453 699 basechar 0
LayerCount: 2
Fore
SplineSet
35 688 m 1
 88.802734375 684 156.288085938 681 219 681 c 1
 265.427734375 681 315.020507812 683 372 686 c 1
 373 644 l 1
 346 644 298 625 292 609 c 0
 279.118164062 576.240015685 275 457.366795367 274 362 c 1
 296 360 554 360 616 362 c 1
 614 423.694915254 613.99897963 524.30507771 603 586 c 0
 598.147460938 614.676757812 554 635 515 643 c 1
 516 687 l 1
 562 681 619.521484375 680 666 680 c 1
 720.404296875 680 791 684 844 691 c 1
 847 650 l 1
 797 642 776.238641827 626.909134618 773 601 c 0
 764.952148437 539.50000005 758.692940928 440.599419285 758.692940928 345.000004623 c 3
 758.692940928 153.02574236 762.999973036 83.0675428361 785 61 c 0
 803.090820312 42.0869140625 831.125 35 848 32 c 1
 848 32 847 -1.29032258065 845 -11 c 1
 797.41015625 -4 748.762695312 0 698 0 c 1
 644.450195312 0 588.799804688 -2 530 -12 c 1
 530 -12 526 22.375 524 32 c 1
 571.703125 41 602.085829142 59.9638793622 604 77 c 0
 614 161.56846473 616 217.630705394 616 306 c 1
 590 307 305 308 274 306 c 1
 274 231.966101695 273.969282529 139.894223769 282 82 c 0
 286.36328125 49 346 34 378 28 c 1
 378 28 377 5.37931034483 376 -13 c 1
 305.010742188 -4 244.461914062 1 186 1 c 1
 135.276367188 1 86.6669921875 -2 37 -11 c 1
 37 -11 35 16.5 34 33 c 1
 58 37 110.544590504 59.0276405637 112 75 c 0
 124 203.324825986 123 359.842227378 123 494 c 3
 123 538.219512195 118.653357668 590.946121575 108 605 c 0
 95.6865234375 623 76 639 34 645 c 1
 35 688 l 1
EndSplineSet
Position2: "cpsp-1" dx=0 dy=0 dh=50 dv=100
Substitution2: "c2pc-1" h.pcap
Substitution2: "c2sc-1" h.smcp
EndChar
StartChar: I
Encoding: 73 73 1280
Width: 395
Flags: HW
AnchorPoint: "Bottom" 195 -15 basechar 0
AnchorPoint: "Ogonek" 262 9 basechar 0
AnchorPoint: "Top" 199 699 basechar 0
LayerCount: 2
Fore
SplineSet
44 692 m 1
 102.9375 683.55078125 148.967773438 682.872070312 196.125 682.872070312 c 3
 241.78125 682.872070312 288.494140625 686.236328125 349 692 c 1
 351 659 l 1
 333 658 302 653 289 641 c 0
 274.822265625 627.913085938 270.518554688 443.0546875 270.518554688 332.649414062 c 3
 270.518554688 221.9453125 270.819335938 142.47265625 282 67 c 0
 286 40 339 25 357 24 c 1
 356 -9 l 1
 304.493164062 -4.0224609375 247.264648438 -1.12109375 192.006835938 -1.12109375 c 3
 138.909179688 -1.12109375 87.6328125 -3.833984375 45 -10 c 1
 38 25 l 1
 55 27 120 33 126 87 c 0
 133.094726562 150.85546875 134.915039062 266.545898438 134.915039062 348.857421875 c 3
 134.915039062 454.265625 130.771484375 571.733398438 117 636 c 0
 114 650 56 659 40 661 c 1
 44 692 l 1
EndSplineSet
Position2: "cpsp-1" dx=0 dy=0 dh=50 dv=100
Substitution2: "c2pc-1" i.pcap
Substitution2: "c2sc-1" i.smcp
EndChar
StartChar: J
Encoding: 74 74 1284
Width: 420
Flags: HMW
AnchorPoint: "Bottom" 219 -138.8 basechar 0
AnchorPoint: "Top" 206 699 basechar 0
LayerCount: 2
Fore
SplineSet
129 606 m 0
 112.463867188 637.624023438 80.5 638 32 644 c 1
 36 687 l 1
 96.9736328125 682.704101562 145 681 194 681 c 3
 248 681 313.817382812 682.534179688 373 687 c 1
 375 643 l 1
 345.787109375 640 296.92578125 636.294921875 294 615 c 0
 281.448242188 505.918945312 279 366.359375 279 225 c 3
 279 69.578125 283 7.4091796875 283 -44 c 3
 283 -94.27734375 212.186523438 -148.986328125 123 -203 c 0
 86 -226 72.3330078125 -235.94140625 47 -251 c 1
 18 -206 l 1
 38.017578125 -196.138671875 54.9482421875 -186.529296875 71 -177 c 0
 76.306640625 -173.849609375 81.2265625 -170.876953125 85 -167 c 0
 150.260742188 -111.901367188 144 -3.3896484375 144 65 c 3
 144 100.616210938 140.516601562 573.724609375 129 606 c 0
EndSplineSet
Position2: "cpsp-1" dx=0 dy=0 dh=50 dv=100
Substitution2: "c2pc-1" j.pcap
Substitution2: "c2sc-1" j.smcp
EndChar
StartChar: K
Encoding: 75 75 1285
Width: 774
Flags: HW
AnchorPoint: "Bottom" 417 -15 basechar 0
AnchorPoint: "Top" 361 699 basechar 0
LayerCount: 2
Fore
SplineSet
422 685 m 1
 459.391707715 683.004882812 500.423773211 681.94921875 542.741210938 681.94921875 c 3
 588.625976562 681.94921875 636.921875 685.1015625 680 692 c 1
 685 659 l 1
 652.391304348 647.913043478 603.670810616 612.345102004 560 574 c 0
 478 504.138613861 406.673828125 437.348255724 344 378 c 5
 366 357.480519481 440 294.849742062 606 141 c 0
 662.74186676 89.7426749647 724 38 752 23 c 1
 746 -1 l 1
 718 1 664 4 636 4 c 3
 582.028320312 4 513.336914062 1 461 -4 c 1
 457 22 l 1
 469 27.3330078125 501.536069276 31.8093162816 482 80 c 4
 472.841796875 102.591037326 328 233.513382177 258 302 c 5
 259 238.429956897 264.442158184 162.633823245 269 116 c 0
 276.059570312 46.099609375 318.40234375 27 352 20 c 1
 348 -10 l 1
 285.924804688 -2.7998046875 222.399414062 1.8798828125 152.48828125 1.8798828125 c 3
 117.799804688 1.8798828125 81 -0.2001953125 41 -5 c 1
 38 31 l 1
 63 29 101.753957838 42.7370006189 109 101 c 0
 116.760664224 185.079791929 120.513671875 277.100292132 120.513671875 367.184570312 c 3
 120.513671875 428.534640107 118.87072227 484.610735045 116 550 c 0
 109.5234375 628.211914062 104 645 38 657 c 1
 47 688 l 1
 82.66015625 683.541992188 120.108398438 681.66796875 157.662109375 681.66796875 c 3
 213.876953125 681.66796875 270.287109375 684.56640625 323 689 c 1
 326 657 l 1
 290.758789062 647.869565217 283.199526115 642.898170691 276 587 c 0
 266 511.366510417 258 439.334895833 258 361 c 5
 306.833007812 411.417608964 360.409179688 468.023283306 403 526 c 0
 416.485948622 545.025289727 449.62619845 588.102048551 455 607 c 4
 464.80078125 641.466231497 443.0703125 651.206157484 421 657 c 1
 422 685 l 1
EndSplineSet
Position2: "cpsp-1" dx=0 dy=0 dh=50 dv=100
Substitution2: "c2pc-1" k.pcap
Substitution2: "c2sc-1" k.smcp
EndChar
StartChar: L
Encoding: 76 76 1288
Width: 658
Flags: HW
AnchorPoint: "Bottom" 326 -15 basechar 0
AnchorPoint: "TopRight" 374.5 581 basechar 0
AnchorPoint: "Top" 183 699 basechar 0
LayerCount: 2
Fore
SplineSet
352 693 m 1
 356 649 l 1
 271.627929688 632.2109375 275.124023438 624.786132812 265 533 c 0
 253.859375 434.518703242 258.809978283 221.955176208 272 142 c 0
 278.755859375 100 288 70 337 70 c 3
 363.857528356 70 386.528444164 72.1247189405 407 75.2944103011 c 0
 514.237902616 91.8984757751 543.967259908 123.659537548 593 209 c 1
 626 203 l 1
 622.479694263 154.718181818 605.591619142 80.7545454545 586 -23 c 1
 555.432432432 -16 552.74807811 -1.45190152949 499 0 c 0
 488.668760725 0.279078669088 405.435643564 2 310 2 c 3
 95 2 60 -7 49 -7 c 1
 42 36 l 1
 81 41.6923828125 116 56.421875 116 86 c 0
 116 89.8214285714 129 183.446428571 129 300 c 3
 129 451.031573252 110.234319063 596.01472593 108 607 c 0
 104 639.700195312 75 644 38 648 c 1
 42 692 l 1
 82.373046875 685.052711071 127.59375 682.454101562 172.076171875 682.454101562 c 3
 238.87554858 682.454101562 298.422851562 687.1640625 352 693 c 1
EndSplineSet
Position2: "cpsp-1" dx=0 dy=0 dh=50 dv=100
Substitution2: "c2pc-1" l.pcap
Substitution2: "c2sc-1" l.smcp
EndChar
StartChar: M
Encoding: 77 77 1293
Width: 996
Flags: HW
AnchorPoint: "Bottom" 497 -15 basechar 0
AnchorPoint: "Top" 513 699 basechar 0
LayerCount: 2
Fore
SplineSet
959 -9 m 1
 924.43359375 -2.2197265625 881.954101562 1.51171875 840.930664062 1.51171875 c 3
 771.8046875 1.51171875 743.567382812 -2.7177734375 692 -12 c 1
 686 21 l 1
 743 39 747.810546875 77.9248046875 747.810546875 255.921875 c 3
 747.810546875 320.858398438 740.436523438 413.458984375 727 472 c 1
 662.005859375 376.8671875 602.165039062 226.940429688 555 117 c 0
 534.966796875 70.302734375 527 43 521 9 c 1
 473 9 l 1
 472 36 462.092773438 68.6328125 445 101 c 2
 257 457 l 1
 247.594726562 394.228515625 235 229.114257812 235 159 c 3
 235 88.9716796875 249.333984375 37.091796875 326 23 c 1
 320 -10 l 1
 273.78125 -4.0029296875 218.93359375 0.2109375 161.666015625 0.2109375 c 3
 117.555664062 0.2109375 80.890625 -2.72265625 37 -10 c 1
 34 23 l 1
 113 25 141.932617188 91.9208984375 147 160 c 2
 170 469 l 2
 173.416015625 514.899414062 174.434570312 556.248046875 152 595 c 0
 132.458984375 628.75390625 113 659 49 667 c 1
 55 699 l 1
 142.977539062 687.692382812 215.280273438 678.065429688 317 685 c 0
 339.84765625 686.557617188 337.5390625 672.630859375 342 661 c 0
 392.176757812 530.185546875 465 399 543 265 c 1
 741 681 l 0
 746 690 754.8984375 694.02734375 761 693 c 0
 826.327148438 682 891.8515625 686 955 691 c 1
 960 659 l 3
 901.78515625 659 872 616.942382812 872 517 c 3
 872 402.104492188 874.405273438 288.791015625 880 178 c 0
 887.010742188 39.162109375 924.80859375 29 960 28 c 1
 959 -9 l 1
EndSplineSet
Position2: "cpsp-1" dx=0 dy=0 dh=50 dv=100
Substitution2: "c2pc-1" m.pcap
Substitution2: "c2sc-1" m.smcp
EndChar
StartChar: O
Encoding: 79 79 1303
Width: 845
Flags: HW
AnchorPoint: "Horn" 713.5 573 basechar 0
AnchorPoint: "Middle" 428.697 364.853 basechar 0
AnchorPoint: "Bottom" 422 -15 basechar 0
AnchorPoint: "Ogonek" 486 11 basechar 0
AnchorPoint: "Top" 426 699 basechar 0
LayerCount: 2
Fore
SplineSet
382 623 m 3
 285.235227253 623 207 553.561425255 207 400 c 3
 207 200.997487453 342.46632 48 470 48 c 3
 560.005555384 48 640 122.953222772 640 294 c 3
 640 457.298915491 523.483990178 623 382 623 c 3
428 689 m 3
 635.000298343 689 802 531.097817665 802 338 c 3
 802 147.521149692 643.999766667 -7 430 -7 c 3
 215.999648 -7 43 146.548375048 43 338 c 3
 43 525.390237603 218.000469169 689 428 689 c 3
EndSplineSet
Position2: "cpsp-1" dx=0 dy=0 dh=50 dv=100
Substitution2: "c2pc-1" o.pcap
Substitution2: "c2sc-1" o.smcp
EndChar
StartChar: P
Encoding: 80 80 1310
Width: 660
Flags: HW
AnchorPoint: "Bottom" 190 -15 basechar 0
AnchorPoint: "Top" 322 699 basechar 0
LayerCount: 2
Fore
SplineSet
286 290 m 3
 354.211914062 290 474 346.735351562 474 451 c 3
 474 527.993164062 445.06640625 578.071289062 413 608 c 0
 383 636 347.0234375 649 324 649 c 3
 296.307617188 649 283.873046875 625.708984375 284 606 c 0
 284.4609375 534.693359375 283 412.994140625 282 290 c 1
 283 290 284.75390625 290 286 290 c 3
43 687 m 1
 69 685 103 683 142 683 c 3
 213 683 252 694 323 694 c 3
 488 694 628 620.39453125 628 467 c 3
 628 337.053710938 465.497070312 244 323 244 c 0
 283 244 l 1
 283.51953125 189.569335938 290.6171875 103.809570312 293 93 c 0
 304.436523438 41.111328125 347.927734375 27.599609375 407 24 c 1
 405 -10 l 1
 320.05859375 -5.7431640625 261.233398438 3.8349609375 197.423828125 3.8349609375 c 3
 150.48828125 3.8349609375 108.68359375 -0.1728515625 42 -11 c 1
 36 20 l 1
 116.559570312 42.20703125 133.845703125 59.037109375 137 93 c 0
 140.407226562 129.68359375 142.34375 188.865234375 142.34375 233.623046875 c 3
 142.34375 344.706054688 138.911132812 470.872070312 132 589 c 0
 130.010742188 623 88 651 40 656 c 1
 43 687 l 1
EndSplineSet
Position2: "cpsp-1" dx=0 dy=0 dh=50 dv=100
Substitution2: "c2pc-1" p.pcap
Substitution2: "c2sc-1" p.smcp
EndChar
StartChar: Q
Encoding: 81 81 1315
Width: 820
Flags: HW
AnchorPoint: "Middle" 406.697 364.853 basechar 0
AnchorPoint: "Top" 409 699 basechar 0
AnchorPoint: "Bottom" 357 -15 basechar 0
LayerCount: 2
Fore
SplineSet
383 650 m 3
 285.177734375 650 215 553.41540891 215 413 c 3
 215 230.370535314 297.950117187 58 431 58 c 3
 546.532587756 58 599 158.499503714 599 300 c 3
 599 503.183323563 498.862314756 650 383 650 c 3
584 53 m 1
 710.274365876 -53.0899626903 817.120775724 -102 889 -102 c 0
 910 -101 l 1
 912 -128 l 1
 837.32660061 -157.069824219 793.711890244 -163 771 -163 c 3
 641.090054899 -163 515.404750845 -101.5 395 1 c 1
 184.806082589 14.4287109375 43 166.405273438 43 361 c 3
 43 566.274414062 205.167630058 690 405 690 c 3
 605.727272727 690 773 546.549168577 773 354 c 3
 773 218.288588441 686 100.577419355 584 53 c 1
EndSplineSet
Position2: "cpsp-1" dx=0 dy=0 dh=50 dv=100
Substitution2: "salt-1" Q.alt
Substitution2: "c2pc-1" q.pcap
Substitution2: "c2sc-1" q.smcp
EndChar
StartChar: R
Encoding: 82 82 1317
Width: 791
Flags: HMW
AnchorPoint: "Bottom" 380 -15 basechar 0
AnchorPoint: "Top" 307 699 basechar 0
LayerCount: 2
Fore
SplineSet
259 372 m 1
 280.642578125 369.75 301.135199653 367 329 367 c 3
 394.783203125 367 451 412.913085938 451 491 c 3
 451 527.907226562 403.09372063 645 293 645 c 3
 278.548357928 645 266.183569998 636.167794901 262 565 c 0
 258.476987658 505.069122795 257.42843192 432.611328125 259 372 c 1
35 693 m 1
 69.3603515625 692 95.6396484375 691 165 691 c 0
 264.135933792 691 275.588137856 707 348 707 c 0
 486.473632812 707 601 619.4296875 601 513 c 0
 601 426 507 348 469 337 c 1
 594.426757812 151.4921875 666.654296875 8.8876953125 791 7 c 1
 785 -33 l 5
 578.234375 -37.7197265625 422 128 313 303 c 1
 308 303 l 0
 297 303 277.572132457 305.400390625 263 307 c 1
 266.000139509 223.488026495 267.64351262 166.656959451 278 93 c 0
 285.029285519 43.0066210229 324 29 354 25 c 1
 348 -10 l 1
 284.670898438 -0.8583984375 250.697265625 3.9462890625 157.78515625 3.9462890625 c 3
 120.670898438 3.9462890625 83.4423828125 0.396484375 46 -7 c 1
 40 31 l 1
 70.3193359375 34.0146484375 106.27734375 40.609375 107 81 c 1
 115.142805587 200.833046947 118.5234375 281.398135513 118.5234375 360.943359375 c 3
 118.5234375 422.649763909 115.294921875 483.6580032 110 567 c 1
 99.2529296875 636.921875 78.810546875 660.274414062 35 662 c 1
 35 693 l 1
EndSplineSet
Position2: "cpsp-1" dx=0 dy=0 dh=50 dv=100
Substitution2: "salt-1" R.alt
Substitution2: "c2pc-1" r.pcap
Substitution2: "c2sc-1" r.smcp
EndChar
StartChar: T
Encoding: 84 84 1322
Width: 746
Flags: HMW
AnchorPoint: "Bottom" 367 -15 basechar 0
AnchorPoint: "Top" 367 699 basechar 0
LayerCount: 2
Fore
SplineSet
134 688 m 0
 259.176757812 683.9765625 384.315429688 682.171875 509.827148438 682.171875 c 3
 558.487304688 682.171875 607.192382812 684 656 684 c 0
 672.841796875 684 688.631835938 691.200195312 696 702 c 1
 728 682 l 1
 711.454101562 630.1953125 691.36328125 572.633789062 689 505 c 1
 638 513 l 1
 643 525 640.942382812 534.7109375 644 550 c 0
 653.186523438 595.930664062 521 607 460 608 c 1
 451.633789062 493.740234375 448.127929688 381.28125 448.127929688 266.856445312 c 3
 448.127929688 233.224609375 448.495117188 199.236328125 449 165 c 0
 450.424804688 68.412109375 452.991210938 59.9697265625 532 58 c 1
 522 -7 l 1
 483.745117188 -1.662109375 434.211914062 0.9453125 383.875 0.9453125 c 3
 281.048828125 0.9453125 256.969726562 -3.1162109375 212 -11 c 1
 198 60 l 1
 280 67.1298828125 277.393554688 94.3251953125 280 118 c 0
 287.083007812 182.344726562 295.55859375 325.784179688 295.55859375 444.01953125 c 3
 295.55859375 521.913085938 291.473632812 588.279296875 280 610 c 1
 241.532226562 611.5 205.5703125 604.633789062 167 597 c 0
 99.99609375 583.739257812 87.6259765625 592.26953125 56 515 c 1
 6 535 l 1
 27 586.536132812 57.4501953125 690.928710938 69 720 c 1
 82 699 120.989257812 688.41796875 134 688 c 0
EndSplineSet
Position2: "cpsp-1" dx=0 dy=0 dh=50 dv=100
Substitution2: "c2pc-1" t.pcap
Substitution2: "c2sc-1" t.smcp
EndChar
StartChar: U
Encoding: 85 85 1328
Width: 855
Flags: HW
AnchorPoint: "Horn" 745 544 basechar 0
AnchorPoint: "Bottom" 433 -15 basechar 0
AnchorPoint: "Ogonek" 503 11 basechar 0
AnchorPoint: "Top" 454 699 basechar 0
LayerCount: 2
Fore
SplineSet
33 689 m 1
 69.7373046875 685.5 128.82421875 683.75 191.125 683.75 c 3
 257.099609375 683.75 326.479492188 685.5 379 689 c 1
 383 641 l 1
 328.90625 636.95703125 280.622070312 631.27734375 282 548 c 0
 282.158203125 540.622070312 271 280.359375 271 252 c 0
 271 206.739257812 289.845703125 166 315 140 c 0
 353.64453125 100.055664062 394.1875 74 508 74 c 3
 536.006835938 74 588 90 613 118 c 0
 652.604492188 162.356445312 654.0078125 193.97265625 656 257 c 0
 658.758789062 344.2734375 656.560546875 488.208984375 651 574 c 0
 647.244140625 639.787109375 598.142578125 647.713867188 540 637 c 1
 540 692 l 1
 581.805664062 687.877929688 668.583007812 684.796875 741.796875 684.796875 c 3
 781.94140625 684.796875 816.893554688 686.299804688 831 690 c 1
 833 637 l 1
 796.102539062 647.7578125 756.560546875 644.021484375 749 594 c 0
 747 583.612304688 743.119140625 472.204101562 742 255 c 0
 741.583007812 173.989257812 713.556640625 119.176757812 672 74 c 0
 618.6484375 16 539.66796875 -10 425 -10 c 3
 312.936523438 -10 259.135742188 14.3642578125 216 44 c 0
 157.779296875 84 121 153.143554688 121 213 c 0
 121 241.483398438 125.900390625 536.603515625 126 551 c 0
 126.340820312 614.466796875 107.322265625 622.485351562 28 633 c 1
 33 689 l 1
EndSplineSet
Position2: "cpsp-1" dx=0 dy=0 dh=50 dv=100
Substitution2: "c2pc-1" u.pcap
Substitution2: "c2sc-1" u.smcp
EndChar
StartChar: W
Encoding: 87 87 1345
Width: 1136
Flags: HW
AnchorPoint: "Bottom" 582 -15 basechar 0
AnchorPoint: "Top" 583 699 basechar 0
LayerCount: 2
Fore
SplineSet
1125 693 m 1
 1131 650 l 1
 1035.11621094 602.646484375 1029.75878906 536.256835938 939 333 c 0
 847.909179688 129 820.197265625 67.3046875 810 42 c 0
 800.541992188 18.529296875 797.095703125 -1 791 -15 c 1
 745 -17 l 1
 740.953125 7.314453125 731.701171875 37.125 721.498046875 65 c 0
 682.927734375 170.369140625 639.50390625 269.654296875 590 371 c 1
 523.030273438 244.974609375 479.35546875 165.302734375 439.465820312 49 c 0
 430.479492188 22.796875 422.961914062 -2.5283203125 419 -21 c 1
 372 -21 l 1
 363.774414062 7.9091796875 356.87109375 45.1044921875 317 138 c 0
 244.681640625 306.495117188 144.557617188 491.298828125 139 500 c 0
 125.854492188 520.581054688 118.962890625 534.702148438 82 588 c 0
 56.482421875 624.794921875 34 644.8828125 11 648 c 1
 13 691 l 1
 44 686 97.25 682 149.375 682 c 3
 201.5 682 290.5 686 325 693 c 1
 333 650 l 1
 306 649 275 635.0625 275 581 c 0
 275 562.485351562 291.985351562 510.5234375 300 494 c 2
 449 186 l 1
 558 437 l 1
 503.810546875 573.64453125 474.612304688 600.213867188 460 613 c 0
 444 627 419.333007812 639 397 648 c 1
 402 690 l 1
 441.575195312 684.958007812 502.709960938 682.4375 553.876953125 682.4375 c 3
 598.887695312 682.4375 688.01171875 685.958007812 728 693 c 1
 732 649 l 1
 727 649 712.47265625 647.852539062 708 647 c 0
 657.171875 637.31640625 660.4765625 599.01171875 668 579 c 2
 815 188 l 1
 830.58984375 231 841.171875 265.87109375 879 398 c 0
 920.079101562 541.485351562 948 634 831 645 c 1
 831 688 l 1
 857.424804688 684.754882812 931.735351562 682.583984375 972.65234375 682.583984375 c 3
 1019.99511719 682.583984375 1073.50488281 685.490234375 1125 693 c 1
EndSplineSet
Position2: "cpsp-1" dx=0 dy=0 dh=50 dv=100
Substitution2: "c2pc-1" w.pcap
Substitution2: "c2sc-1" w.smcp
EndChar
StartChar: X
Encoding: 88 88 1346
Width: 812
Flags: HW
AnchorPoint: "Bottom" 397 -15 basechar 0
AnchorPoint: "Top" 390 699 basechar 0
LayerCount: 2
Fore
SplineSet
39 685 m 1
 83.99609375 682.979492188 117.556640625 681.795898438 147.969726562 681.795898438 c 3
 219.796875 681.795898438 279.893554688 684.743164062 377 692 c 1
 378 649 l 1
 376 649 369.98046875 649.076171875 366 648 c 0
 329 638 334.213867188 608.522460938 342 583 c 0
 360 524 389.6171875 469.639648438 418 420 c 1
 435 444 456.657226562 497.643554688 466 521 c 0
 496 596 502.3828125 633.99609375 451 640 c 0
 438.087890625 641.508789062 429.900390625 643.529296875 418 644 c 1
 428 691 l 1
 483.412109375 685.66015625 539.780273438 681.869140625 596.181640625 681.869140625 c 3
 640.370117188 681.869140625 684.5859375 683.83203125 728 689 c 1
 730 643 l 1
 710.036132812 639.666992188 692.086914062 621.544921875 608 558 c 0
 592.486328125 546.276367188 470 422 440 384 c 1
 486.555664062 329.247070312 629.681640625 160.879882812 644 145 c 0
 710.846679688 70.86328125 715.3203125 66.4072265625 779 51 c 1
 768 -2 l 1
 739.157226562 3.8525390625 698.607421875 6.5595703125 655.845703125 6.5595703125 c 3
 566.154296875 6.5595703125 470.00390625 1.3115234375 406 -8 c 1
 403 34 l 1
 413 34 422.041992188 33.8642578125 435 38 c 0
 482 53 458.650390625 113.150390625 447 142 c 0
 433.682617188 174.978515625 415.8359375 224.572265625 375 281 c 1
 332.678710938 226.678710938 310.052734375 169.473632812 296 132 c 0
 272 68 276.189453125 43.0810546875 318 38 c 0
 347.9296875 34.36328125 348 32 348 32 c 1
 349 -6 l 1
 279.5390625 -2.912109375 219.40234375 -0.619140625 160.59375 -0.619140625 c 3
 122.782226562 -0.619140625 85.7763671875 -2.66015625 45 -8 c 1
 43 35 l 1
 60 60 88.55078125 61.201171875 164 122 c 0
 177.732421875 133.065429688 266 228 347 326 c 1
 200 512 143.096679688 579.168945312 134 587 c 0
 78.505859375 628.5390625 59 640 38 647 c 1
 39 685 l 1
EndSplineSet
Position2: "cpsp-1" dx=0 dy=0 dh=50 dv=100
Substitution2: "c2pc-1" x.pcap
Substitution2: "c2sc-1" x.smcp
EndChar
StartChar: Y
Encoding: 89 89 1348
Width: 756
Flags: HW
AnchorPoint: "Bottom" 404 -15 basechar 0
AnchorPoint: "Top" 398 699 basechar 0
LayerCount: 2
Fore
SplineSet
364 636 m 1
 364 636 346.935546875 635.947265625 340 635 c 0
 325.36328125 633 300.723632812 619.765625 305 607 c 0
 355.861328125 481.575195312 419.828125 409.15625 423 405 c 1
 448.688476562 468.5 473.826171875 529.036132812 474 532 c 0
 493.5 565.555664062 501.138671875 608.288085938 465 628 c 0
 454 634 442.80859375 636 439 637 c 1
 441 691 l 1
 464.158203125 687.34375 579.314453125 682.572265625 639.046875 682.572265625 c 3
 677.328125 682.572265625 714.61328125 684.532226562 740 690 c 1
 739 628 l 1
 681 638.286132812 638.310546875 589.6875 594 554 c 0
 538.869140625 509.59765625 496.6953125 433.065429688 470 362 c 1
 468.461914062 315.333007812 461.583007812 269.305664062 490 124 c 0
 502.302734375 66.1943359375 532.703125 51.0830078125 564 51 c 1
 557 -11 l 1
 502.359375 -3.572265625 452.296875 0.771484375 402.099609375 0.771484375 c 3
 354.420898438 0.771484375 306.625976562 -2.833984375 255 -11 c 1
 235 50 l 1
 296.060546875 57.7197265625 332 94.9541015625 332 161 c 2
 330 288 l 1
 325 320 276.30078125 439.9609375 142 568 c 0
 104.948242188 606.374023438 68.6796875 608.909179688 16 637 c 1
 21 692 l 1
 56.171875 688.297851562 124.467773438 684.21484375 185.244140625 684.21484375 c 3
 222.96484375 684.21484375 333.788085938 685.787109375 356 690 c 1
 364 636 l 1
EndSplineSet
Position2: "cpsp-1" dx=0 dy=0 dh=50 dv=100
Substitution2: "c2pc-1" y.pcap
Substitution2: "c2sc-1" y.smcp
EndChar
StartChar: Z
Encoding: 90 90 1349
Width: 741
Flags: HW
AnchorPoint: "Bottom" 374 -15 basechar 0
AnchorPoint: "Top" 383 699 basechar 0
LayerCount: 2
Fore
SplineSet
24 531 m 1
 95.0576171875 665.154296875 46.5712890625 714 104 723 c 1
 115.852539062 703.189453125 129.995117188 692.133789062 143 689 c 0
 176.01953125 681.04296875 542.809570312 678.299804688 652 685.533203125 c 0
 662.958007812 686.258789062 671.18359375 687.630859375 676 689 c 1
 688 664 l 1
 669.573242188 640.099609375 l 0
 268 58 l 1
 279.615234375 55 291.384765625 54 303 54 c 0
 480.848632812 54 664 133 686 192 c 1
 717 172 l 1
 678 61.5 665.3515625 17.7861328125 639 -32 c 1
 602.782226562 -21.111328125 602.586914062 -6.1875 520 -4 c 0
 369 0 125 16 46 2 c 1
 31 41 l 1
 67.248046875 53.59375 92.0166015625 89.375 112 118 c 0
 226.791015625 282.431640625 343.6875 452.3046875 449 624 c 0
 451 628 l 1
 203 627 l 2
 152.833984375 626.797851562 71.2900390625 511.709960938 60 507 c 1
 24 531 l 1
EndSplineSet
Position2: "cpsp-1" dx=0 dy=0 dh=50 dv=100
Substitution2: "c2pc-1" z.pcap
Substitution2: "c2sc-1" z.smcp
EndChar
StartChar: a
Encoding: 97 97 0
Width: 427
Flags: HMW
AnchorPoint: "Bottom" 208 -15 basechar 0
AnchorPoint: "Ogonek" 368 18 basechar 0
AnchorPoint: "Top" 206 465 basechar 0
LayerCount: 2
Fore
SplineSet
234 178 m 5
 228.05078125 178 213.953125 178.22265625 208 178 c 5
 191.306640625 176.615234375 157.598632812 166.850585938 152 160 c 4
 139.131835938 144.251953125 140 128.5546875 140 110 c 7
 140 92.931640625 163.143554688 68 184 68 c 7
 199.224609375 68 225.567382812 76.3837890625 232 79 c 5
 231 87.7998046875 231 101.338867188 231 112 c 7
 231 134.686523438 233.80078125 158.200195312 234 178 c 5
235 410 m 7
 251.440429688 410 334.095703125 363.462890625 344 351 c 4
 352.08984375 340.8203125 353 317.428710938 353 304 c 7
 353 232.870117188 348 164.973632812 348 96 c 7
 348 84.818359375 350.557617188 71.1220703125 356 66 c 4
 366.0859375 56.5078125 378.909179688 56 384 56 c 7
 390.666992188 56 404.000976562 58.142578125 414 61 c 5
 421 20 l 5
 368.15234375 5.06640625 313.607421875 -8 281 -8 c 7
 265.75390625 -8 242 9.2294921875 233 55 c 5
 189.89453125 22.869140625 142.043945312 -8 95 -8 c 7
 57.015625 -8 30 26.21484375 30 68 c 7
 30 99.2080078125 37.12109375 128.458007812 44 145 c 4
 48.1845703125 155.063476562 61.55078125 166.491210938 72 171 c 4
 156.82421875 208.302734375 186.891601562 203.291992188 238 220 c 5
 241 269 l 7
 241 307 211.000976562 332.8671875 202 339 c 4
 192.638671875 345.377929688 182.913085938 348 179 348 c 4
 168 342.5 l 7
 168 332.25390625 174.490234375 317.466796875 175 312 c 5
 65 265 l 5
 58.599609375 270.619140625 49 304.375 49 317.5 c 7
 49 328.939453125 57.1953125 338.580078125 78.5 351 c 4
 158.58203125 397.686523438 217.989257812 410 235 410 c 7
EndSplineSet
Substitution2: "case-1" A
Substitution2: "pcap-1" a.pcap
Substitution2: "smcp-1" a.smcp
EndChar
StartChar: b
Encoding: 98 98 164
Width: 534
Flags: HMW
AnchorPoint: "Bottom" 253 -15 basechar 0
AnchorPoint: "Top" 109 749 basechar 0
LayerCount: 2
Fore
SplineSet
192 340 m 1
 193 272.286142932 191 232.713857068 191 165 c 3
 191 109.854737284 206 92.7994993272 218 82 c 0
 238.708615187 63.3631103516 263.360923209 53 289 53 c 3
 346.528320312 53 380 92.724137931 380 149 c 3
 380 240.469072165 338.2265625 344 225 344 c 3
 211 344 195 341 192 340 c 1
21 686 m 1
 85.2175114329 696 133 722.203779374 209 759 c 1
 226 739 l 1
 220 719 209.140877782 687.977159022 206 669 c 0
 202 644.83203125 192 444.440429688 192 381 c 1
 228 394 263 406 311 406 c 3
 417.118164062 406 494 309.276470588 494 217 c 3
 494 91.2343096234 358.218742974 -9 232 -9 c 3
 189.953125 -9 179.171875 4 163 4 c 3
 142 4 130.333333333 -0.687076317516 86 -17 c 1
 61 5 l 1
 61 5 65.3092949347 16.1341091729 67 23 c 0
 73 47.3657784011 80.1246066833 82.409377859 81 145 c 0
 83 288 85 367 85 510 c 3
 85 561.426379217 80.2587227012 599.861802166 76 611 c 0
 63.4155737632 643.913114773 48 653 34 653 c 3
 31.1428571429 653 25.4285714286 653 24 653 c 1
 21 686 l 1
EndSplineSet
Substitution2: "case-1" B
Substitution2: "pcap-1" b.pcap
Substitution2: "smcp-1" b.smcp
EndChar
StartChar: c
Encoding: 99 99 177
Width: 427
Flags: HMW
AnchorPoint: "Bottom" 230 -15 basechar 0
AnchorPoint: "Top" 233 465 basechar 0
LayerCount: 2
Fore
SplineSet
299 273 m 1
 262.838867188 290.428710938 213.354492188 320 181 320 c 3
 158.944335938 320 148 313.828125 148 267 c 3
 148 176.440429688 188.56640625 68 312 68 c 3
 335.810546875 68 355.958007812 75.5 370 83 c 1
 388 50 l 1
 352.444335938 21.5791015625 290.745117188 -10 228 -10 c 3
 179.989257812 -10 34 -7.544921875 34 178 c 3
 34 305.82421875 166.858398438 413 273 413 c 3
 321 413 370 391.604492188 401 367 c 1
 399 313 409 337 299 273 c 1
EndSplineSet
Substitution2: "case-1" C
Substitution2: "pcap-1" c.pcap
Substitution2: "smcp-1" c.smcp
EndChar
StartChar: d
Encoding: 100 100 196
Width: 519
Flags: HMW
AnchorPoint: "Bottom" 240 -15 basechar 0
AnchorPoint: "Top" 406 734 basechar 0
AnchorPoint: "TopRight" 519.5 581 basechar 0
LayerCount: 2
Fore
SplineSet
211 339 m 3
 197.438476562 339 176.319215559 333.742329594 166 325 c 0
 147.428710938 309.266601562 140 285.803710938 140 266 c 3
 140 171.549804688 198.994140625 75 309 75 c 3
 318.885742188 75 329.353515625 82 330 89 c 1
 332 144.991210938 335 203.252929688 334 260 c 1
 334 319.645507812 273.000241122 331.0724144 250 336 c 0
 243.814453125 337.325195312 221.806640625 339 211 339 c 3
329 35 m 1
 303 10.6852072011 247.70703125 1 197 1 c 3
 97 1 34 82.15234375 34 172 c 3
 34 250.2890625 90.1094407602 321.281152701 140 355 c 0
 184.13671875 384.830078125 238.135742188 399 267 399 c 3
 284.96875 399 325.9375 393.631835938 336 393 c 1
 336 505.741210938 334.199280512 548.968662046 327 592 c 0
 324.772024041 605.316995534 310.837431066 637 294 637 c 3
 285.512695312 637 275.11328125 637 272 638 c 1
 263 667 l 1
 331.302387256 681.51171875 389.311699312 702.244140625 452 752 c 1
 474 735 l 1
 470.866577149 720.461132813 464.516083453 692.340692194 463 681 c 0
 445.29296875 548.546875 441 352.314453125 441 185 c 3
 441 148.129882812 447 77 456 65 c 1
 458 59.6640625 467.366210938 56 472 56 c 1
 487.415039062 56.5 506.811523438 58 517 60 c 1
 519 24 l 1
 445.673828125 6.3994140625 359.615234375 -26 345 -26 c 3
 341.32421875 -26 338.465182249 -22.6794756026 335 -20 c 0
 330.095703125 -15.3649902344 329 32.3522949219 329 35 c 1
EndSplineSet
Substitution2: "case-1" D
Substitution2: "pcap-1" d.pcap
Substitution2: "smcp-1" d.smcp
EndChar
StartChar: e
Encoding: 101 101 215
Width: 445
Flags: HMW
AnchorPoint: "Bottom" 232 -15 basechar 0
AnchorPoint: "Ogonek" 325.65 23 basechar 0
AnchorPoint: "Top" 220 465 basechar 0
LayerCount: 2
Fore
SplineSet
194 350 m 7
 183.186523438 350 161.932617188 327.103515625 157 249.5 c 5
 272 272 l 4
 279 273.5 l 5
 267.306640625 307.3125 231.978515625 350 194 350 c 7
228 410 m 7
 312.953125 410 359.059570312 358.237304688 376 333 c 4
 397.545898438 300.900390625 404.543945312 293.1875 413 292 c 5
 413 268 l 5
 332.705078125 257.584960938 234.461914062 239.638671875 157 221.5 c 5
 157 221.026367188 157 220.473632812 157 220 c 7
 157 110.987304688 241.725585938 67 303 67 c 7
 337.74609375 67 361.087890625 81.6669921875 380 97 c 5
 407 62 l 5
 363.772460938 30.5439453125 302.017578125 -9 231 -9 c 7
 90.041015625 -9 32 88.45703125 32 181 c 7
 32 330.002929688 167.0859375 410 228 410 c 7
EndSplineSet
Substitution2: "case-1" E
Substitution2: "pcap-1" e.pcap
Substitution2: "smcp-1" e.smcp
EndChar
StartChar: f
Encoding: 102 102 249
Width: 385
Flags: HMW
AnchorPoint: "Bottom" 158 -15 basechar 0
AnchorPoint: "Top" 267 748 basechar 0
LayerCount: 2
Fore
SplineSet
403 755 m 3
 423.702148438 755 460.342773438 747.599609375 494 718 c 1
 492 678 471 667.16796875 395 615 c 1
 369.4375 630.099609375 347.526367188 669 303 669 c 3
 237.780273438 669 233.264648438 612.747070312 229.139648438 539 c 0
 226.620117188 493.958007812 227.564453125 446.0625 225 393 c 1
 277 397 310 397 362 401 c 1
 362 333 l 1
 309.658203125 337 275.341796875 339 223 343 c 1
 223 317.477539062 223 294.75390625 223 286 c 3
 223 208.803710938 226.575195312 105.814453125 233 61 c 0
 235.868164062 40.994140625 247.079101562 31.162109375 268 29 c 0
 287.352539062 27 291.479492188 27 311 27 c 1
 309 -7 l 1
 256.5 -2 195.5 0 143 0 c 3
 110.453125 0 66.546875 -3 34 -7 c 1
 33 23 l 1
 42.1669921875 23 52.244140625 24.4189453125 63 26 c 0
 92.9658203125 30.4052734375 91.59765625 47.5546875 95 86 c 0
 99.345703125 135.099609375 101 198.215820312 101 259 c 3
 101 276.745117188 101 309.936523438 101 343 c 1
 76 341 58 335 33 333 c 1
 33 401 l 1
 58 399 76 395 101 393 c 1
 101 435.65625 101 467.875 101 481 c 3
 101 586.952148438 173.362304688 658.416015625 259 705 c 0
 312.470703125 734.0859375 340.06640625 755 403 755 c 3
EndSplineSet
Substitution2: "salt-1" f.alt
Substitution2: "case-1" F
Substitution2: "pcap-1" f.pcap
Substitution2: "smcp-1" f.smcp
EndChar
StartChar: g
Encoding: 103 103 276
Width: 495
Flags: HMW
AnchorPoint: "Bottom" 233 -318 basechar 0
AnchorPoint: "Top" 232 465 basechar 0
LayerCount: 2
Fore
SplineSet
175 349 m 3
 162.426757812 349 151 321.741210938 151 287 c 3
 151 178.756835938 218.680664062 110 252 99 c 1
 268.6875 111.29296875 277 138.477539062 277 184 c 3
 277 267.025390625 242.537109375 349 175 349 c 3
88 -179 m 3
 88 -215.615234375 185.1484375 -221 243 -221 c 3
 269.194335938 -221 394 -212.359375 394 -140 c 7
 394 -118.390625 366.41015625 -105 322 -105 c 7
 291.365234375 -105 259.634765625 -115 229 -115 c 3
 198.577148438 -115 167.028320312 -111.666992188 149 -105 c 1
 95.4248046875 -126.142578125 88 -140.64453125 88 -179 c 3
197 18 m 3
 197 4.166015625 208.627929688 -1 219 -1 c 3
 254.1796875 -1 286.986328125 11 320 11 c 7
 415 11 462 -45.8994140625 462 -94 c 7
 462 -246.376953125 301.856445312 -329 173 -329 c 3
 80.1318359375 -329 20 -273.205078125 20 -233 c 3
 20 -140.639648438 98.7216796875 -84.5224609375 112 -74 c 1
 90.5751953125 -56.671875 68.4541015625 -25.48828125 63 4 c 1
 94 30 158.9375 48.6513671875 180 60 c 1
 92.2626953125 73.83203125 41 136 41 225 c 3
 41 350.041992188 196.262695312 407 233 407 c 3
 275.97265625 407 312.577148438 393.315429688 352 367 c 1
 382.278320312 371 409.380859375 379 444 379 c 3
 457.5 379 474.599609375 376 480 372 c 1
 452 277 l 1
 429.288085938 290 394.884765625 308.05859375 385 310 c 0
 382 310 l 1
 392.555664062 286.169921875 401 239.934570312 401 230 c 3
 401 132.405273438 295.43359375 90.5947265625 235 58 c 0
 198.588867188 37.625 197 28.873046875 197 18 c 3
EndSplineSet
Substitution2: "case-1" G
Substitution2: "pcap-1" g.pcap
Substitution2: "smcp-1" g.smcp
EndChar
StartChar: h
Encoding: 104 104 292
Width: 542
Flags: HMW
AnchorPoint: "Top" 127 733 basechar 0
AnchorPoint: "Bottom" 282 -15 basechar 0
LayerCount: 2
Fore
SplineSet
198 328 m 1
 196.5 289.038085938 193 235.448242188 193 189 c 3
 193 139.625 199.384765625 94.5732421875 204 76 c 0
 210.276367188 50.7451171875 225.000976562 41.0244140625 233 38 c 0
 237.622070312 36.2529296875 252.89453125 36 260 36 c 1
 257 -8 l 1
 210.270507812 -2.076171875 178.455078125 3 124 3 c 3
 93.0625 3 55.9375 -2 25 -6 c 1
 23 31 l 1
 26.5361328125 31.7998046875 26.2294921875 30.9189453125 32 33 c 0
 54.49609375 44.7626953125 63.1259765625 58.7529296875 72 103 c 0
 81.0205078125 147.981445312 87 217.86328125 87 274 c 3
 87 480.704101562 82.3173828125 562.602539062 81 581 c 0
 78.849609375 614.033203125 67.3330078125 643 41 643 c 3
 35.4287109375 643 30.0859375 643 23 642 c 1
 15 683 l 1
 84.109375 694.301757812 163.8515625 725.068359375 221 758 c 1
 240 738 l 1
 234.857421875 726.154296875 229.465820312 703.1015625 228 694 c 0
 206.888671875 562.895507812 199.111328125 474.658203125 198 361 c 1
 254.763671875 398.8203125 334.017578125 422 379 422 c 3
 434.473632812 422 474.44921875 385.215820312 475 301 c 0
 475.1328125 280.6875 476 234.6953125 476 183 c 3
 476 133.953125 475 86.6279296875 475 72 c 0
 475 50.181640625 491.9296875 41.9697265625 500 40 c 0
 504.38671875 38.6181640625 524.260742188 37 531 37 c 1
 529 -8 l 1
 484.897460938 1 455.495117188 3 408 3 c 3
 372 3 337.200195312 -2 306 -8 c 1
 307 34 l 1
 318.370117188 33.7998046875 324.045898438 33.8427734375 330 36 c 0
 349.107421875 42.9208984375 357.8203125 65.6240234375 364 114 c 0
 364.983398438 121.6953125 366 135.751953125 366 142 c 3
 366 186.6875 363.489257812 247.899414062 359 272 c 0
 350.55859375 317.31640625 341.208984375 348 293 348 c 3
 231.581054688 348 214.3515625 335 198 328 c 1
EndSplineSet
Substitution2: "case-1" H
Substitution2: "pcap-1" h.pcap
Substitution2: "smcp-1" h.smcp
EndChar
StartChar: k
Encoding: 107 107 313
Width: 511
Flags: HMW
AnchorPoint: "Top" 128 739 basechar 0
AnchorPoint: "Bottom" 272 -15 basechar 0
LayerCount: 2
Fore
SplineSet
188 235 m 1
 203.241210938 247.637695312 223.544429016 262.411879936 240 281 c 0
 254.492306112 297.370427151 275 322.482177734 275 337 c 3
 275 361.419921875 268.711914062 361.57421875 245 362 c 1
 247 401 l 1
 281.568359375 399 328 399 364 399 c 3
 446.054859698 399 454 399 485 403 c 1
 487 363 l 1
 432.471790661 351.316620617 334.905711744 287.792485172 286 257 c 2
 259 240 l 1
 323.695980674 183.723828125 390.058722245 129.103776042 454 72 c 1
 464 60 523.579101562 32.931640625 510 37 c 1
 508 -7 l 1
 467.489257812 -2.8 446 0 396 0 c 3
 363 0 327.260742188 -4.66666666667 294 -6 c 1
 291 36 l 1
 313.212890625 39.75 313.212890625 44.099609375 320 45 c 1
 282.771267361 85.9452338507 221.066427951 147.352231019 179 183 c 1
 192 192 l 1
 192 136.749835126 193.718563015 82.5628739701 204 62 c 0
 208 54 222.620531162 43.383225894 225 41 c 0
 230.56640625 35.4248046875 236.764648438 35 245 35 c 1
 242 -10 l 1
 200.841796875 -4.54552283654 177.841796875 0 127 0 c 3
 91.6875 0 49.3125 -4.66666666667 14 -6 c 1
 12 36 l 1
 20.25 35.599609375 26.303210801 34.9588132009 36 39 c 0
 64.5126953125 50.8828125 74.4900574744 65.2717662039 79 114 c 0
 82.8891225962 156.020507812 86 221.484375 86 274 c 3
 86 508.88671875 84.6355521189 563.078916569 82 592 c 0
 79.9586727061 614.400390625 67.7086727061 634 33 634 c 3
 30.951171875 634 18.4150390625 634.780273438 19 635 c 1
 11 677 l 1
 78.5323340311 688.602539062 155.155577153 720.13671875 211 754 c 1
 232 734 l 1
 226.857421875 722.692382812 221.76885527 700.861342819 220 692 c 0
 204.762195122 615.663956499 188 361.209103908 188 235 c 1
EndSplineSet
Substitution2: "case-1" K
Substitution2: "pcap-1" k.pcap
Substitution2: "smcp-1" k.smcp
EndChar
StartChar: l
Encoding: 108 108 318
Width: 252
Flags: HMW
AnchorPoint: "Bottom" 123 -15 basechar 0
AnchorPoint: "TopRight" 246 581 basechar 0
AnchorPoint: "Top" 125 734 basechar 0
LayerCount: 2
Fore
SplineSet
186 300 m 3
 186 221 196.580078125 90.45703125 206 63 c 0
 209.944335938 51.5029296875 224.741210938 39.419921875 226 39 c 0
 232 37 244 37 250 37 c 1
 244 -7 l 1
 202.50390625 -1 150.259765625 4 111 4 c 3
 74.7626953125 4 40.0185546875 -1 12 -5 c 1
 10 37 l 1
 17.7294921875 36.2001953125 30.822265625 36.8193359375 36 43 c 0
 43.978515625 52.5234375 56.185546875 71.5537109375 61 103 c 0
 67.875 147.909179688 72 217.86328125 72 274 c 3
 72 506.15625 69.81640625 575.716796875 68 597 c 0
 67.2509765625 605.776367188 56.3330078125 639 28 639 c 3
 21.6962890625 639 15.0400390625 639.5 10 640 c 1
 8 682 l 1
 76.103515625 692.849609375 154.68359375 720.465820312 211 754 c 1
 230 737 l 1
 229.23046875 728.803710938 220.485351562 695.197265625 218 686 c 0
 197.733398438 611 186 424 186 300 c 3
EndSplineSet
Substitution2: "case-1" L
Substitution2: "pcap-1" l.pcap
Substitution2: "smcp-1" l.smcp
EndChar
StartChar: m
Encoding: 109 109 336
Width: 780
Flags: HMW
AnchorPoint: "Bottom" 399 -15 basechar 0
AnchorPoint: "Top" 398 465 basechar 0
LayerCount: 2
Fore
SplineSet
715 152 m 3
 715 110.280649943 718.258498274 71.78749683 721 59 c 0
 724.611328125 42.1552734375 739.955850688 32.6382769333 747 29 c 0
 750.3625 27.26328125 762.91875 26.6 767 25 c 1
 761 -9 l 1
 725.61159446 -1.63636363636 700.770833333 0 663 0 c 3
 626.256198347 0 580.531749637 -4.54545454545 549 -10 c 1
 545 23 l 1
 552.21875 24.2001953125 561.581013302 25.0070200943 566 26 c 0
 572.6796875 27.5009765625 586.773555362 36.1904275585 589 45 c 0
 593.538269043 62.9569746377 604 62.8821409941 604 169 c 3
 604 211.47716506 605.616457148 255.737374057 594 286 c 0
 584.369140625 311.08984375 575.739257812 330 534 330 c 3
 516.04373507 330 482.552228009 319.422851562 460 305 c 1
 461 301.65234375 461 298.248046875 461 294 c 3
 461 243.333645065 457 198.713948568 457 149 c 3
 457 110.627790179 458.652958653 70.522047704 461 59 c 0
 464 44.2724609375 486.323292505 26.8371243367 494 25 c 0
 497.517578125 24.158203125 504.713867188 23 509 23 c 1
 504 -10 l 1
 460.073242188 -1.81818181818 444 0 397 0 c 3
 362 0 313.245117188 -4.54545454545 283 -10 c 1
 280 23 l 1
 288.243164062 23 291.80186108 24.5260937469 301 28 c 0
 312.180664062 32.22265625 333.324582752 50.6664428237 336 66 c 0
 341.25 96.0892039332 345 139.894952183 345 192 c 3
 345 226.375 342.003168667 262.350531835 334 292 c 0
 328.689263246 311.67477219 314.421158854 332 291 332 c 3
 263.450492527 332 236.372093023 327 204 300 c 1
 200.944335938 222.651805271 197 108.918534609 197 74 c 3
 197 44.638671875 220.90572254 27.5776752767 237 24 c 0
 239.987304688 23.3359375 243.631835938 23.2001953125 246 23 c 1
 243 -10 l 1
 210.438204405 -6.36363636364 168.245901639 0 123 0 c 3
 91 0 52.1875 -4.44444444444 20 -8 c 1
 18 25 l 1
 24.6787109375 26.6002604167 27.5512850969 27.6532782129 35 29 c 0
 55.9957596628 32.7960168087 74.5693255446 46.3651368677 76 64 c 0
 78.4706054687 93.5832266967 79 157.243012527 79 190 c 3
 79 208.126885776 81.1411398385 271.078223054 74 289 c 0
 63.5283203125 315.280273438 45.5751953125 318 30 318 c 3
 25.2353515625 318 22.2255859375 318 21 318 c 1
 24 350 l 1
 72.3389185855 358.884911381 120.677837171 363.961316464 186 416 c 1
 211 398 l 1
 206.333007812 382.5347108 207.333007812 360.196888706 205 337 c 1
 234.188311688 367 304.643127442 415 360 415 c 3
 415.849472656 415 450.714121094 375.92578125 458 338 c 1
 494.719379854 365.077148438 548.385736409 402 619 402 c 3
 687.897460938 402 716 350.16990566 716 303 c 3
 716 239.861328125 715 203.731445312 715 152 c 3
EndSplineSet
Substitution2: "case-1" M
Substitution2: "pcap-1" m.pcap
Substitution2: "smcp-1" m.smcp
EndChar
StartChar: n
Encoding: 110 110 345
Width: 523
Flags: HMW
AnchorPoint: "Bottom" 274 -15 basechar 0
AnchorPoint: "Top" 269 465 basechar 0
LayerCount: 2
Back
SplineSet
198 328 m 5
 196.5 289.038085938 193 235.448242188 193 189 c 7
 193 139.625 199.384765625 94.5732421875 204 76 c 4
 210.276367188 50.7451171875 225.000976562 41.0244140625 233 38 c 4
 237.622070312 36.2529296875 252.89453125 36 260 36 c 5
 257 -8 l 5
 210.270507812 -2.076171875 178.455078125 3 124 3 c 7
 93.0625 3 55.9375 -2 25 -6 c 5
 23 31 l 5
 26.5361328125 31.7998046875 26.2294921875 30.9189453125 32 33 c 4
 54.49609375 44.7626953125 63.1259765625 58.7529296875 72 103 c 4
 81.0205078125 147.981445312 87 217.86328125 87 274 c 7
 87 480.704101562 82.3173828125 562.602539062 81 581 c 4
 78.849609375 614.033203125 67.3330078125 643 41 643 c 7
 35.4287109375 643 30.0859375 643 23 642 c 5
 15 683 l 5
 84.109375 694.301757812 163.8515625 725.068359375 221 758 c 5
 240 738 l 5
 234.857421875 726.154296875 229.465820312 703.1015625 228 694 c 4
 206.888671875 562.895507812 199.111328125 474.658203125 198 361 c 5
 254.763671875 398.8203125 334.017578125 422 379 422 c 7
 434.473632812 422 474.44921875 385.215820312 475 301 c 4
 475.1328125 280.6875 476 234.6953125 476 183 c 7
 476 133.953125 475 86.6279296875 475 72 c 4
 475 50.181640625 491.9296875 41.9697265625 500 40 c 4
 504.38671875 38.6181640625 524.260742188 37 531 37 c 5
 529 -8 l 5
 484.897460938 1 455.495117188 3 408 3 c 7
 372 3 337.200195312 -2 306 -8 c 5
 307 34 l 5
 318.370117188 33.7998046875 324.045898438 33.8427734375 330 36 c 4
 349.107421875 42.9208984375 357.8203125 65.6240234375 364 114 c 4
 364.983398438 121.6953125 366 135.751953125 366 142 c 7
 366 186.6875 363.489257812 247.899414062 359 272 c 4
 350.55859375 317.31640625 341.208984375 348 293 348 c 7
 231.581054688 348 214.3515625 335 198 328 c 5
EndSplineSet
Fore
SplineSet
78 275 m 0
 74.7353515625 314.328125 59.6884765625 317 36 317 c 3
 30.6123046875 317 26.5458984375 317 20 317 c 1
 20 358 l 1
 71.919921875 365.942382812 123.837890625 370.48046875 194 417 c 1
 214 397 l 1
 211.638671875 381.7890625 209.694335938 366.231445312 204 337 c 1
 253.767386199 367.006835938 307.680782605 416 373 416 c 3
 429.916015625 416 465 377.114257812 465 301 c 3
 465 253.229492188 461 201.114257812 461 149 c 3
 461 114.092773438 462.923406063 80.9325370268 465 70 c 0
 469 48.94140625 493.190600088 39.5765675561 494 39 c 0
 497.727539062 36.3447265625 507.610351562 37.7998046875 512 37 c 1
 511 -9 l 1
 470.088867188 -1.6365234375 448.05859375 0 404 0 c 3
 371.576171875 0 325.100585938 -4.0904296875 297 -9 c 1
 299 35 l 1
 303.052734375 35.400390625 308.395605454 34.8287176589 313 36 c 0
 323.749023438 38.734375 342.714420401 47.2510231917 345 68 c 0
 347.622070312 91.8037109375 349 139.987304688 349 175 c 3
 349 206.625 345.003472667 255.16618309 343 267 c 0
 337.010742188 300.374023438 325.98828125 328 290 328 c 3
 252.015354887 328 221.770694814 316.837890625 200 312 c 1
 190.861328125 232.25390625 193 121.1328125 193 87 c 3
 193 56.2392578125 211.43034225 44.6275944814 222 41 c 0
 228.197265625 38.873046875 238.948242188 37.7998046875 245 37 c 1
 243 -8 l 1
 199.432617188 -3.63628472222 166 0 119 0 c 3
 87 0 49.5625 -3.33314732143 18 -6 c 1
 18 36 l 1
 26.25 38 30.7107522091 38.2095347325 39 41 c 0
 51.61328125 45.24609375 69.9817639301 61.7099186685 74 92 c 0
 77.4169921875 117.7578125 80 164.50390625 80 190 c 3
 80 205.596679688 80.0206246161 250.658212821 78 275 c 0
EndSplineSet
Substitution2: "case-1" N
Substitution2: "pcap-1" n.pcap
Substitution2: "smcp-1" n.smcp
EndChar
StartChar: o
Encoding: 111 111 358
Width: 505
Flags: HW
AnchorPoint: "Middle" 256 206 basechar 0
AnchorPoint: "Bottom" 250 -15 basechar 0
AnchorPoint: "Ogonek" 342 19.6582 basechar 0
AnchorPoint: "Horn" 421.5 341.8 basechar 0
AnchorPoint: "Top" 252 465 basechar 0
LayerCount: 2
Fore
SplineSet
257 416 m 3
 392 416 473 311.028037383 473 208 c 3
 473 79.2361707516 378.566986895 -11 255 -11 c 3
 130.558486523 -11 32 67.4 32 185 c 3
 32 346.186305164 167 416 257 416 c 3
218 359 m 3
 187.098152958 359 160 315.180598516 160 253 c 3
 160 156.297695896 217.998013903 43 280 43 c 3
 322.26124878 43 347 99.5882030956 347 160 c 3
 347 299.918397959 255.596212885 359 218 359 c 3
EndSplineSet
Substitution2: "case-1" O
Substitution2: "pcap-1" o.pcap
Substitution2: "smcp-1" o.smcp
EndChar
StartChar: q
Encoding: 113 113 421
Width: 512
Flags: HMW
AnchorPoint: "Bottom" 225 -15 basechar 0
AnchorPoint: "Top" 279 465 basechar 0
LayerCount: 2
Fore
SplineSet
316 72 m 1
 317.77734375 137.37890625 320 174.3359375 320 239 c 3
 320 247.482421875 317.291015625 266.1875 310 280 c 0
 284.971679688 327.411132812 235.719726562 337 194 337 c 3
 172.642578125 337 156 295.200195312 156 249 c 3
 156 154.524414062 188.524414062 59 303 59 c 3
 311.883789062 59 313.399414062 60.744140625 316 72 c 1
314 20 m 1
 291.770507812 10.7998046875 257.416992188 -3 217 -3 c 3
 112 -3 32 91.9052734375 32 181 c 3
 32 300.244140625 151 401 292 401 c 3
 363.663085938 401 367.696289062 374 392 374 c 3
 409.551757812 374 427.89453125 400.25 436 409 c 1
 469 386 l 1
 466.272460938 380.947265625 462.838867188 377.399414062 459 370 c 0
 449.49609375 351.684570312 443.909179688 331.049804688 433 254 c 0
 429.71484375 230.799804688 432 132.086914062 432 93 c 3
 432 -109.635742188 440.150390625 -187.5234375 450 -220 c 0
 458.328125 -247.458007812 475.50390625 -276.439453125 492 -277 c 0
 502.106445312 -277.34375 524 -281 531 -281 c 1
 529 -329 l 1
 498.565429688 -328 453.576171875 -327 398 -327 c 3
 356.424804688 -327 263.575195312 -332 222 -336 c 1
 221 -296 l 1
 230.862304688 -295.25 237.20703125 -294.583007812 247 -293 c 0
 270.637695312 -289.178710938 298.760742188 -256.69921875 306 -227 c 0
 312.6171875 -199.852539062 314 -80.181640625 314 20 c 1
EndSplineSet
Substitution2: "case-1" Q
Substitution2: "pcap-1" q.pcap
Substitution2: "smcp-1" q.smcp
EndChar
StartChar: r
Encoding: 114 114 438
Width: 423
Flags: HMW
AnchorPoint: "Bottom" 157 -15 basechar 0
AnchorPoint: "Top" 177.5 465 basechar 0
LayerCount: 2
Back
SplineSet
197 181 m 7
 197 150.371901931 207.46724887 82.3464586528 220 68 c 4
 239.960846803 46.0524258672 261.063738534 40.4296060354 296 38 c 4
 306.184912475 37.2625926503 317.958333333 38 327 37 c 5
 325 -3 l 5
 271.725490196 -2 173.37254902 1 116 1 c 7
 81.3333333333 1 46.6666666667 -4 12 -8 c 5
 12 34 l 5
 25.75 34.7142857143 40.7330868313 35.5962151072 52 41 c 4
 63.2068965517 46 72.3344108398 69.2059684514 77 92 c 4
 81 111.542253521 83 182.762506577 83 203 c 7
 83 214.807228915 82.8359356594 234.086194276 78 252 c 4
 72.715855573 272.908708438 58.1051439261 296 34 296 c 7
 21.5028456206 296 21 296 11 296 c 5
 9 340 l 5
 60.5757575758 347.363636364 134.454545455 379.974025974 193 421 c 5
 201.888888889 415.869230769 213 414.1 213 398 c 7
 213 386.728395062 208 339.938476562 204 301 c 5
 237.8828125 329 323 407 329 421 c 5
 347.0546875 420 392 382.763671875 392 340 c 7
 392 278 357 243 279 243 c 5
 269.842773438 284.672851562 253.625 286 248 286 c 7
 244.299804688 286 200.078125 254.03125 200 253 c 4
 198 226.686523438 197 196.611984828 197 181 c 7
EndSplineSet
Fore
SplineSet
209 181 m 3
 209 147.932617188 218.740064629 74.2156835422 231 59 c 0
 248.344726562 37.4736328125 265.554451684 31.1316894218 295 29 c 0
 305.184570312 28.2626953125 316.958007812 28 326 28 c 1
 325 -3 l 1
 274.784179688 -2.25 182 0 128 0 c 3
 93 0 58.6669921875 -2.221875 24 -4 c 1
 24 27 l 1
 37.75 27.7138671875 52.5889562221 28.90898012 64 34 c 0
 75.20703125 39 84.6009411434 62.1530324573 89 85 c 0
 93 105.774414062 95 181.486328125 95 203 c 3
 95 214.807617188 94.5462339557 247.010826977 90 265 c 0
 84.7158203125 285.909179688 70.10546875 309 46 309 c 3
 35.6763332201 309 35.2608695652 309 27 309 c 1
 25 340 l 1
 75.4549507473 347.36328125 147.726838485 379.973632812 205 421 c 1
 213.888671875 415.869140625 225 414.099609375 225 398 c 3
 225 386.728515625 220 339.938476562 216 301 c 1
 244 338 314 404 332 410 c 1
 376 423.021484375 414 382.763671875 414 340 c 3
 414 287.961914062 372 248.754882812 312 230 c 1
 297 271.258789062 274.133789062 286 260 286 c 3
 254 286 211.942812293 257.999974698 211 242 c 0
 209.4453125 215.616210938 209 196.612304688 209 181 c 3
EndSplineSet
Substitution2: "case-1" R
Substitution2: "pcap-1" r.pcap
Substitution2: "smcp-1" r.smcp
EndChar
StartChar: s
Encoding: 115 115 444
Width: 362
Flags: HMW
AnchorPoint: "Bottom" 168 -15 basechar 0
AnchorPoint: "Top" 186.5 465 basechar 0
LayerCount: 2
Fore
SplineSet
55 142 m 1
 90.2392578125 61.837890625 171.95703125 37 184 37 c 3
 208.97265625 37 220 49.4365234375 220 73 c 3
 220 122 172.55859375 142.234375 144 163 c 0
 106.634765625 187.905273438 51 205.831054688 51 280 c 3
 51 339.224609375 120.888671875 408 199 408 c 3
 233.755859375 408 265.3515625 403 298 398 c 1
 298 398 307.846679688 329.35546875 314 284 c 1
 298 276 l 1
 253.491210938 307.2890625 219.03125 358 180 358 c 3
 162.36328125 358 154 350.575195312 154 332 c 3
 154 313.837890625 163.588867188 289.23046875 232 255 c 0
 301.05078125 225.758789062 328 176.811523438 328 125 c 3
 328 39.56640625 236.84375 -12 159 -12 c 3
 112.642578125 -12 74.2998046875 -3.6396484375 38 7 c 1
 40 21 41 35.0400390625 41 50 c 3
 41 68.1025390625 38.4287109375 120.897460938 32 139 c 1
 55 142 l 1
EndSplineSet
Substitution2: "case-1" S
Substitution2: "pcap-1" s.pcap
Substitution2: "smcp-1" s.smcp
EndChar
StartChar: t
Encoding: 116 116 476
Width: 364
Flags: HMW
AnchorPoint: "Bottom" 197 -15 basechar 0
AnchorPoint: "TopRight" 327 531 basechar 0
AnchorPoint: "Top" 157.5 508 basechar 0
LayerCount: 2
Fore
SplineSet
14 356 m 1
 68.3037109375 410.400390625 148.377929688 470.240234375 199 492 c 1
 221 486 l 1
 214.666992188 455.89453125 216.333007812 430.420898438 214 398 c 1
 253.622070312 402 300.377929688 400 340 404 c 1
 332 334 l 1
 293.075195312 334 247.924804688 338 209 340 c 1
 203.8125 286.723632812 208 239.81640625 208 111 c 3
 208 86.85546875 215.1796875 62 272 62 c 3
 297.529296875 62 307.1015625 67.0078125 334 76 c 1
 334 76 333 70 343 50 c 1
 303.8125 23.2138671875 237.8125 -10 178 -10 c 3
 158 -10 86 -0.560546875 86 91 c 3
 86 186 90.6669921875 244.899414062 93 338 c 1
 93 338 48.17578125 332 20 332 c 1
 14 356 l 1
EndSplineSet
Substitution2: "case-1" T
Substitution2: "pcap-1" t.pcap
Substitution2: "smcp-1" t.smcp
EndChar
StartChar: u
Encoding: 117 117 519
Width: 535
Flags: HMW
AnchorPoint: "Bottom" 262 -15 basechar 0
AnchorPoint: "Ogonek" 424.65 -3 basechar 0
AnchorPoint: "Horn" 459.5 333 basechar 0
AnchorPoint: "Top" 271 465 basechar 0
LayerCount: 2
Fore
SplineSet
272 368 m 5
 345.630859375 379.176757812 422.040039062 393.706054688 479 406 c 5
 484 375 l 5
 463.635742188 332.055664062 452 168.088867188 452 131 c 7
 452 112.927734375 455.243164062 90.3388671875 458 81 c 4
 460.331054688 73.1025390625 465.9609375 67 481 67 c 7
 484.759765625 67 511.119140625 70 528 74 c 5
 526 32 l 5
 474.389648438 22.736328125 409.405273438 -2.7421875 364 -13 c 4
 356.499023438 -14.759765625 356.5 -14 349 -14 c 7
 338.181640625 -14 340.181640625 7.1083984375 335 57 c 5
 298.424804688 41.5712890625 229.739257812 -11 178 -11 c 7
 138.76171875 -11 98.6689453125 5.7138671875 83 46 c 4
 74.0625 68.9794921875 70 92.87890625 70 137 c 7
 70 185.166015625 73 263.534179688 73 285 c 4
 73 292.333007812 66.5107421875 307 50 307 c 7
 29.458984375 307 16.486328125 307 10 307 c 1
 3 339 l 1
 48.9951171875 339.555664062 147.233398438 391.216796875 211 423 c 5
 223 400 l 5
 202.286132812 330.305664062 194 248.663085938 194 172 c 7
 194 120.751953125 207.875976562 76 256 76 c 7
 299.3515625 76 314.016601562 86.8955078125 334 97 c 5
 334.76953125 176.669921875 339 258.908203125 339 269 c 7
 339 317.268554688 318.262695312 331 274 335 c 5
 272 368 l 5
EndSplineSet
Substitution2: "case-1" U
Substitution2: "pcap-1" u.pcap
Substitution2: "smcp-1" u.smcp
EndChar
StartChar: v
Encoding: 118 118 1212
Width: 418
Flags: HMW
AnchorPoint: "Bottom" 193 -15 basechar 0
AnchorPoint: "Top" 210 465 basechar 0
LayerCount: 2
Fore
SplineSet
419 376 m 1
 383 344.421875 387.218040202 345.470854839 360 295 c 0
 331.034482759 241.288770053 308.249299262 188.422136105 276 133 c 0
 251.240904207 90.450176956 219.555555556 38 215 -20 c 1
 170 -20 l 1
 148.944 105.456043956 92.3263851639 236.084649165 46 334 c 0
 41.244302227 344.051632871 31.7015035508 352.568334498 26 357 c 0
 19.3467563245 362.171434203 10.4193548387 367.111111111 3 370 c 1
 6 405 l 1
 35.4512195122 400.2 82 399 111 399 c 3
 144 399 191.834782609 402.636363636 223 407 c 1
 228 371 l 1
 221.890909091 366.555555556 207 363 207 363 c 2
 195.730693069 358.706930693 193 342.323731326 193 330 c 3
 193 311.651982446 198.008073666 292.462524701 203.797466458 272.00000189 c 0
 213.977661327 236.018254373 233.580993393 198.754211892 249 171 c 1
 276.348714488 209.051378737 283.549711212 223.482129403 299.682617188 276 c 0
 303.839018162 289.530440754 308 307.375297256 308 322 c 3
 308 340.769230769 294.396551724 366.923076923 259 373 c 1
 267 407 l 1
 295.53968254 400 308 399 325 399 c 3
 353 399 387.236842105 404 411 410 c 1
 419 376 l 1
EndSplineSet
Substitution2: "case-1" V
Substitution2: "pcap-1" v.pcap
Substitution2: "smcp-1" v.smcp
EndChar
StartChar: w
Encoding: 119 119 1214
Width: 680
Flags: HMW
AnchorPoint: "Bottom" 318 -15 basechar 0
AnchorPoint: "Top" 349 465 basechar 0
LayerCount: 2
Fore
SplineSet
680 378 m 1
 635.349609375 350.162847222 634.179228855 343.583865122 599 287 c 0
 568.039153343 237.201171875 538.750622168 183.428135507 515 133 c 0
 494.112699468 88.6513671875 468.531914894 18 463 -20 c 1
 430 -20 l 1
 409.322124222 74.1753457099 365.751042907 173.013488132 332 256 c 1
 310.000329748 211.020570146 288.14546957 166.772404296 265 122 c 0
 243.629270793 80.6606387363 208.333333333 5.28767123288 205 -20 c 1
 172 -20 l 1
 147.384615385 115 78.6101613696 288.807847571 52 343 c 0
 46.8665897715 353.282915799 39.0985813828 362.671358707 28 366 c 0
 20.6935060206 368.191333894 10.6666666667 370.603174603 2 371 c 1
 5 404 l 1
 38.6585365854 400 91 399 125 399 c 3
 156 399 190.769230769 400.5 220 405 c 1
 224 372 l 1
 221.023255814 371.166666667 219.226014133 371.292316742 216 371 c 0
 202.69223357 369.794151926 195 352.090651499 195 334 c 3
 195 320.858137176 201.374976892 292.413633891 207.39453125 273 c 0
 220.573049557 230.498028189 236.721768423 188.791473765 248 157 c 1
 270.629699488 208.85719401 299.723502304 257.1 309 311 c 1
 305.987955729 320.278431373 301.304455677 330.734078427 298 337 c 0
 292.808318682 346.844486098 286.381444083 358.725249068 276 365 c 0
 271.594967932 367.662488846 264.3125 370.444561298 259 372 c 1
 262 404 l 1
 288.407226562 400 329 399 355 399 c 3
 388 399 436.556640625 402.182128906 468 406 c 1
 473 374 l 1
 468.471679688 371.22249349 458 369 458 369 c 0
 449.833789063 366.727272727 444 355.111111111 444 344 c 3
 444 343 444.667576972 333.169621282 445 328 c 0
 448.0625 280.37404198 470.484375 211.284012807 494 165 c 1
 516.431372549 211.845528455 539 255 546 299 c 0
 546.966391761 305.0744625 549 316.136363636 549 328 c 3
 549 345.029386366 539.102864583 364.005891393 505 371 c 1
 511 404 l 1
 532.461914062 399.625 544 399 556 399 c 3
 595 399 639.081054688 404 672 410 c 1
 680 378 l 1
EndSplineSet
Substitution2: "case-1" W
Substitution2: "pcap-1" w.pcap
Substitution2: "smcp-1" w.smcp
EndChar
StartChar: x
Encoding: 120 120 1216
Width: 457
Flags: HW
AnchorPoint: "Bottom" 223 -15 basechar 0
AnchorPoint: "Top" 239 465 basechar 0
LayerCount: 2
Fore
SplineSet
3 27 m 1
 33 37.65234375 50.0576171875 47.453125 64 63 c 2
 179 190 l 1
 108 292 l 2
 72.1748046875 345.477539062 50.4873046875 364.743164062 19 368 c 1
 19 402 l 1
 36 401 69 399 86 399 c 3
 124 399 169 401 205 405 c 1
 208 372 l 1
 194 368.916015625 184 365.372070312 184 358 c 3
 184 355.75 183.787109375 350.727539062 185 349 c 2
 244 265 l 1
 275 304 l 2
 293.84765625 327.7109375 296 336.733398438 296 350 c 3
 296 362.165039062 283 367 272 370 c 1
 276 403 l 1
 292 400 322 399 338 399 c 3
 368 399 415 401 436 405 c 1
 439 381 l 1
 419 372 380 340 347 310 c 0
 319.993164062 285.448242188 295 258.666992188 269 233 c 1
 309 178.333007812 341.245117188 131.838867188 385 69 c 0
 405.166992188 40.037109375 424 33 449 27 c 1
 445 -5 l 1
 418 -2.142578125 368 0 340 0 c 3
 309 0 273.931640625 -2.142578125 238 -5 c 1
 235 28 l 1
 253 29 269 33 269 43 c 3
 269 48.142578125 266.298828125 56.2060546875 263 61 c 2
 201 155 l 1
 142 79 l 2
 138.080078125 73.9501953125 132 60 132 55 c 3
 132 39.966796875 142.6796875 34.6083984375 172 28 c 1
 168 -5 l 1
 146 -3 106 0 83 0 c 3
 58 0 29 -3 6 -5 c 1
 3 27 l 1
EndSplineSet
Substitution2: "case-1" X
Substitution2: "pcap-1" x.pcap
Substitution2: "smcp-1" x.smcp
EndChar
StartChar: y
Encoding: 121 121 1220
Width: 469
Flags: HMW
AnchorPoint: "Bottom" 306 -15 basechar 0
AnchorPoint: "Top" 243.5 465 basechar 0
LayerCount: 2
Fore
SplineSet
142 -346 m 1
 136.688476562 -346 111.458984375 -343 61 -343 c 3
 26.3447265625 -343 18.2587890625 -345 -6 -346 c 1
 -6 -346 -5 -326.444335937 -7 -313 c 1
 102.62906901 -259.367956199 82.8709309896 -214.963996611 175 -29 c 1
 159.951000547 71.9961227047 89.7024349233 248.523145718 58.6689453125 318 c 0
 46.8263330477 344.512888397 39.3382931633 360.890103566 22 367 c 0
 15.919921875 369.142578125 7.7744140625 370.452148438 1 372 c 1
 5 405 l 1
 33.3955078125 401 77 399 105 399 c 3
 150 399 186.787109375 399.857226563 229 405 c 1
 233 373 l 1
 229 372 226.594884423 370.146910522 221 369 c 0
 198.745939555 364.438079834 196 344.118789673 196 334 c 3
 196 318.847395833 197.650899417 304.877077577 201.634765625 287 c 0
 213 236 236.719983113 156.632719788 262 118 c 1
 292.857142857 160.630681818 343.804891214 274.530321364 350 301 c 0
 351.653498675 308.06486037 352 319.081972064 352 327 c 3
 352 340.737491689 347.604492188 363.482297207 289 373 c 1
 292 405 l 1
 321.652481618 401.182198661 362.4 399 380 399 c 3
 409.337209302 399 442.310944313 400.25 467 404 c 1
 471 372 l 1
 440.929522236 362.626953125 430.119292833 350.539569064 404 299 c 0
 387.2 265.849609375 281.073675634 72.2704488427 236 -13 c 0
 221.209365706 -40.9809446901 149.621621622 -251 142 -346 c 1
EndSplineSet
Substitution2: "case-1" Y
Substitution2: "pcap-1" y.pcap
Substitution2: "smcp-1" y.smcp
EndChar
StartChar: z
Encoding: 122 122 1223
Width: 456
Flags: HMW
AnchorPoint: "Bottom" 225 -15 basechar 0
AnchorPoint: "Top" 231.5 465 basechar 0
LayerCount: 2
Fore
SplineSet
299 0 m 2
 173 0 l 2
 146 0 53.716796875 -7.2 34 -18 c 1
 14 18 l 1
 103.719726562 119.182617188 185.666015625 235.099609375 240 352 c 1
 241.975585938 355.6484375 234.215820312 356 227 356 c 3
 186.6953125 356 152.477606546 354.869824446 114 346 c 0
 77.65625 337.622070312 50 303 44 293 c 1
 16 306 l 1
 49 432 l 1
 73.48046875 417 101.115234375 398 236 398 c 3
 329.936523438 398 406.515625 399 430 410 c 1
 440 389 l 1
 355.391924215 275.677530109 248.325991189 161 211 38 c 1
 269 40 l 2
 303.992007378 41.2277897326 329.54233432 49.4597965818 359 70 c 0
 376.333007812 82.0859375 390.557280423 98.0347702118 402 117 c 0
 407.624023438 126.321289062 412.909179688 135.083007812 416 148 c 1
 442 140 l 1
 411 -18 l 1
 384.537109375 -6.4740234375 372 -8.9396263829e-15 299 0 c 2
EndSplineSet
Substitution2: "case-1" Z
Substitution2: "pcap-1" z.pcap
Substitution2: "smcp-1" z.smcp
EndChar
StartChar: asciitilde
Encoding: 126 126 161
Width: 394
Flags: HW
LayerCount: 2
Fore
SplineSet
16 172 m 1
 46.6451612903 241.511111111 114.827956989 308 111 308 c 3
 154.977272727 308 248.045454545 269 291 269 c 3
 298.454545455 269 320.818181818 293.391304348 332 320 c 1
 378 308 l 1
 354.176470588 245.134020619 301.388235294 165 297 165 c 3
 253.118918919 165 146.740540541 204 99 204 c 3
 89.25 204 67.5 176.307692308 57 159 c 1
 16 172 l 1
EndSplineSet
Position2: "cpsp-1" dx=0 dy=0 dh=50 dv=100
Position2: "'case' vertical ajustments for all-caps-1" dx=0 dy=90 dh=0 dv=0
EndChar
StartChar: Aogonek
Encoding: 260 260 1247
Width: 748
Flags: HW
AnchorPoint: "Top" 388 699 basechar 0
AnchorPoint: "Bottom" 374 -15 basechar 0
LayerCount: 2
Back
SplineSet
258.936523438 262.078125 m 5
 291.470162493 254.346272182 386.978999734 256.550904366 429.59375 257.98046875 c 5
 404.08984375 328.172851562 382.747070312 385.323242188 343 452 c 5
 313.836914062 390.020507812 285.318359375 324.142578125 258.936523438 262.078125 c 5
451.732393268 -38.7948010905 m 4
 479.284990549 -5.78667410091 488.330101365 26.6186527688 488.330101365 54.7860229881 c 7
 488.330101365 71.7390696762 485.053551332 87.1569359461 480.563476562 100.247070312 c 4
 465.80859375 143.262695312 461.770507812 159.688476562 447 198 c 5
 393.582101112 209.730189602 301.043734872 211.771705607 237 204 c 5
 223.108398438 170.885742188 207.052734375 137.04296875 203.0546875 118.518554688 c 4
 195.220703125 82.2158203125 221.1953125 39.015625 296 27 c 5
 293.5 -11.1337890625 l 5
 249.64453125 -4.138671875 175 0 111 0 c 4
 78 0 47.248046875 -1.3310546875 25 -3.9111328125 c 5
 25 -3.9111328125 23 19.150390625 22 31 c 5
 91.64453125 44.2490234375 113.047851562 97.96875 117.467773438 107.530273438 c 4
 210.196289062 308.107421875 282.659179688 462.831054688 345 636 c 4
 354 661 361 695 361.456054688 711 c 5
 418.65625 711 l 5
 419.897460938 683.991210938 425.697265625 659.284179688 430 644 c 4
 462.37109375 529 544.73828125 323.356445312 648.416992188 80.8017578125 c 4
 665.818359375 40.0908203125 711.481445312 30.4072265625 726 29 c 5
 726 29 724 13.541015625 722 -5.0830078125 c 5
 688.33984375 -1.6083984375 644 0 600 0 c 7
 570.79584634 0 546.230907554 -16.3379315328 528.707848353 -41.9999983547 c 4
 510.229742642 -69.0607060813 499.58203125 -106.489619503 499.58203125 -146.0625 c 4
 499.58203125 -182.943359375 521.670898438 -215.021484375 545.970703125 -215.021484375 c 4
 551.514648438 -215.021484375 559.711914062 -214.560546875 565 -214 c 5
 565 -214 590.186523438 -236.963867188 596.284179688 -254.911132812 c 5
 569.229492188 -302.647460938 516.794921875 -338.23046875 475.21484375 -338.23046875 c 4
 426.03515625 -338.23046875 379.416015625 -289.419921875 379.416015625 -227.85546875 c 4
 379.416015625 -170.374068124 395.480399511 -102.737022512 451.732393268 -38.7948010905 c 4
EndSplineSet
Fore
SplineSet
258.936523438 262.078125 m 1
 291.470162493 254.346272182 386.978999734 256.550904366 429.59375 257.98046875 c 1
 404.08984375 328.172851562 382.747070312 385.323242188 343 452 c 1
 313.836914062 390.020507812 285.318359375 324.142578125 258.936523438 262.078125 c 1
451.732393268 -38.7948010905 m 0
 479.284990549 -5.78667410091 488.330101365 26.6186527688 488.330101365 54.7860229881 c 3
 488.330101365 71.7390696762 485.053551332 87.1569359461 480.563476562 100.247070312 c 0
 465.80859375 143.262695312 461.770507812 159.688476562 447 198 c 1
 393.582101112 209.730189602 301.043734872 211.771705607 237 204 c 1
 223.108398438 170.885742188 207.052734375 137.04296875 203.0546875 118.518554688 c 0
 195.220703125 82.2158203125 221.1953125 39.015625 296 27 c 1
 293.5 -11.1337890625 l 1
 249.64453125 -4.138671875 175 0 111 0 c 0
 78 0 47.248046875 -1.3310546875 25 -3.9111328125 c 1
 25 -3.9111328125 23 19.150390625 22 31 c 1
 91.64453125 44.2490234375 113.047851562 97.96875 117.467773438 107.530273438 c 0
 210.196289062 308.107421875 282.659179688 462.831054688 345 636 c 0
 354 661 361 695 361.456054688 711 c 1
 418.65625 711 l 1
 419.897460938 683.991210938 425.697265625 659.284179688 430 644 c 0
 462.37109375 529 544.73828125 323.356445312 648.416992188 80.8017578125 c 0
 665.818359375 40.0908203125 711.481445312 30.4072265625 726 29 c 1
 726 29 724 13.541015625 722 -5.0830078125 c 1
 688.33984375 -1.6083984375 644 0 600 0 c 3
 570.79584634 0 546.230907554 -16.3379315328 528.707848353 -41.9999983547 c 0
 510.229742642 -69.0607060813 499.58203125 -106.489619503 499.58203125 -146.0625 c 0
 499.58203125 -182.943359375 521.670898438 -215.021484375 545.970703125 -215.021484375 c 0
 551.514648438 -215.021484375 559.711914062 -214.560546875 565 -214 c 1
 565 -214 590.186523438 -236.963867188 596.284179688 -254.911132812 c 1
 569.229492188 -302.647460938 516.794921875 -338.23046875 475.21484375 -338.23046875 c 0
 426.03515625 -338.23046875 379.416015625 -289.419921875 379.416015625 -227.85546875 c 0
 379.416015625 -170.374068124 395.480399511 -102.737022512 451.732393268 -38.7948010905 c 0
EndSplineSet
Position2: "cpsp-1" dx=0 dy=0 dh=50 dv=100
Substitution2: "c2pc-1" aogonek.pcap
Substitution2: "c2sc-1" aogonek.smcp
EndChar
StartChar: Eogonek
Encoding: 280 280 1267
Width: 619
UnlinkRmOvrlpSave: 1
Flags: HW
HStem: -347.889 73.7197<484.634 553.852> -9 35<56 102.007> 333 36<205 473.393> 657 31<48 108.489>
VStem: 124 81<87.2765 333 369 603.172> 395.766 71.875<-257.592 -149.807> 497 36<249 305.348> 538 30<537 619.889>
AnchorPoint: "Top" 330 699 basechar 0
LayerCount: 2
Fore
SplineSet
19 683 m 1
 164.041992188 675.711914062 213.176757812 672.938476562 297.912109375 672.938476562 c 0
 461.7265625 672.938476562 529.950195312 681.373046875 563 689 c 1
 576.150390625 677.61328125 580.794921875 672.633789062 580.794921875 664.500976562 c 0
 580.794921875 649.040039062 568.204101562 622.23046875 561 520 c 1
 519 514 l 1
 517 530 511.488088997 574.818099158 495 587 c 0
 462.73828125 610.8359375 408.797851562 621.568359375 358.26953125 621.568359375 c 0
 331.68359375 621.568359375 306.041914989 618.596969925 285 613 c 0
 277.671875 611.05078125 268.443774177 570.305608402 268 567 c 0
 260 507.409179687 253 434.249023438 251 378 c 1
 287.83984375 382 403.945392683 381.927422738 412 384 c 0
 451.37890625 394.1328125 469.5 458.700195312 480 473 c 1
 524 459 l 1
 515.80078125 422.314453125 512.486328125 385.90625 512.486328125 349.5078125 c 0
 512.486328125 310.4375 516.305664062 271.377929688 522 232 c 1
 474 214 l 1
 452.5 276.700195312 455.964941496 302.641849132 412 320 c 0
 386.671875 330 304.53515625 328 251 330 c 1
 249 255.415039062 257.999135015 175.748082055 274 125 c 0
 278.137695312 111.876953125 295.684497649 81.8807508536 297 81 c 0
 317.672851562 67.1591796875 337.379882812 64.060546875 360.392578125 64.060546875 c 0
 382.389648438 64.060546875 430.673841565 76.3954865043 457 93 c 0
 513.865234375 128.866210938 531.666992188 150.8828125 583 199 c 1
 616 191 l 1
 606.525930667 120.995781681 558.588975069 22.1106094021 533.945775115 -33.9999988128 c 0
 516.060397289 -74.7235830004 506.58203125 -125.888853085 506.58203125 -146.0625 c 0
 506.58203125 -182.943359375 528.670898438 -215.021484375 552.970703125 -215.021484375 c 0
 558.514648438 -215.021484375 566.711914062 -214.560546875 572 -214 c 1
 572 -214 597.186523438 -236.963867188 603.284179688 -254.911132812 c 1
 576.229492188 -302.647460938 523.794921875 -338.23046875 482.21484375 -338.23046875 c 0
 433.03515625 -338.23046875 386.416015625 -289.419921875 386.416015625 -227.85546875 c 0
 386.416015625 -156.705517203 428.905622705 -69.9958472367 484.413085938 6.0068359375 c 1
 354.328804549 6.86942169791 331.018420129 12.1396484375 272.466796875 12.1396484375 c 0
 178.909179688 12.1396484375 143.36328125 7.10546875 25 -12 c 1
 11 26 l 1
 68.375 43.908203125 111.187214209 73.9716809726 113 109 c 0
 116.595703125 178.479492188 118.575195312 184.825195312 118.575195312 271.65625 c 0
 118.575195312 406.297851562 115.084196148 495.132826374 109 588 c 0
 107 618.52734375 85.31640625 618.536132812 9 645 c 1
 19 683 l 1
EndSplineSet
Position2: "cpsp-1" dx=0 dy=0 dh=50 dv=100
Substitution2: "c2pc-1" eogonek.pcap
Substitution2: "c2sc-1" eogonek.smcp
EndChar
StartChar: eogonek
Encoding: 281 281 232
Width: 435
UnlinkRmOvrlpSave: 1
Flags: HW
HStem: -326 60.1279<287.116 362.674> 425 168
VStem: 60 185 200.562 69.21<-249.43 -117.14>
AnchorPoint: "Top" 209 465 basechar 0
LayerCount: 2
Fore
SplineSet
371.069335938 45.6806640625 m 1
 291.984375 -24.4150390625 273.330078125 -97.8818359375 273.330078125 -153.823242188 c 3
 273.330078125 -189.192382812 295.750976562 -211.658203125 330.349609375 -211.658203125 c 3
 333.250976562 -211.658203125 338.442382812 -212.745117188 354.256835938 -209.223632812 c 1
 347.311523438 -204.868164062 363.475585938 -219.8046875 365.387695312 -226.29296875 c 1
 337.8984375 -280.849609375 292.590820312 -303.658203125 252.120117188 -303.658203125 c 3
 202.778320312 -303.658203125 158.912109375 -266.974609375 158.912109375 -202.493164062 c 3
 158.912109375 -146.52734375 210.487304688 -29.1611328125 364.892578125 66.0888671875 c 1
 371.069335938 45.6806640625 l 1
EndSplineSet
Refer: 215 101 N 1 0 0 1 0 0 3
Substitution2: "smcp-1" eogonek.smcp
Substitution2: "case-1" Eogonek
Substitution2: "pcap-1" eogonek.pcap
EndChar
StartChar: dotlessi
Encoding: 305 305 213
Width: 281
Flags: HMW
AnchorPoint: "Top" 153.996 465 basechar 0
LayerCount: 2
Fore
SplineSet
213.99609375 187 m 3
 213.99609375 152.39453125 218.067382812 93.994140625 222.99609375 61 c 0
 225.567382812 44.28125 237.8984375 29.7431640625 246.99609375 27 c 0
 258.018554688 23.5791015625 267.538085938 23.6669921875 275.99609375 23 c 1
 270.99609375 -10 l 1
 230.748046875 -4 185.33984375 1 141.99609375 1 c 3
 108.55859375 1 68.43359375 -6 34.99609375 -10 c 1
 30 22.9951171875 l 1
 42.4462890625 24.595703125 61.9033203125 28.712890625 72.99609375 31 c 0
 74.3310546875 31.3095703125 87.19140625 39.4091796875 90.99609375 86 c 0
 92.6826171875 106.651367188 95.99609375 145.939453125 95.99609375 167 c 3
 95.99609375 189.240234375 92.6064453125 280.364257812 87.99609375 306 c 0
 85.99609375 316 72.0791015625 319 65.99609375 319 c 0
 65.99609375 319 65.99609375 318.850585938 49.49609375 318.799804688 c 1
 40.99609375 352 l 1
 62.1630859375 353.049804688 130.944335938 377.169921875 213.99609375 423 c 1
 231.99609375 401 l 1
 229.370117188 396.276367188 226.147460938 370.71484375 224.998046875 362.599609375 c 0
 218.764648438 298.599609375 213.99609375 204.875 213.99609375 187 c 3
EndSplineSet
Substitution2: "case-1" I
Substitution2: "pcap-1" i.pcap
Substitution2: "smcp-1" i.smcp
EndChar
StartChar: Eng
Encoding: 330 330 1266
Width: 836
Flags: HW
HStem: -241 62<483.653 578.44> -10 44<23.3182 86.8179 186.794 270.067> 655 39<771.217 833> 663 38<601.079 678.507>
VStem: 97 55<66.5393 314.07> 105 56<351.62 550> 676.266 70.7344<-86.2532 70.0219>
LayerCount: 2
Fore
SplineSet
628 -189 m 0xe6
 589 -216 552 -241 493 -241 c 3
 461 -241 411 -230 386 -208 c 1
 387.224489796 -178.046875 386 -178.046875 446 -137 c 1
 485 -155 508.349151158 -179 554 -179 c 3
 640.616503398 -179 676.265625 -76.9678502479 676.265625 -13.4755859375 c 3
 676.265625 48.2626834417 640.03404243 103.097021502 604 139.090820312 c 0
 459.896 279.614068929 313.026 416.065410818 161 550 c 1xe6
 152 154 l 2
 149.672574689 52.4216563039 186 44.674796748 277 35 c 1
 269 -11 l 1
 229.225006617 -2.55029543162 191.72886241 0.193359375 156.584960938 0.193359375 c 0
 107.789937357 0.193359375 63.5294692282 -6.59829339283 24 -10 c 1
 19 34 l 1
 77 34 94.2505340003 45.0370931165 97 93 c 0xea
 106 246.782786885 108.836453881 409.412965035 105 571 c 0
 104 614 69 649 12 648 c 1
 14 692 l 1
 53 688 104.987806691 684 146 684 c 0
 161 684 162.224003945 680.217054625 169 673 c 0
 318.792 516.927864326 473.300161891 367.004316767 636 223.227539062 c 0
 659.155 202.310678333 682.86 176.9488472 699 154 c 1
 708 281.98180798 710.135155394 409.964631854 709 545 c 0
 708 667 656 656 597 663 c 1
 602 701 l 1xd6
 658.737273127 693.806776525 706.285370634 691.3984375 751.0625 691.3984375 c 0
 778.931628397 691.3984375 805.747514379 692.483615703 833 694 c 1
 837 655 l 1
 788 649 766.708243919 651.026764413 763 609 c 0
 748 442.189493433 745 264.596148366 745 86 c 0
 745 63 747 43 747 0 c 3
 747 -86.94 692.388915009 -144.42305884 628 -189 c 0xe6
EndSplineSet
Position2: "cpsp-1" dx=0 dy=0 dh=50 dv=100
Substitution2: "c2pc-1" eng.pcap
Substitution2: "c2sc-1" eng.smcp
EndChar
StartChar: uogonek
Encoding: 371 371 1207
Width: 544
UnlinkRmOvrlpSave: 1
Flags: HW
HStem: -300 60.1279<121.017 198.674>
VStem: 36.562 69.209<-226.6 -119.119>
LayerCount: 2
Fore
SplineSet
441.719726562 16.3388671875 m 1
 362.633789062 -12.162109375 343.98046875 -78.4765625 343.98046875 -150.165039062 c 3
 343.98046875 -185.534179688 366.401367188 -208 401 -208 c 3
 403.901367188 -208 409.091796875 -209.086914062 424.907226562 -205.565429688 c 1
 417.961914062 -201.209960938 434.125976562 -216.146484375 436.038085938 -222.634765625 c 1
 408.547851562 -277.19140625 363.241210938 -300 322.770507812 -300 c 3
 273.427734375 -300 229.5625 -263.31640625 229.5625 -198.834960938 c 3
 229.5625 -119.745117188 281.13671875 -16.7998046875 435.54296875 36.7470703125 c 1
 441.719726562 16.3388671875 l 1
EndSplineSet
Refer: 519 117 N 1 0 0 1 0 0 2
Substitution2: "smcp-1" uogonek.smcp
Substitution2: "case-1" Uogonek
Substitution2: "pcap-1" uogonek.pcap
EndChar
StartChar: longs
Encoding: 383 383 332
Width: 357
Flags: HW
HStem: -6 36<34 97.3708 215.17 284.568> 1 32<191.619 282.018> 356 25<46 67.3182> 701 55<273.459 377.117>
VStem: 113 72<42.1466 356 403 602.768>
AnchorPoint: "Top" 262 748 basechar 0
AnchorPoint: "Bottom" 156 -15 basechar 0
LayerCount: 2
Fore
SplineSet
359 756 m 3x78
 391 756 441 745 466 723 c 1
 465 696 466 696 417 659 c 1
 378 677 347 701 309 701 c 3
 206 701 201 609 191 498 c 0
 187.339 461.394 185 339.326 185 293 c 3
 185 211 186 134 191 54 c 0
 192 39 198 34 214 33 c 0x78
 239 32 262 32 287 31 c 1
 284 -6 l 1xb8
 242 -1 182 1 140 1 c 3x78
 110 1 64 -2 34 -6 c 1
 33 30 l 1xb8
 44 31 58 31 69 33 c 0
 100 40 104 53 106 81 c 0
 111 133 114 201 114 266 c 3
 114 285.149 113 320.574 113 356 c 1
 46 356 l 1
 46 381 l 1
 113 403 l 1
 113 439.562 113 481.75 113 493 c 3
 113 601 156 657 224 704 c 0
 263 731 300 756 359 756 c 3x78
EndSplineSet
Substitution2: "case-1" S
Substitution2: "pcap-1" s.pcap
Substitution2: "smcp-1" s.smcp
EndChar
StartChar: uni0237
Encoding: 567 567 602
Width: 265
Flags: HMW
AnchorPoint: "Top" 120 465 basechar 0
LayerCount: 2
Fore
SplineSet
-27 -328 m 1
 -21.3571428571 -272.527272727 -20.786172845 -258.612691618 12 -215 c 0
 27.2377811917 -194.730459691 41.2961329837 -163.500440944 50 -140 c 0
 60 -113 71 -17 71 96 c 3
 71 236.851689927 68.4899276043 260.855170616 55 310 c 0
 52.0909219865 320.597991838 42.5735294117 329 25 329 c 3
 16.2571428571 329 10.2946428571 329 7 329 c 1
 1 362 l 1
 68.014084507 373.189189189 115.697183099 386.243243243 184 431 c 1
 202 412 l 1
 197.769230769 398.807692308 192.078151071 373.451033966 191 363 c 0
 185.285714285 319 183 217 183 196 c 3
 183 139 183 -17 183 -84 c 3
 183 -123.980392157 172.513052236 -166.979696522 159 -188 c 0
 132 -230 91.3834005017 -256.793463705 46 -276 c 0
 27.0660834633 -284.012950796 3.29411764706 -321.573529412 2 -335 c 1
 -27 -328 l 1
EndSplineSet
EndChar
StartChar: acutecomb
Encoding: 769 769 3
Width: 0
Flags: HW
AnchorPoint: "TopMark" -216 403 mark 0
AnchorPoint: "Top" -198.5 402 mark 0
AnchorPoint: "TopMark" -191 616 basemark 0
LayerCount: 2
Fore
SplineSet
-237.222 452.25 m 1
 -216.2935625 513.283085 -172.712875 601.563 -143.688 658.936 c 1
 -143.688 658.936 -88.6934 641.772 -45.5782 605.24 c 1
 -95.313328125 565.93837 -152.341828125 499.70444 -203.882 420.902 c 1
 -237.222 452.25 l 1
EndSplineSet
EndChar
StartChar: uni031B
Encoding: 795 795 661
Width: 0
Flags: HW
AnchorPoint: "Horn" -73.5 341.8 mark 0
LayerCount: 2
Fore
SplineSet
-25.236328125 384.76953125 m 3
 -25.236328125 392.775961692 -42.0119737763 406.390716169 -58.8623046875 426.607421875 c 1
 -40.7308259266 466.943729203 -9.43129973703 492.322265625 19.20703125 492.322265625 c 3
 62.270997807 492.322265625 75.625 455.857421875 75.625 444.775390625 c 3
 75.625 401.901835932 -4.8019374011 338.486902588 -71.9999983484 330.775091775 c 0
 -76.2267739624 330.290016857 -80.401210282 330.025328164 -84.5 330 c 1
 -85 348 l 1
 -81.7399430443 348.098532571 -78.3823625483 348.365417289 -75.000000663 348.801862675 c 0
 -50.7548224958 351.930355875 -25.236328125 363.771207582 -25.236328125 384.76953125 c 3
EndSplineSet
EndChar
StartChar: uni0328
Encoding: 808 808 666
Width: 0
Flags: HW
AnchorPoint: "Ogonek" -104.35 21.6582 mark 0
LayerCount: 2
Fore
SplineSet
-94.2801921875 16.3389296875 m 1
 -173.366025672 -42.1621448725 -192.01953125 -103.476342512 -192.01953125 -150.165039062 c 3
 -192.01953125 -185.533807331 -169.599046276 -208 -135 -208 c 3
 -132.098672979 -208 -126.907979676 -209.086989474 -111.092773438 -205.565429688 c 1
 -118.038400809 -201.209874246 -101.873989885 -216.146508508 -99.9619140625 -222.634765625 c 1
 -127.451791662 -277.191478292 -172.758761993 -300 -213.229492188 -300 c 3
 -262.572026434 -300 -306.4375 -263.316575783 -306.4375 -198.834960938 c 3
 -306.4375 -149.744838522 -254.862947963 -46.7993373111 -100.457289062 36.7470328125 c 1
 -94.2801921875 16.3389296875 l 1
EndSplineSet
EndChar
StartChar: Gamma
Encoding: 915 915 1276
Width: 590
Flags: HW
AnchorPoint: "Top" 321 699 basechar 0
AnchorPoint: "Bottom" 183 -15 basechar 0
LayerCount: 2
Fore
SplineSet
386 -9 m 1
 327.980329301 0.0398663493979 287.663712202 4.349609375 242.033203125 4.349609375 c 1
 188.49771947 4.349609375 129.172044989 -0.321284282647 46 -9 c 1
 34 30 l 1
 70 36.2012987013 104.779166667 55 109 107 c 0
 111.39034635 136.448689486 111.8 164.570855505 111.8 182.488 c 3
 111.8 340.88 106.311428312 484.082862064 101 585 c 0
 99 623 72.3913043478 636 21 650 c 1
 31 688 l 1
 91.1378304176 683.415184402 158.09098934 680.94938533 224.22420556 680.94938533 c 1
 390.396657555 680.94938533 550.565480264 695.377223398 559 710 c 5
 568.729155608 698.747457028 574.291992188 696.738159441 574.291992188 670.650390625 c 5
 574.291992188 637.372347048 563.186705029 590.970276978 558 472 c 5
 520 466 l 5
 516 472 496.057231523 565.322813961 465 590 c 4
 430.736465449 617.22455866 380.342858432 633.577148438 333.118164062 633.577148438 c 7
 312.810613701 633.577148438 286.182302642 629.954889837 275 625 c 0
 260.890169908 615.46730538 255.855517922 587.111622314 255 576 c 0
 245 483.227272728 247 354 247 311 c 3
 247 261.195127943 248.934136817 149.388196179 273 99 c 0
 279.764401648 85.3045989322 312 45.4275403609 392 37 c 1
 386 -9 l 1
EndSplineSet
Position2: "cpsp-1" dx=0 dy=0 dh=50 dv=100
Substitution2: "c2pc-1" gamma.pcap
Substitution2: "c2sc-1" gamma.smcp
EndChar
StartChar: Theta
Encoding: 920 920 1325
Width: 845
Flags: HW
AnchorPoint: "Top" 426 699 basechar 0
AnchorPoint: "Bottom" 422 -15 basechar 0
LayerCount: 2
Fore
SplineSet
560.5 456.5 m 1
 558.443359375 394.015625 558.918945312 303.134765625 565.5 236.5 c 1
 531.5 234.5 l 1
 524.846679688 264.19140625 514.51171875 275.70703125 495 289 c 0
 489.643554688 292.649414062 451.56640625 303 418 303 c 3
 373.845703125 303 330.657226562 297.30078125 324 289 c 0
 314.5 277.154296875 310.500976562 257.614257812 307.5 236.5 c 1
 268.5 237.5 l 1
 274.977539062 319.166015625 275.790039062 378.576171875 268.5 460.5 c 1
 307.5 462.5 l 1
 309.22265625 448.376953125 310.208984375 443.02734375 330 421 c 0
 337.123046875 413.071289062 335.04296875 401 418 401 c 3
 484.639648438 401 488.609375 407.926757812 493 411 c 0
 510.629882812 423.33984375 520.818359375 431.626953125 526.5 457.5 c 1
 560.5 456.5 l 1
EndSplineSet
Refer: 1307 927 N 1 0 0 1 0 0 2
Position2: "cpsp-1" dx=0 dy=0 dh=50 dv=100
Substitution2: "c2pc-1" theta.pcap
Substitution2: "c2sc-1" theta.smcp
EndChar
StartChar: Xi
Encoding: 926 926 1347
Width: 644
Flags: HW
AnchorPoint: "Top" 332 699 basechar 0
AnchorPoint: "Bottom" 330 -15 basechar 0
LayerCount: 2
Fore
SplineSet
36 476 m 1
 41.6767578125 563.161955435 42.8955078125 624.510131235 41.1884765625 698 c 1
 59.8662979113 689.765313358 198.456992217 685.238989596 333.069573583 685.238989596 c 3
 460.009300831 685.238989596 583.411491613 689.264022472 599.385742188 698 c 1
 596.380859375 619.547241211 598.53125 539.52355957 608 477 c 1
 567 472 l 1
 568 490.818181818 555.769968076 529.061341846 511 541 c 0
 459.661336126 554.690310367 392.093261209 560.915227204 325.758891105 560.915227204 c 3
 246.062820963 560.915227204 156.686200948 553.123212399 120 536 c 0
 85.6804373894 519.981411407 75.8431783537 472.594285714 78 470 c 1
 36 476 l 1
616 224 m 1
 601.571289062 131.341959636 598.471679688 66.1246383102 602.811523438 -12 c 1
 583.865813418 -3.76531335831 443.288853306 0.761010403635 306.747072738 0.761010403635 c 3
 177.988109738 0.761010403635 52.8174296741 -3.26402247191 36.6142578125 -12 c 1
 39.619140625 73.5529553167 37.4697265625 160.817267923 28 229 c 1
 73 236 l 1
 74.5142857143 213.251449742 90.4229361062 156.81032072 126 146 c 0
 178.681911534 129.992260814 249.400056589 126.084772796 318.241108895 126.084772796 c 3
 400.261143841 126.084772796 504 131 530 149 c 0
 555.527710434 166.6730303 572 199 575 228 c 1
 616 224 l 1
520.5 477.5 m 1
 518.443359375 409.719907407 518.918945312 293.782407407 525.5 221.5 c 1
 488.5 219.5 l 1
 481.416735519 288.269018245 468.908897309 287.875480153 442 294 c 0
 429.300407287 296.890453174 372.291338583 306.5 328.5 306.5 c 3
 279.89084507 306.5 214.806546145 299.902000891 203 295 c 0
 171.884953764 282.081235909 165.017002342 226.380810405 165.5 221.5 c 1
 128.5 222.5 l 1
 134.977539062 309.974885845 135.790039062 390.748858447 128.5 478.5 c 1
 164.5 480.5 l 1
 171.12605042 456.076923077 174.930224705 425.638080384 206 417 c 0
 216.286465734 414.14013645 234.405797101 405.5 328.5 405.5 c 3
 416.308 405.5 434.928587522 413.194345315 440.5 415.5 c 0
 469.496948312 427.5 484.150793651 443 484.5 478.5 c 1
 520.5 477.5 l 1
EndSplineSet
Position2: "cpsp-1" dx=0 dy=0 dh=50 dv=100
Substitution2: "c2pc-1" xi.pcap
Substitution2: "c2sc-1" xi.smcp
EndChar
StartChar: Pi
Encoding: 928 928 1312
Width: 776
Flags: HW
AnchorPoint: "Top" 384 699 basechar 0
AnchorPoint: "Bottom" 388 -15 basechar 0
LayerCount: 2
Fore
SplineSet
257 86 m 0
 260.17578125 46.9319560397 311 40 326 38 c 1
 326 38 321.2 5.67567567568 320 -14 c 1
 259.506728322 -5.3984375 206.804343504 -0.5546875 156.612304688 -0.5546875 c 0
 114.692441212 -0.5546875 74.5764311293 -4.138671875 33 -12 c 1
 33 -12 25.8571428571 22.8571428571 23 49 c 1
 41 48 84.1232986002 58.2396724218 87 86 c 0
 98.0109761297 192.256528514 106.00219813 348.260947607 104.879882812 464.46875 c 0
 104.177203337 537.226232843 95.7361109569 593.718384632 88 608 c 0
 73.969204134 633.902217662 25 642 31 640 c 1
 34 692 l 1
 69.91796875 687.40625 102.870117188 683.858398438 136.5 682.159179688 c 1
 278.306640625 682.954101562 495.950195312 682.123046875 643.5 681.71484375 c 1
 673.54296875 682.963589557 705.204101562 686.290866658 744 692 c 1
 750 641 l 1
 728.487804878 637.492668622 703.198637167 629.064123449 701 595 c 0
 692.537587205 488.790302687 678.850778044 314.654665997 681.0546875 190.212890624 c 0
 682.0546875 132.632858478 691.145166034 93.7208345495 704 69 c 0
 717 44 735 34 749 33 c 1
 749 33 744.1 6.52941176471 747 -12 c 1
 704.919703881 -4.607421875 661.672076485 -0.3720703125 616.391601562 -0.3720703125 c 0
 573.845538199 -0.3720703125 529.335002017 -4.8564453125 482 -15 c 1
 482 -15 474.5 15.8857142857 472 32 c 1
 478 29 527.917378975 48.7394384648 532 86 c 0
 542.696042387 183.618795161 547.90490201 270.79505734 545.640625 362.826171876 c 0
 544.007744901 429.194277341 536.95142664 534.949905854 525 576 c 0
 517.078331665 603.208904906 499.325119538 628.336615621 430.5 631.53125 c 0
 410.999096175 632.436417448 384.062585131 634.371182693 362 634.8671875 c 0
 309.427251408 636.049113185 273.737284919 612.258602098 269 590 c 0
 253.251526308 516.004237542 248.360351562 351.415212331 248.360351562 216.88671875 c 0
 248.360351562 166.325777763 254.541312267 116.246453662 257 86 c 0
EndSplineSet
Position2: "cpsp-1" dx=0 dy=0 dh=50 dv=100
Substitution2: "c2pc-1" pi.pcap
Substitution2: "c2sc-1" pi.smcp
EndChar
StartChar: Sigma
Encoding: 931 931 1321
Width: 626
Flags: HW
AnchorPoint: "Top" 310 699 basechar 0
AnchorPoint: "Bottom" 307 -15 basechar 0
LayerCount: 2
Fore
SplineSet
18 1 m 1
 5 35 l 1
 47.2014742015 67.3209876543 65.3582533075 91.5003452985 81 112 c 0
 138.015855122 184.853592655 192.425620332 260.948253365 248.001953125 336.299804688 c 1
 192.604641295 416.256030771 126.514032793 506.34079425 73.9716796875 587.299804688 c 0
 53.6338768901 618.496088235 42.2129429004 638.599609376 21 649 c 1
 28 690 l 1
 100.521055818 686.355725838 186.588460485 684.969176485 267.955928091 684.969176485 c 0
 404.762775308 684.969176485 547.069515281 689.186523438 563 693 c 1
 574.145507812 683.248046875 578.133789062 677.741210938 578.133789062 669.086914062 c 0
 578.133789062 652.893554688 564.168945312 587.677734375 557 501 c 1
 521 497 l 1
 504 507 492.088245611 567.440604447 427 595 c 0
 363.933878658 622.166806843 253.675074127 635.081414183 254.205078125 635.076171875 c 0
 257.981327765 635.039458126 261.687381605 631.288005116 264.994140625 624.38671875 c 1
 302.939453125 564.791015624 349.355947266 489.31936275 393.205078125 427.599609375 c 0
 404.498190917 411.704011841 425.646484376 389.599609375 450.703125 377.299804688 c 1
 450.703125 342.299804688 l 1
 422.024309143 329.923828123 402.317608761 311.98623811 401.328125 310.599609375 c 0
 349.222529969 231.143672105 268.84375 131.89453125 216 56 c 1
 252.225870624 54 264.62745098 54 296 54 c 3
 318.360351562 54 368.186368881 68.0931844406 426 97 c 0
 495.802503507 131.901251754 528 167.957894737 573 204 c 1
 606 196 l 1
 590 125.695652174 579 66.0434782609 567 0 c 1
 418.446420524 -0.773710049693 287.995461185 2.4830933189 163.612260931 2.4830933189 c 0
 119.627247387 2.4830933189 72.4064380862 2.08995072445 18 1 c 1
EndSplineSet
Position2: "cpsp-1" dx=0 dy=0 dh=50 dv=100
Substitution2: "c2pc-1" sigma.pcap
Substitution2: "c2sc-1" sigma.smcp
EndChar
StartChar: Phi
Encoding: 934 934 1311
Width: 734
UnlinkRmOvrlpSave: 1
Flags: HW
LayerCount: 2
Fore
SplineSet
346 524 m 3
 261.168316832 524 193 484.44 193 398 c 3
 193 276.821428571 296.628514852 164 398 164 c 3
 486.11377748 164 538 228.736263736 538 301 c 3
 538 414.911780919 467.36553271 524 346 524 c 3
372 590 m 3
 549.530546624 590 693 478 693 342 c 3
 693 211 556.741935484 104 373 104 c 3
 189.472049689 104 41 210 41 342 c 3
 41 474 191.548286604 590 372 590 c 3
EndSplineSet
Refer: 1281 921 N 0.97 0 0 1 176 0 2
Position2: "cpsp-1" dx=0 dy=0 dh=50 dv=100
Substitution2: "c2pc-1" phi.pcap
Substitution2: "c2sc-1" phi.smcp
EndChar
StartChar: Psi
Encoding: 936 936 1313
Width: 724
Flags: HW
LayerCount: 2
Fore
SplineSet
234 695 m 1
 283 685.9 321.5 682 360.75 682 c 0
 400 682 440 685.75 492 692 c 1
 494 630 l 1
 480 626 452.964837375 628.965386305 447 593 c 0
 438.365957315 537.332374746 425.458007812 466.660257274 424 377 c 1
 550 458.855421687 459.635742188 693 631 693 c 3
 693.475585938 693 718.803710938 670.412109375 734 645 c 1
 537 477 585.616099071 365.040110759 424 325 c 1
 424 257.941176471 425.965673553 186.173131684 432 97 c 0
 436 37.8894215715 498 46 514 46 c 1
 513 -9 l 1
 461.492812273 -3.39030628718 404.264049355 -0.121256970764 349.006209155 -0.121256970764 c 0
 295.909427281 -0.121256970764 244.632422453 -3.13961017995 202 -10 c 1
 197 47 l 1
 243.641304348 47.2083333333 283.931122194 53.9064983156 288 100 c 0
 292.400229817 162.819819501 296 243.852459016 296 325 c 1
 136.383900929 367.040110759 185 477 -10 643 c 1
 5.1962890625 668.412109375 30.5244140625 691 93 691 c 3
 265.364257812 691 174 462.707317073 296 379 c 1
 295 460.755392699 292.722616989 530.309078712 283 589 c 0
 277.060409544 622.46424465 244 630 229 632 c 1
 234 695 l 1
EndSplineSet
Position2: "cpsp-1" dx=0 dy=0 dh=50 dv=100
Substitution2: "c2pc-1" psi.pcap
Substitution2: "c2sc-1" psi.smcp
EndChar
StartChar: Omega
Encoding: 937 937 1305
AltUni2: 002126.ffffffff.0
Width: 745
Flags: HW
AnchorPoint: "Top" 371 699 basechar 0
AnchorPoint: "Bottom" 367 -7 basechar 0
AnchorPoint: "Middle" 368.697 364.853 basechar 0
LayerCount: 2
Fore
SplineSet
322.000976562 0.7548828125 m 1
 222.34765625 0.5126953125 85.193359375 -2.896484375 72.6142578125 -10 c 1
 75.619140625 71.6473046875 73.46875 154.929765625 62 220 c 1
 118 227 l 1
 119 184.959309896 107.063476562 143.401646205 201 142 c 1
 238.626953125 138.30078125 239.75390625 142.38671875 240.76171875 141.21484375 c 1
 234.6953125 214.662109375 43 269.465564477 43 421 c 1
 43 573.154296875 193 706 373 706 c 1
 555.09375 706 702 577.790039062 702 421 c 1
 702 250.569104624 503.723632812 214.778320312 489.56640625 140.11328125 c 1
 502.336914062 142.771484375 521.887695312 143.8671875 560 144 c 0
 622.649414062 145.746247944 621 196.105263158 621 219 c 1
 679 215 l 1
 662.3828125 126.660056601 658.813476562 64.4828204719 663.811523438 -10 c 1
 649.915039062 -3.697265625 512.920898438 0.025390625 412.990234375 0.6552734375 c 1
 437 247 524 206.889607934 524 381 c 3
 524 513.882240295 422.386829304 632 299 632 c 3
 247.023691406 632 205 592.903725962 205 503 c 3
 205 284.551186601 288.001953125 295.15234375 322.000976562 0.7548828125 c 1
EndSplineSet
Position2: "cpsp-1" dx=0 dy=0 dh=50 dv=100
Substitution2: "c2pc-1" omega.pcap
Substitution2: "c2sc-1" omega.smcp
EndChar
StartChar: zeta
Encoding: 950 950 1242
Width: 419
UnlinkRmOvrlpSave: 1
Flags: HMW
LayerCount: 2
Fore
SplineSet
52 150 m 3
 52 452.091346154 251.591666667 786.951923077 536 789 c 1
 537 783.285714286 537 776.142857143 537 769 c 0
 537 720.684210526 514.411764706 670.578947368 473 633 c 1
 448.131498471 611.736842105 425.333333333 612 395 612 c 3
 316.098765432 612 229 660.035087719 229 760 c 3
 229 797 246.336734694 828 316 828 c 1
 316 826 317 822 317 817 c 0
 317 789.915254237 313.4 743.711864407 311 723 c 1
 302.692307692 723 299 720.3 299 717 c 3
 299 707.765211662 309 698.714285714 335 701 c 1
 342 634 l 1
 243 631 88 311.991706023 88 204 c 3
 88 124.741176471 141.4375 132 178 132 c 3
 207.6 132 222.4 140 252 140 c 3
 358.829268293 140 398 73.9375 398 -11 c 3
 398 -94.4545454545 336.852713178 -164 262 -164 c 3
 224 -164 195 -147 177 -135 c 1
 183.7 -100.757575758 222.225 -25.4242424242 244 -22 c 1
 262.6 -37.3852631579 310.923190379 -94 337 -94 c 3
 342.891666667 -94 344 -89.8823529412 344 -84 c 3
 344 -37.8189515564 310.096273767 3 249 3 c 3
 225.602272727 3 206.238636364 -4 178 -4 c 3
 81 -4 52 68.5362318841 52 150 c 3
EndSplineSet
Substitution2: "pcap-1" z.pcap
Substitution2: "smcp-1" z.smcp
EndChar
StartChar: kappa
Encoding: 954 954 315
Width: 490
UnlinkRmOvrlpSave: 1
Flags: HMW
LayerCount: 2
Fore
SplineSet
255 247 m 1
 240.5546875 213.65234375 333.993421337 135 410 135 c 3
 419.702089542 135 445.332351748 137.577965922 446 138 c 1
 451.76953125 135 455.23046875 133 461 130 c 1
 455.671052632 53.6862745098 441.842799137 -9 380 -9 c 3
 308.075463725 -9 294.142178363 118.714953271 226 198 c 1
 255 247 l 1
14 350 m 1
 46.88 382.093023256 92.09 410 151 410 c 3
 188.799760299 410 205 392.077148438 205 366 c 3
 205 274.301856994 187.076923077 223.40625 184 132 c 1
 172.80078125 136 178.19921875 131 167 135 c 1
 166.099878444 228.394039735 264.704268391 334.119205298 376 416 c 1
 408.483203125 407.161182468 422.160574778 341.75 429 317 c 1
 315.048828124 316.98046875 186 171.5485889 186 103 c 0
 186 57.5196814904 186 40.3920241136 186 0 c 1
 131.977648925 -0.34375 66.0748291016 0.20703125 49 5 c 1
 62.884883322 151.325308855 67.4136833211 158.487187027 67.4136833211 280.990881958 c 3
 67.4136833211 306.947493009 64.9105057062 331 47 331 c 3
 39.4237708913 331 34.2222222222 328 27 325 c 1
 14 350 l 1
EndSplineSet
Substitution2: "pcap-1" k.pcap
Substitution2: "smcp-1" k.smcp
EndChar
StartChar: nu
Encoding: 957 957 356
Width: 480
Flags: HMW
LayerCount: 2
Fore
SplineSet
110 -12 m 1
 110 -10.2772277228 96.4765625 -44.9544799619 117 104 c 1
 129 200.284620349 108.6 314 75 314 c 1
 61.243902439 314 55.9268292683 309.5 48 306 c 1
 29 313 l 1
 29 395 73 419 102 419 c 1
 140.127272727 419 250 378.505617978 250 207 c 1
 250 155.015789474 245.875 91.7578947368 248 88 c 1
 220 63 344 91.0526315789 344 225 c 3
 344 302.032967033 317 291 281 293 c 1
 278 299.363932292 275 310.272135417 275 323 c 3
 275 366.046559979 336.25 431 352 431 c 3
 369 431 430 391.471679688 430 295 c 3
 430 184 352.42563965 106.359590231 285 62 c 0
 209 12 130 -19 118 -19 c 1
 110 -12 l 1
EndSplineSet
Substitution2: "pcap-1" n.pcap
Substitution2: "smcp-1" n.smcp
EndChar
StartChar: omicron
Encoding: 959 959 369
Width: 510
Flags: HMW
AnchorPoint: "Top" 294 465 basechar 0
AnchorPoint: "Bottom" 250 -15 basechar 0
LayerCount: 2
Fore
SplineSet
244 55 m 3
 285.956647466 55 329 96.2119813577 329 244 c 3
 329 321.614964815 304.593726158 364 274 364 c 3
 258.470588235 364 186 357.761157578 186 155 c 3
 186 74.1050779286 217.859753253 55 244 55 c 3
52 197 m 3
 52 302.687203791 120 420 253 420 c 3
 389 420 458 308.256637168 458 213 c 3
 458 67.612745098 356 -10 254 -10 c 3
 129 -10 52 105.315068493 52 197 c 3
EndSplineSet
Substitution2: "pcap-1" o.pcap
Substitution2: "smcp-1" o.smcp
EndChar
StartChar: sigma
Encoding: 963 963 459
Width: 479
Flags: HMW
LayerCount: 2
Fore
SplineSet
445 410 m 1
 448.25 387.333333333 450 363.047619048 450 342 c 3
 450 323.3125 445.5 306.0625 435 296 c 1
 401 298 380.165174332 300.498587211 346 302 c 1
 183 309 156 213.159598372 156 105 c 3
 156 59 163.092327853 40 193 40 c 3
 240 40 252 111.81300813 252 161 c 3
 252 195.645538216 255 215.546839387 240 245 c 1
 261 266 l 1
 316.771972656 262.981328616 378 227.410868711 378 130 c 3
 378 40.7919463087 312.786666667 -8 232 -8 c 3
 119 -8 52 83.2376237624 52 182 c 3
 52 294.36 115.750302003 370.48035058 197 394 c 0
 235 405 325 410 445 410 c 1
EndSplineSet
Substitution2: "pcap-1" sigma.pcap
Substitution2: "smcp-1" sigma.smcp
EndChar
StartChar: tau
Encoding: 964 964 478
Width: 482
UnlinkRmOvrlpSave: 1
Flags: HMW
LayerCount: 2
Fore
SplineSet
300 305 m 1
 306 231.826086957 290 160.047592083 290 118 c 3
 290 116.963648377 293.535698784 95 310 95 c 3
 327.023814418 95 338 96 356 105 c 1
 364 99 369 96 377 90 c 1
 366.5 49 317.999023438 -9 251 -9 c 3
 201.48828125 -9 176 32.501953125 176 114 c 3
 176 189.863465665 197.772727273 245.845493562 206 306 c 1
 300 305 l 1
69 244 m 1
 48 257 34 281.588867188 34 311 c 3
 34 381.077148438 107.978515625 406 313 406 c 3
 336.03125 406 350.23046875 405 374 405 c 3
 387.794452712 405 416 414 430 441 c 1
 437.63671875 443 443.36328125 443 451 445 c 1
 461.5234375 422.538461538 468 402.044227014 468 372 c 3
 468 297.138208422 397.066666667 287 202 287 c 3
 167.774443459 287 148.459517046 289 114 289 c 3
 99.2714320484 289 92 288.053417969 92 283 c 3
 92 274.929771205 102.888888889 268.342857143 100 264 c 1
 69 244 l 1
EndSplineSet
Substitution2: "pcap-1" t.pcap
Substitution2: "smcp-1" t.smcp
EndChar
StartChar: upsilon
Encoding: 965 965 1209
Width: 506
Flags: HMW
AnchorPoint: "Top" 259 465 basechar 0
AnchorPoint: "Bottom" 241 -15 basechar 0
LayerCount: 2
Fore
SplineSet
208 333 m 3
 208 282.274193548 190 212.650537634 190 148 c 3
 190 92.11 240.226804124 79 274 79 c 3
 370 79 410 156.446327684 410 228 c 3
 410 375.974363187 286 290 260 286 c 1
 257 290.714285714 254 295.428571429 254 308 c 3
 254 346.898550725 306.702702703 415.855072464 319 430 c 1
 400 430 454 314 454 220 c 3
 454 109 377 -9 243 -9 c 3
 148.219354839 -9 66 44.6751592357 66 150 c 3
 66 202.142045455 80 292.667179571 80 311 c 3
 80 318.363636364 72 326 60 326 c 3
 52.3181818182 326 50 317 47 310 c 1
 20 324 l 1
 23.15625 332.170212766 47.3541666667 420 121 420 c 3
 143.957746479 420 208 408.741176471 208 333 c 3
EndSplineSet
Substitution2: "pcap-1" upsilon.pcap
Substitution2: "smcp-1" upsilon.smcp
EndChar
StartChar: psi
Encoding: 968 968 419
Width: 598
UnlinkRmOvrlpSave: 1
Flags: HMW
LayerCount: 2
Fore
SplineSet
223 629 m 1
 236 643 262 653 282 653 c 3
 343 653 350 596 350 488 c 3
 350 108.21919585 331.153846154 -57.411154345 294 -285 c 1
 228 -271 l 1
 271.968253968 11.2241134752 280 226.557446809 280 375 c 3
 280 492.410071942 281.958333333 511 275 511 c 3
 273.5 511 268.5 510 265 510 c 3
 233.5 510 227.5 591.13671875 223 629 c 1
15 368 m 1
 32.8260869565 391 62.5362318841 415 97 415 c 3
 142.593220339 415 169 380.46875 169 350 c 3
 169 332.035702904 166 270.657342657 166 228 c 3
 166 165.180089614 189.736263736 111 310 111 c 3
 462.405529954 111 488 232.90234375 522 395 c 1
 558 393 l 1
 557 205 500 -25 311 -25 c 3
 167 -25 68 48 68 188 c 3
 68 241.493333333 87 285.013333333 87 324 c 3
 87 332.888888889 77 340 65 340 c 3
 49.4444444444 340 41.6666666667 338.571428571 30 337 c 1
 15 368 l 1
EndSplineSet
Substitution2: "pcap-1" psi.pcap
Substitution2: "smcp-1" psi.smcp
EndChar
StartChar: omega
Encoding: 969 969 366
Width: 697
UnlinkRmOvrlpSave: 1
Flags: HMW
AnchorPoint: "Top" 363.485 465 basechar 0
AnchorPoint: "Bottom" 334.485 -15 basechar 0
LayerCount: 2
Fore
SplineSet
445 414 m 3
 535.858071212 414 642 324.881835938 642 222 c 3
 642 79.1435546875 562.851539727 -5 408 -5 c 3
 308.367852695 -5 262 86.5101711919 262 182 c 3
 262 195.236328125 269.466796876 202.483072917 277 214 c 1
 323.778971353 244 350.221028647 244 397 244 c 1
 410 227.794569672 418 210.71772541 418 188 c 3
 418 71.4397577624 356.994437641 -5 261 -5 c 3
 117.912614113 -5 53 54.4814453125 53 195 c 3
 53 305.951171875 145.696200284 414 246 414 c 3
 286.81640625 414 324 394 331 351 c 1
 321.60031654 335.700577446 274.163490032 322.100288722 237 317 c 1
 235.5 323.763671875 249.091064453 368 244 368 c 3
 211.551540799 368 184 268.143118351 184 187 c 3
 184 123.132717994 212.484625622 52 277 52 c 3
 299.994384766 52 310.947368421 74.4 322 80 c 1
 327.283952889 80 333.231359711 80 340 80 c 1
 345.6 68 360.45849187 62 382 62 c 3
 490.018516931 62 526 145.581279343 526 282 c 3
 526 318.466956967 514.567118566 358 503 358 c 3
 483.823396382 358 481.947368421 314.467886991 475 317 c 1
 450.664739794 316.528515625 383.32875504 324.68486328 374 351 c 1
 375.059570312 395.400390625 415.534179688 414 445 414 c 3
EndSplineSet
Substitution2: "pcap-1" omega.pcap
Substitution2: "smcp-1" omega.smcp
EndChar
StartChar: uni03D8
Encoding: 984 984 702
Width: 845
Flags: HW
HStem: -10 21G<212.5 258.5> 123.495 47.5049<301.566 331.679 415.642 483.111> 663 49<253.281 435.027>
VStem: 43 93<347.932 514.837> 329 86.6416<41.0295 125.066> 601 101<309.167 496.407>
AnchorPoint: "Top" 426 699 basechar 0
AnchorPoint: "Bottom" 422 -151 basechar 0
AnchorPoint: "Middle" 423.697 364.853 basechar 0
LayerCount: 2
Fore
SplineSet
493.641601562 2.1220703125 m 1
 494.579101562 -26.865114268 495.998823298 -56.5402262365 497 -87 c 0
 498.407407407 -126 535 -121 573 -123 c 1
 572 -162 l 1
 471 -151 348 -149 261 -163 c 1
 256 -123 l 1
 299.865546218 -123 341.451024997 -125.995110316 343 -76 c 0
 344.002929688 -51.3935093989 344.896484375 -25.0971258075 345.678710938 2.4951171875 c 1
 493.641601562 2.1220703125 l 1
EndSplineSet
Refer: 1303 79 N 1 0 0 1 0 0 2
Position2: "cpsp-1" dx=0 dy=0 dh=50 dv=100
EndChar
StartChar: uni03F2
Encoding: 1010 1010 714
Width: 416
Flags: HW
HStem: -8 81<150.495 334.191> 329 88<215.451 335.781>
VStem: 52 45<127.138 264.605>
LayerCount: 2
Fore
SplineSet
350 417 m 1
 351.319335938 391.137695312 342.8515625 339.435546875 331 329 c 1
 156.974609375 329 97 281.536132812 97 192 c 3
 97 143.629882812 134.047851562 73 229 73 c 3
 284.465820312 73 323.986328125 84.9990234375 366 100 c 1
 370 74.9287109375 373 60.0712890625 377 35 c 1
 331.703125 9.2001953125 285.830078125 -8 218 -8 c 3
 118.83984375 -8 52 78.5556640625 52 171 c 3
 52 310.8671875 155.321289062 417 350 417 c 1
EndSplineSet
EndChar
StartChar: afii10058
Encoding: 1033 1033 45
Width: 934
Flags: HW
HStem: -9 77<18.4065 124.695> -4 38<341 416.25 516.863 721.918> 349 30<507 696.244> 643 40.5293<299.711 419.933> 674 20G<219.758 233.56 560.863 588.93>
VStem: 421 92<379.105 642.27> 422 86<43.6313 349> 789 90<96.7035 268.078>
AnchorPoint: "Top" 446 699 basechar 0
LayerCount: 2
Fore
SplineSet
660 349 m 0x63
 543 349 l 1
 544 251 544.405273438 155.012695312 546 96 c 0
 547 59 551.606445312 44.9228515625 578 41 c 0
 591.45703125 39 652.012695312 34 687 34 c 3
 766.505859375 34 827 83 827 178 c 3
 827 262 778.810546875 349 660 349 c 0x63
258 694 m 1xad
 285.119140625 688.213867188 311.065429688 685.4296875 337 685 c 0
 394.291992188 684 457.987304688 683.529296875 481.505859375 683.529296875 c 3
 524.064453125 683.529296875 571.725585938 686.141601562 626 692 c 1
 628 649 l 1
 583.33984375 647 552.999023438 651.977539062 551 616 c 0x35
 545.870117188 523.665039062 545 379 545 379 c 1
 616.017578125 379 678.251953125 379.70703125 737 371.883789062 c 0
 852.134765625 356.551757812 917 273.93359375 917 181 c 3
 917 70 823.59765625 -4 678 -4 c 3
 615.724609375 -4 556.974609375 2 490 2 c 3
 431 2 386 -2 379 -2 c 1
 376 34 l 1
 423 36 460 35.9462890625 460 73 c 0x73
 460 78 463 176 463 292 c 3
 463 462.579101562 461.669921875 530.948242188 459 616 c 0
 458.435546875 633.98046875 443 643 432 643 c 3x75
 399.314453125 643 372.6640625 643.643554688 336 637 c 0
 320.86328125 633.102539062 301.204101562 618.301757812 297.963867188 592 c 0
 291.586914062 509.276367188 278.427734375 348.217773438 267 230 c 0
 259.52734375 152.69140625 240.94921875 80.6435546875 201 43 c 0
 168.762695312 12.623046875 137.948242188 -9 89 -9 c 3
 65.9716796875 -9 29.990234375 2 12 24 c 1
 13.224609375 55.640625 12 55.640625 72 99 c 1
 100.166992188 85.7138671875 117.030273438 68 150 68 c 3
 197.661132812 68 217.456054688 157.420898438 224.265625 224.524414062 c 0
 244.194335938 415.637695312 257.515625 635.2421875 258 694 c 1xad
EndSplineSet
Position2: "cpsp-1" dx=0 dy=0 dh=50 dv=100
EndChar
StartChar: afii10101
Encoding: 1108 1108 82
Width: 427
UnlinkRmOvrlpSave: 1
Flags: HW
HStem: -15 52<187 335> 184.496 27.5508<79 270.612> 357 60<171 310>
VStem: 36 71<119 282>
LayerCount: 2
Fore
SplineSet
79 212.046875 m 1
 155.0390625 213.502929688 275.255859375 219.407226562 320 232 c 1
 323 182 l 1
 299.78125 184.811523438 262.50390625 187.745117188 221 187.745117188 c 3
 174.024414062 187.745117188 121.59765625 187.533203125 79 184.49609375 c 1
 79 212.046875 l 1
EndSplineSet
Refer: 177 99 N 1 0 0 1 0 0 2
EndChar
StartChar: afii57645
Encoding: 1470 1470 93
Width: 477
Flags: HW
LayerCount: 2
Fore
SplineSet
70.5494140625 406.35625 m 1
 63.51953125 417.209765625 l 1
 99.6 586.7 l 1
 128.999414062 576.619921875 l 1
 209.455199856 572.300585938 381.946813355 576.549609375 418.190039062 570.980273438 c 1
 433.893554688 548.999609375 l 1
 403.14921875 401.368945312 l 1
 317.406691468 403.497851562 154.340063439 401.959765625 70.5494140625 406.35625 c 1
EndSplineSet
EndChar
StartChar: uni05C4
Encoding: 1476 1476 761
Width: 0
Flags: HW
AnchorPoint: "HbTop" 279 628 mark 0
LayerCount: 2
Fore
SplineSet
233.483740234 801.169970704 m 1
 277.266015626 797.435498047 321.929345703 781.066943359 351.902832032 773.246289062 c 1
 340.144824219 719.843554687 332.524560547 686.458056641 321.458593749 651.094677734 c 1
 286.754980469 655.671972655 246.88774414 666.51772461 208.171386718 677.930957031 c 1
 214.49140625 719.787988281 220.040527344 759.830371093 233.483740234 801.169970704 c 1
EndSplineSet
EndChar
StartChar: afii57664
Encoding: 1488 1488 95
Width: 466
Flags: HW
AnchorPoint: "HbTopLeft" 92.68 619.44 basechar 0
AnchorPoint: "TopRight" 460.52 574.2 basechar 0
AnchorPoint: "HbBottom" 254 0 basechar 0
AnchorPoint: "HbTop" 258.68 619.44 basechar 0
LayerCount: 2
Fore
SplineSet
54.1085449219 178.417333984 m 1
 84.3783203125 209.340625 145.160498047 220.31171875 160.420605469 223.663818359 c 1
 131.822363281 195.072363281 l 1
 135.279345703 202.649023438 123.121289063 204.495898438 123.121289063 219.791015625 c 3
 123.121289063 279.699898848 128.738683548 347.243326745 175.662060547 366.886181641 c 1
 190.05 363.1 l 1
 176.009922188 350.214778975 168.641748047 326.585992929 168.641748047 300.750927734 c 3
 168.641748047 272.979736328 181.775900896 243.436035156 208.970605469 217.239697266 c 1
 213.119335938 153.738134766 164.859147084 72.0870415187 136.162060546 0 c 1
 69.8896972656 0 l 1
 43.4585449219 -10.9155761719 l 1
 29 -2.496484375 l 1
 54.1085449219 178.417333984 l 1
385.615576172 570.625878906 m 1
 403.238481671 567.133261156 436.164914847 557.965646166 449.613818359 547.487939453 c 1
 446.991335996 483.469991215 439.24369842 395.38609407 413.565576172 380.501757812 c 1
 374.752786787 381.949485153 336.505945674 308.431454745 340.622363281 247.337939453 c 1
 317.389697266 270.244726562 l 1
 323.885189199 353.157777327 318.147399436 377.999289603 328.651757813 417.201757812 c 1
 328.651757813 417.201757812 328.651757813 417.201757812 343.627636719 412.210302734 c 1
 343.278417969 404.430175781 336.832080078 395.630175781 335.512158203 395.630175781 c 1
 323.053613281 398.578238651 278.695947265 423.126443917 268.284423828 451.836181641 c 1
 270.726123047 456.654052735 319.571728515 621.499316406 320.275878906 613.665576172 c 1
 338.424121094 608.975878906 l 1
 385.615576172 570.625878906 l 1
85.603515625 605.087939453 m 1
 89.6359399969 603.141455078 101.367404139 600.244726562 105.4 598.848242187 c 1
 100.46459961 582.786376953 100.645947266 575.621484375 100.645947266 561.319824219 c 3
 100.645947266 514.185546209 239.601579864 403.997657835 341.664355469 298.105273437 c 0
 400.654359336 236.754989905 440.23203125 182.646623757 440.23203125 80.7935546875 c 1
 440.23203125 36.7158691406 426.316308594 12.5679199219 410.684423829 -14.9758789062 c 1
 409.208585264 -12.6995117188 394.901728774 -10.42109375 393.425878906 -8.1447265625 c 1
 394.818896484 15.9131546411 400.281168837 46.0584358381 372.164501953 70.1620605469 c 1
 239.039378838 205.053596627 189.035574454 244.341621413 108.093652344 360.777636719 c 0
 81.9188964844 395.313720703 55.8458984375 435.158105469 55.8458984375 498.437939453 c 3
 55.8458984375 539.032470703 64.0924791491 564.168555545 85.603515625 605.087939453 c 1
EndSplineSet
EndChar
StartChar: afii57666
Encoding: 1490 1490 97
Width: 340
Flags: HW
AnchorPoint: "HbTop" 192 619.44 basechar 0
AnchorPoint: "HbBottom" 184 0 basechar 0
AnchorPoint: "HbTopLeft" 106.68 619.44 basechar 0
AnchorPoint: "HbMiddle" 140 294 basechar 0
LayerCount: 2
Fore
SplineSet
19.8400390625 -11.599609375 m 5
 49.0741210938 172.484423829 l 5
 115.021761872 184.220802534 175.184423829 221.931615842 251.31796875 242.787939453 c 5
 250.848242188 190.287939453 l 5
 180.767853493 72.2904084932 114.003282399 24.7446324048 32.0802734375 -20.4796875 c 5
 19.8400390625 -11.599609375 l 5
103.240234375 609.140429688 m 5
 108.579846522 606.636758131 113.919958166 604.133086574 119.259570312 601.63046875 c 5
 124.686004091 594.863668123 132.241288681 583.565924247 138.249804688 582.459765625 c 4
 193.365417776 570.745894708 247.930255048 556.327876055 280.570117188 516.73046875 c 5
 284.709082032 540.007177734 258.919921875 369.637109375 258.919921875 389.129882812 c 5
 258.919921875 305.403543394 287.505771678 230.647866278 326.812060546 163.865576171 c 5
 285.329882812 -15.850390625 l 5
 279.310351562 -12.759765625 l 5
 246.741796875 67.6935058594 223.158544921 154.18076172 223.158544921 253.741455079 c 5
 223.158544921 295.045404191 220.074999999 337.888059576 220.609716797 381.970556641 c 5
 158.442480469 380.429894289 105.542506719 386.448898022 75.2786621094 428.792041015 c 5
 62.7155761723 473.362082294 81.0350086415 541.830607669 103.240234375 609.140429688 c 5
EndSplineSet
EndChar
StartChar: afii57668
Encoding: 1492 1492 99
Width: 498
Flags: HW
HStem: 339.039 231.481<132.221 374.85>
VStem: 328.48 19<-9.45862 -6.61001>
AnchorPoint: "HbTop" 249 619.44 basechar 0
AnchorPoint: "HbMiddle" 264 292 basechar 0
AnchorPoint: "HbBottom" 248 0 basechar 0
AnchorPoint: "HbTopLeft" 85.68 619.44 basechar 0
LayerCount: 2
Fore
SplineSet
168.280273438 331.200195312 m 1
 186.759765625 320.16015625 l 1
 172 295.200195312 l 1
 173.168120841 268.955710879 178.514056041 182.147685271 181.120117188 127.639648438 c 1
 72.3203125 -20.8798828125 l 1
 53.3203125 -9.1201171875 l 1
 59.3203125 179.279296875 l 1
 168.280273438 331.200195312 l 1
240.877929688 604.520507812 m 3
 310.837138674 604.520507812 401.95075456 596.295898438 425.040039062 591.959960938 c 1
 432.479569635 538.599609375 439.920666095 485.240234375 443.639648438 433.040039062 c 1
 455.155402629 339.443965382 459.759765625 252.53420997 459.759765625 176.3203125 c 0
 459.759765625 161.901414951 459.820337994 148.330792851 459.880859376 136.880859375 c 1
 421.744922034 83.9910049718 383.608984692 29.0666619329 347.48046875 -17.7197265625 c 1
 328.48046875 -4.6396484375 l 1
 355.683244106 136.48228767 389.008891269 266.326761138 378.919921875 362.599609375 c 1
 292.190499557 370.719726562 199.157478684 373.0390625 151.51953125 373.0390625 c 3
 135.29854667 373.0390625 58.2201114344 383.014770178 49.4794921875 411.959960938 c 1
 108.360351562 640.040039062 l 1
 123.200195312 634.240234375 l 1
 159.313979114 601.237875602 147.563493368 604.520507812 240.877929688 604.520507812 c 3
EndSplineSet
EndChar
StartChar: afii57670
Encoding: 1494 1494 101
Width: 310
Flags: HW
AnchorPoint: "HbTop" 166 620.6 basechar 0
AnchorPoint: "HbBottom" 150 0 basechar 0
AnchorPoint: "HbTopLeft" 72.68 619.44 basechar 0
LayerCount: 2
Fore
SplineSet
130.759765625 594.060351562 m 5
 171.810854353 584.780078125 248.511764229 560.419726562 279.83984375 532.579882812 c 5
 264.153403993 474.996327102 250.034551708 417.412771388 239.053515625 361.427636719 c 5
 164.850000001 371.580608112 159.287939454 362.021650351 154.559570312 352.869726562 c 5
 141.875000002 297.739479766 215.366308594 171.03600527 215.787939453 103.332666016 c 5
 191.789203918 63.630418455 164.788678781 22.4007272879 145.290429688 -12.7197265625 c 5
 129.449609375 -4.6396484375 l 5
 119.659624373 136.948715435 91.1397827169 342.589651253 113.701757813 381.920605469 c 5
 121.497998047 388.858302946 144.772431402 419.043899509 152.469824219 432.931982422 c 5
 159.209684411 427.437609673 166.200735987 402.103057118 163.030078125 404.370117188 c 5
 157.948474825 404.815136791 107.235378536 410.291166465 105.300390625 412.53984375 c 5
 81.5888644498 418.422805839 20.4620637551 421.377445143 32.2203125 462.359570312 c 5
 75.9599609375 628.86015625 l 5
 97.1201171878 623.060351562 l 5
 130.759765625 594.060351562 l 5
EndSplineSet
EndChar
StartChar: afii57671
Encoding: 1495 1495 102
Width: 493
Flags: HW
HStem: 352 218.521<148.243 388.581>
VStem: 53.3604 67.5342<178.598 349.087> 54.5195 106.561<97.8162 188.09> 389 53.2793<203.67 348.16>
AnchorPoint: "HbTop" 246 619.44 basechar 0
AnchorPoint: "HbMiddle" 251 304 basechar 0
AnchorPoint: "HbBottom" 247 0 basechar 0
AnchorPoint: "HbTopLeft" 92.68 619.44 basechar 0
LayerCount: 2
Fore
SplineSet
129.365234375 384.0390625 m 1xd0
 124.173828125 363.592773438 120.914062961 351.584555721 120.89453125 341.9375 c 1xd0
 120.616714558 263.255155114 147.598680107 174.518914198 161.080078124 108.279296875 c 1
 73.51953125 -22.599609375 l 1
 54.51953125 -8.6806640625 l 1xb0
 53.3603515625 482.000976562 l 1
 147.200195312 623.000976562 l 1
 169.87857691 604.51280024 164.168666014 604.520507812 189.506835938 604.520507812 c 3
 287.614524252 604.520507812 413.951727878 596.295898438 446.840820312 591.959960938 c 1
 443.359375 475.048711338 435.080734994 373.704731085 439.879882812 267.560546874 c 0
 441.394179383 237.475435139 442.000000001 209.266681241 442.000000001 182.680664063 c 0
 442.000000001 163.594216451 442.139648438 143.461919424 442.279296876 125.880859375 c 1
 413.643410444 76.8500590377 381.427473177 25.9332144444 358.160156251 -17.439453125 c 1
 336.919921876 -3.279296875 l 1
 338 134.12014205 386 256.955578897 389 382.16015625 c 1
 257.083585263 384.71031669 165.358130138 386 156 386 c 1
 148.141915371 386 140.245033475 386 129.365234375 384.0390625 c 1xd0
EndSplineSet
EndChar
StartChar: afii57672
Encoding: 1496 1496 103
Width: 519
Flags: HW
HStem: -12.7598 21G<41.7598 96.96> 1.16016 212.959<156.539 293.895> 380 194.2<309.422 398.111> 402 20G<89 98.8>
VStem: 48 48<244.09 331.653> 400 79.5596<237.887 465.447>
AnchorPoint: "HbTop" 235 619.44 basechar 0
AnchorPoint: "HbMiddle" 245 304 basechar 0
AnchorPoint: "HbBottom" 218 0 basechar 0
AnchorPoint: "HbTopLeft" 59.68 619.44 basechar 0
LayerCount: 2
Fore
SplineSet
324.0390625 214.119140624 m 0x4c
 354.283240964 215.046167365 364.021628382 214.724261721 384 223 c 0
 397.720703125 228.68359375 400 232.7734375 400 243 c 3
 400 347.64437443 360.516601562 414 319 414 c 3
 299.84375 414 259 385 252.120117188 383.51953125 c 1
 233.639648438 395.919921875 l 1
 298.555358381 596.725585938 345.19489906 608.200195312 386.799804688 608.200195312 c 3
 409.421768008 608.200195312 479.559570312 559.915183825 479.559570312 421.360351562 c 3
 479.559570312 268.596770095 401.248346238 125.510662811 329.3203125 52.2001953125 c 0
 299.772861936 23.6348340039 267.744428292 1.16015625 238.879882812 1.16015625 c 0x6c
 96.9599609375 0 l 1
 69.1201171875 -12.759765625 l 1x8c
 41.759765625 -1.16015625 l 1
 58.720703125 161.16015625 l 1
 106.946289062 224.859375 143.050305476 208.571579867 324.0390625 214.119140624 c 0x4c
158.080078125 597.720703125 m 1x1c
 176.297939219 590.499289512 211.540885576 573.914066341 224.240234375 549.879882812 c 0
 233.614776836 532.138069624 179.37738274 362.412520066 171.80078125 355.80078125 c 0
 165.405273437 350.219726563 162.447265625 353 154 353 c 3
 133 353 96 385.073972741 96 358 c 3
 96 292.731313484 133.50390625 250.458895588 155.51953125 126.880859375 c 1
 122.423754334 93.215087137 95.1678566861 65.7696332307 64.9609375 33.640625 c 1
 52.859375 205.39499246 48 276.239882564 48 383 c 3
 48 431 62.9997350348 446.000423969 71 451 c 0
 79.2822265625 456.17578125 88 455 90 456 c 1
 112 406 l 1
 70 403 l 1
 35 409 10.51953125 416.873572848 10.51953125 423.119140625 c 3
 10.51953125 453.329303084 51.3214389823 566.036317502 68.240234375 644.16015625 c 1
 106.400390625 636.360351562 l 1
 158.080078125 597.720703125 l 1x1c
EndSplineSet
EndChar
StartChar: afii57674
Encoding: 1498 1498 105
Width: 485
Flags: HW
HStem: 340.52 230.001<106.917 367.97>
VStem: 320.36 16.8398<-237.284 -228.271> 372.24 57.6396<110.298 262.097>
AnchorPoint: "HbTop" 223 619.44 basechar 0
AnchorPoint: "HbMiddle" 228 293 basechar 0
AnchorPoint: "HbBottom" 225 0 basechar 0
AnchorPoint: "HbTopLeft" 64.68 619.44 basechar 0
LayerCount: 2
Fore
SplineSet
213.182617188 604.520507812 m 3
 286.136220637 604.520507812 381.330613531 596.295898438 405.3203125 591.959960938 c 1
 409.959960938 538.599609375 413.440429688 485.240234375 415.759765625 433.040039062 c 1
 425.845078429 290.836240264 429.879882812 156.250463938 429.879882812 39.4404296875 c 0
 429.879882812 -1.83704899902 428.719726562 -39.6743034232 427.559570312 -71.3203125 c 1
 396.130581992 -131.236314303 362.736971828 -191.152316104 337.200195312 -243.080078125 c 1
 320.360351562 -233.16015625 l 1
 347.946940105 -7.60667296448 364.650908525 190.389787113 372.240234375 364.080078125 c 1
 281.261362782 372.200195312 182.715148161 374.51953125 132.879882812 374.51953125 c 3
 119.686941803 374.51953125 26.4804687502 383.339131398 22.6796875 412.440429688 c 1
 85.3203125 636.040039062 l 1
 102.48046875 630.240234375 l 1
 136.075195312 601.278320313 123.674804688 604.520507812 213.182617188 604.520507812 c 3
EndSplineSet
EndChar
StartChar: afii57675
Encoding: 1499 1499 106
Width: 436
Flags: HW
HStem: -2.32031 223.121<105.914 295.839>
VStem: 359.721 69.1191<220.766 265.85>
AnchorPoint: "HbTop" 230 619.44 basechar 0
AnchorPoint: "HbMiddle" 218 301 basechar 0
AnchorPoint: "HbBottom" 206 0 basechar 0
AnchorPoint: "HbTopLeft" 121.68 619.44 basechar 0
LayerCount: 2
Fore
SplineSet
329.080078125 579.200195312 m 0
 340.66015625 572.810546875 373.208618261 507.715288933 390.559570312 458.559570312 c 0
 399.567382812 427.881489166 428.83984375 337.059952669 428.83984375 256.360351562 c 3
 428.83984375 166.995117188 304.264698816 -2.3203125 254.559570312 -2.3203125 c 3
 208.098891254 -2.3203125 105.83984375 -5.7998046875 105.83984375 -5.7998046875 c 1
 53.6396484375 -30.16015625 l 1
 38.2802734375 -22.0400390625 l 1
 66.83984375 186.599609375 l 1
 93.9828419504 220.982114954 214.276778908 220.80078125 358.279296876 220.80078125 c 3
 406.77734375 220.80078125 359.720703124 172.861015776 359.720703124 196.400390624 c 3
 359.720703124 207.762050622 348.702292202 243.700465114 347.259765624 247.19921875 c 0
 332.267578126 298.788817724 309.336991176 341.162479905 283.360351562 365.120117188 c 0
 264.892392963 376.537109376 194.574665234 373.921887456 170.119140625 375.359375 c 0
 107.13836844 379.056629541 50.5802925212 388.434793815 47.560546875 398.48046875 c 1
 114.83984375 630.240234375 l 1
 142.16015625 634.879882812 l 1
 174.639648438 609.360351562 l 1
 218.220239251 610.737304688 307.815233179 595.020776583 329.080078125 579.200195312 c 0
EndSplineSet
EndChar
StartChar: afii57678
Encoding: 1502 1502 109
Width: 571
Flags: HW
HStem: 0 213.439<262.4 447.17> 361.387 215.133<248.887 349.658>
VStem: 101 81.3994<200.497 304.508> 449 78.1201<215.967 288.987>
AnchorPoint: "HbTop" 303 619.44 basechar 0
AnchorPoint: "HbMiddle" 310 304 basechar 0
AnchorPoint: "HbBottom" 310 0 basechar 0
AnchorPoint: "HbTopLeft" 100.68 619.44 basechar 0
LayerCount: 2
Fore
SplineSet
446.440429688 553.6796875 m 0
 472.965207472 517.361541481 527.120117188 331.173577719 527.120117188 232 c 3
 527.120117188 74.22265625 451.557298531 0 436 0 c 0
 262.400390625 2.3203125 l 1
 216.200195312 -22.0400390625 l 1
 200 -13.919921875 l 1
 232.80078125 197.439453125 l 1
 235.045941082 211.09139278 316.245477132 213.439453124 417.919921876 213.439453124 c 3
 447.102140353 213.439453124 449 237.420793603 449 243 c 3
 449 265.73758862 445 302 429.599609375 321.16015625 c 0
 393.562975459 365.994573335 299.555148097 395.38671875 256.662109375 395.38671875 c 3
 241.111980231 395.38671875 225.873202358 397.27985125 218 395 c 0
 211.533674669 393.070312304 187.718378938 356.318648681 185.280273438 343.559570312 c 0
 174.959336921 277.170046961 183.952148438 215.990676402 182.399414062 161.201171875 c 1
 50 -21 l 1
 36.9599609375 -10.759765625 l 1
 63.3671875 147.072265625 81.9679595766 210.361770837 89 240 c 0
 94.1182921551 276.852637914 101 289.755957021 101 322 c 3
 101 339 73.0000000006 329 54.240234375 371.599609375 c 0
 50.544008012 379.992987116 50.169921875 393.460980663 50.169921875 404.096679688 c 3
 50.169921875 476.664866602 89.2019730179 543.252355176 120.599609375 609.83984375 c 1
 136.599609375 608.6796875 l 1
 160.905777226 564.145513097 179.767869037 520.773995228 228 472 c 1
 312 603 l 1
 314.67017698 606.393602652 324.033375125 610.51953125 328.280273438 610.51953125 c 3
 359.516908805 610.51953125 417.032793415 589.689229234 446.440429688 553.6796875 c 0
EndSplineSet
EndChar
StartChar: afii57679
Encoding: 1503 1503 110
Width: 270
Flags: HW
AnchorPoint: "HbTop" 122 619.44 basechar 0
AnchorPoint: "HbTopLeft" 45.68 619.44 basechar 0
LayerCount: 2
Fore
SplineSet
187.16015625 517.249609375 m 5
 199.072363281 489.087706033 197.239478687 456.902028496 199.072363281 395.212060547 c 5
 207.920500671 318.863851367 211.460351562 245.933731894 211.460351562 182.120117188 c 4
 211.460351562 70.3766064388 210.025195312 -35.1589798818 208.590039062 -122.069921875 c 5
 186.796531191 -164.152487182 162.277258089 -207.853822324 144.56953125 -245.080078125 c 5
 117.260351562 -227.6 l 5
 145.767634174 25.1676323852 168.930457541 263.388212493 158.240039062 439.780078125 c 5
 162.75864094 484.970638021 161.854768396 511.869931787 187.16015625 517.249609375 c 5
48.359765625 609.140429688 m 5
 54.1333831399 606.820117188 59.9064606101 604.499804688 65.680078125 602.18046875 c 5
 70.3197265625 595.21953125 77.2796875 588.259570312 81.9203125 582.459765625 c 5
 130.025415715 571.900195312 179.13393826 560.459765625 209.200195312 531.419726562 c 5
 190.082666016 355.739697266 l 5
 186.269059245 368.649348769 182.455452474 379.714542548 178.641845703 390.779736328 c 5
 125.274217295 378.817958439 59.8648112349 401.793472143 31.4422363281 420.430126953 c 5
 14.5247070312 467.607371661 29.9040437057 538.373900674 48.359765625 609.140429688 c 5
EndSplineSet
EndChar
StartChar: afii57682
Encoding: 1506 1506 113
Width: 488
Flags: HW
AnchorPoint: "HbTop" 250 619.44 basechar 0
AnchorPoint: "HbBottom" 264 0 basechar 0
AnchorPoint: "HbTopLeft" 81.68 619.44 basechar 0
LayerCount: 2
Fore
SplineSet
308.48046875 609.140429688 m 5
 315.253369538 607.153497291 322.026903899 605.166564895 328.799804688 603.18046875 c 5
 333.440429688 596.21953125 340.400390625 589.259570312 345.040039062 583.459765625 c 5
 388.428571997 571.252869073 432.721895611 558.028731142 459.83984375 524.459765625 c 5
 441.074121094 387.341455078 l 5
 420.793847656 387.702001953 l 5
 372.920654296 371.072296816 303.490917969 402.829612341 290.615576172 425.222363281 c 5
 271.20257546 470.954533927 289.482500494 539.158728094 308.48046875 609.140429688 c 5
23.81953125 -86.51015625 m 5
 1.16015625 -77.8400390625 l 5
 43.246484375 80.8293945313 l 5
 64.9706542969 99.8055175781 80.3811915077 102.974801267 112.84609375 116.043261719 c 4
 171.547832765 139.884472656 278.386755324 173.675349299 339.189550781 246.658789063 c 4
 372.809453283 286.995667881 408.622108222 418.316319974 419.941455078 481.175878906 c 5
 441.074121094 387.341455078 l 5
 422.508806539 326.782424701 372.609609349 168.409726635 304.599609375 82.3603515625 c 4
 258.223400864 23.6830429002 123.12674629 -42.695703125 23.81953125 -86.51015625 c 5
81.390234375 609.140429688 m 5
 88.1631351632 607.153497292 94.9366695249 605.166564896 101.709570312 603.18046875 c 5
 106.350195312 596.21953125 110.796027878 585.456650548 117.949804688 583.459765625 c 4
 165.088202243 570.301687327 215.340621913 567.705766693 242.66953125 519.86015625 c 5
 199.738330078 387.785986328 l 5
 178.49711914 375.63071289 171.613916016 383.438525391 160.487939453 371.536181641 c 5
 159.181108352 340.471045804 172.163409076 173.413051192 233.046484375 141.482666016 c 5
 214.846484375 111.686181641 l 5
 140.083319548 164.680794888 119.016048517 341.301460674 113.106103516 403.186767578 c 5
 97.877832031 406.7625 71.3250488281 418.945898437 62.1947265625 427.422363281 c 5
 44.5156948003 472.087098605 62.1874150348 541.559882311 81.390234375 609.140429688 c 5
EndSplineSet
EndChar
StartChar: afii57684
Encoding: 1508 1508 115
Width: 481
Flags: HW
HStem: 0 221<83.6768 366.192>
VStem: 368 75.7598<157.743 304.916>
AnchorPoint: "HbBottom" 224 0 basechar 0
AnchorPoint: "HbTop" 259 619.44 basechar 0
AnchorPoint: "HbTopLeft" 131.68 619.44 basechar 0
AnchorPoint: "HbMiddle" 260 298 basechar 0
LayerCount: 2
Fore
SplineSet
133.9609375 275.16015625 m 1
 41.7197265625 257.400390625 l 1
 31.16015625 275.080078125 l 1
 75.240234375 363.879882812 l 1
 133.9609375 275.16015625 l 1
175 462 m 1
 152 397 119 337 89.48046875 374.880859375 c 1
 109 394 l 1
 121 355 151.49349232 353.811596984 185 346 c 1
 166.919921875 241.559570312 l 1
 69.19921875 257.919921875 l 1
 57.25 296.493164062 46.3876953125 335.06640625 48.5595703125 373.639648438 c 1
 78.9999999999 422 138.924804688 459.043945312 160.799804688 477.919921875 c 1
 175 462 l 1
354.123046875 330.392578125 m 0
 319.911951578 377.394793755 192.314373645 377.20742429 114.141601562 390.9765625 c 1
 129.919921875 630.240234375 l 1
 147.240234375 634.879882812 l 1
 163.48046875 610.51953125 l 1
 243.792431288 606.64453125 360.185456595 586.347104732 384.599609375 553.6796875 c 0
 405.126953125 526.213024659 443.759765625 293.470503776 443.759765625 196.040039062 c 3
 443.759765625 119.4453125 375.770507812 0 338.200195312 0 c 3
 277.205860508 0 99 -7 82.7998046875 -10.2802734375 c 1
 30.599609375 -33.6396484375 l 1
 17.400390625 -25.51953125 l 1
 50.8564453125 184.8046875 l 1
 92.6418866671 219.820153761 197.941664926 221 359 221 c 3
 368.219544457 221 368 228.477558335 368 231 c 3
 368 254.31694629 376.265861848 299.970828836 354.123046875 330.392578125 c 0
EndSplineSet
EndChar
StartChar: afii57685
Encoding: 1509 1509 116
Width: 471
Flags: HW
AnchorPoint: "HbTop" 235 619.44 basechar 0
AnchorPoint: "HbTopLeft" 45.68 619.44 basechar 0
LayerCount: 2
Fore
SplineSet
166.19921875 447.48046875 m 1
 171.145901616 439.866653384 176.710945447 432.253814583 181.0390625 424.640625 c 1
 167.587890626 398.192382812 160.318359374 372.295898437 154.3203125 346.400390625 c 1
 173.967746511 148.080759371 180.567355886 45.7042708609 177.19921875 -78 c 1
 142.83214306 -136.054311562 109.255171064 -194.611831532 84.759765625 -245.080078125 c 1
 67.759765625 -232 l 1
 77.8603515614 -24.1219491603 98.9599609382 176.586995767 112.959960938 336.080078125 c 1
 130.596779909 376.184570312 151.562399778 411.83203125 166.19921875 447.48046875 c 1
49.4404296875 624.440429688 m 1
 56.2133304755 622.453497292 62.986864837 620.466564896 69.759765625 618.48046875 c 1
 74.400390625 611.51953125 81.3603515625 604.559570312 86 598.759765625 c 1
 130.931193036 587.993307337 191.798100224 576.328361381 219.879882812 546.719726562 c 1
 181.0390625 424.640625 l 1
 170.360351562 424.640625 159.679687501 424.640625 149 373.6796875 c 1
 118.344430492 347.140788192 34.886613828 387.363749778 27.359375 401.48046875 c 1
 20.6560368811 418.403119489 17.8379501096 437.894717159 17.8379501096 459.175324473 c 0
 17.8379501096 507.988495046 32.6651915803 566.214462367 49.4404296875 624.440429688 c 1
127.3203125 145.400390625 m 1
 224.695261172 257.90853055 261.97362068 354.126735058 288.6796875 452.16015625 c 1
 288.83984375 630.240234375 l 1
 307.16015625 632.559570312 l 1
 314 597 424 572 449.400390625 567.440429688 c 1
 424 379 l 1
 410 368 l 1
 402.869325467 369.988153391 366.210303138 383.008246294 350.6796875 389.400390625 c 1
 252.158354056 267.039896003 262.187346317 245.613134826 141.640625 129.3203125 c 1
 127.3203125 145.400390625 l 1
EndSplineSet
EndChar
StartChar: afii57686
Encoding: 1510 1510 117
Width: 476
Flags: HW
AnchorPoint: "HbTop" 234 619.44 basechar 0
AnchorPoint: "HbBottom" 235 0 basechar 0
AnchorPoint: "HbTopLeft" 46.68 619.44 basechar 0
LayerCount: 2
Fore
SplineSet
233.929394531 274.484423829 m 5
 258.188588839 334.484033458 278.575711814 407.157663602 283.501757812 455.474121094 c 5
 289.08984375 614.940234375 l 5
 312.41015625 617.259570312 l 5
 325.55541424 560.074317525 460.254063538 565.446553694 450.400390625 558.140429688 c 5
 428.346484375 412.624121094 l 5
 403.891455078 400.548242188 l 5
 398.237841797 404.222070313 358.950086251 420.210302734 345.551757812 420.210302734 c 5
 309.703151954 381.290828136 287.982777341 328.73438971 255.089550781 266.444384765 c 5
 233.929394531 274.484423829 l 5
55.3904296875 609.140429688 m 5
 63.8299451741 607.153497292 72.2702501384 605.166564896 80.709765625 603.18046875 c 5
 85.350390625 596.21953125 92.3103515622 589.259570312 96.95 583.459765625 c 5
 143.279399247 572.693307337 219.530078125 549.711653428 219.530078125 531.419726562 c 7
 219.530078125 491.078500788 197.765637274 446.091877034 180.596484375 382.370605469 c 5
 201.485155082 320.74007724 306.799533268 266.610421432 369.560302734 236.466943359 c 4
 406.097509765 218.124583728 412.836181641 208.65609699 412.836181641 193.105273438 c 7
 412.836181641 114.904273707 374.687939453 0 374.687939453 0 c 5
 81.7998046875 1.16015625 l 5
 32.599609375 -23.2001953125 l 5
 17.400390625 -17.280078125 l 5
 43.4896972656 131.267333984 l 5
 88.8525393919 184.491017964 132.438597083 174.105332172 318.819335938 172.535107422 c 5
 192.08303693 259.337618398 133.544140625 323.114539533 133.544140625 361.227929688 c 7
 133.544140625 369.77055543 139.770709017 387.137789899 141.950097656 398.300292969 c 5
 84.8414989543 401.094505265 49.5158779464 404.844733905 26.1909179688 442.673925781 c 5
 14.9758789062 480.462104042 33.5052734375 547.122385029 55.3904296875 609.140429688 c 5
EndSplineSet
EndChar
StartChar: afii57688
Encoding: 1512 1512 119
Width: 513
Flags: HW
AnchorPoint: "HbTop" 223 619.44 basechar 0
AnchorPoint: "HbMiddle" 221 288 basechar 0
AnchorPoint: "HbBottom" 251 0 basechar 0
AnchorPoint: "HbTopLeft" 62.68 619.44 basechar 0
LayerCount: 2
Fore
SplineSet
117.991455078 586.072363281 m 5
 250.331161394 585.044121094 324.054883693 581.231959145 354.179394531 565.512060547 c 4
 382.628759766 549.474142081 453.082208313 430.550804037 447.822363281 186.775878906 c 4
 447.021203634 160.306204895 446.75727539 135.375048827 444.627636719 114.965576172 c 5
 420.609169789 67.105052762 400.737920572 29.6939269249 381.222363281 -11.5655761719 c 5
 363.960302734 -4.99145507812 l 5
 373.027043927 85.1099200285 385.6302353 166.934332113 385.6302353 239.958738973 c 7
 385.6302353 295.28050197 377.786156162 351.127613799 316.301757812 384.296484375 c 4
 292.151139162 395.273583984 213.697892789 402.360302734 123.717333984 402.360302734 c 7
 86.2060301765 402.360302734 27.8095798892 419.603654595 9.70854492187 448.882666016 c 5
 54.15 630.662060547 l 5
 78.2 624.422363281 l 5
 117.991455078 586.072363281 l 5
EndSplineSet
EndChar
StartChar: afii57689
Encoding: 1513 1513 120
Width: 702
Flags: HW
AnchorPoint: "HbTopRight" 624 619.44 basechar 0
AnchorPoint: "HbBottom" 292 0 basechar 0
AnchorPoint: "HbTopLeft" 61.68 619.44 basechar 0
AnchorPoint: "HbTop" 331 619.44 basechar 0
LayerCount: 2
Fore
SplineSet
235.448388672 182.04038086 m 5
 238.440087891 203.398769993 272.127929688 381.156339178 272.501757812 403.036181641 c 5
 273.81015625 614.940234375 l 5
 293.13046875 617.259570312 l 5
 311.527429333 565.412158202 400.372868135 560.990330913 417.919726562 551.140429688 c 5
 403.641455078 400.224121094 l 5
 382.211767578 390.104199219 l 5
 379.024891201 389.899567199 333.542396959 408.027886978 330.811962891 408.644238281 c 5
 299.66795053 337.516088535 277.244467626 250.602017737 256.608544922 166.960302734 c 5
 235.448388672 182.04038086 l 5
220.51953125 -19.7197265625 m 5
 182.619169213 -19.7197265625 107.879882812 123.108994338 107.879882812 200.6796875 c 5
 107.879882812 252.072308189 108.831849135 316.146835967 131.35366211 379.171240235 c 5
 103.22156552 401.692451895 52.4988608384 401.838376045 30.4378417969 423.218017578 c 5
 22.830018689 438.581975808 20.8482910156 459.037100906 20.8482910156 474.956445313 c 5
 20.8482910156 516.266585586 27.4825102546 554.133731145 55.6796875 616.100390625 c 5
 61.1199612883 614.940234375 66.5597262117 614.940234375 72 614.940234375 c 5
 76.6396484375 601.0203125 81.2802734375 604.499804688 85.919921875 591.740039062 c 5
 116.500498237 584.523161698 142.550053806 579.368497277 168.599609375 559.780078125 c 5
 190.639648438 540.060351562 199.919921873 482.060351562 190.639648438 465.820117188 c 5
 163.049578237 404.086211285 159.217333984 313.374364979 159.217333984 255.420605469 c 5
 164.167333984 235.719280966 255.4249754 177.972363281 295.772363281 177.972363281 c 5
 370.373998125 177.972363281 436.21232013 189.827963456 498.810595704 213.498193359 c 5
 530.58873895 272.245293722 554.937078482 323.616374698 570.674951172 364.637841797 c 4
 573.833645323 373.837615498 574.13197057 380.642883931 566.483789063 383.372216797 c 4
 529.778627955 395.424196328 502.359665321 418.136796203 490.435546875 444.565087891 c 5
 496.811936327 506.92440914 501.753772233 546.238764477 548.719726562 624.21953125 c 5
 555.826718984 622.699993258 562.933046642 621.93990436 570.040039062 620.419726562 c 5
 572.360351562 606.499804688 575.83984375 605.339648438 578.16015625 591.419726562 c 5
 628.330078125 569.787517923 667.48046875 544.853001104 667.48046875 485.0203125 c 4
 667.48046875 464.108203125 658.819656718 434.871710223 649.192382812 414.259570312 c 4
 594.738114279 297.483841135 517.399385036 122.941913676 425.759765625 31.3203125 c 5
 379.794590508 9.12890625 312.605295867 -19.7197265625 220.51953125 -19.7197265625 c 5
EndSplineSet
EndChar
StartChar: uni1EFA
Encoding: 7930 7930 773
Width: 863
Flags: HW
HStem: -7 44<43 108.095> 2 50<209.846 316.957 414.846 730.493> 645.037 37.1745<213.234 310.117 420.229 511.025> 672 20G<34.2609 46.5515>
VStem: 114 88<57.6719 149 149.273 638.25> 319 88<57.2771 149 149.273 635.551> 787 35<122.552 159>
LayerCount: 2
Fore
SplineSet
262.83 645.037 m 3x6e
 216.041 645.037 208.13 645.561 205 572 c 0
 203 525 202 149 202 149 c 2
 202 90 204 52 245 52 c 0
 252.015 52 278.264 52.3379 296.004 52.3379 c 0
 310.485 52.3379 317 59.6827 317 76 c 0
 317 80 319 178 319 300 c 0
 319 453 314 600 313 611 c 0
 311.395 635.398 302.888 645.037 262.83 645.037 c 3x6e
304 2 m 0x6e
 89 2 54 -7 43 -7 c 1
 38 37 l 1
 97 43 111 45 112 76 c 0
 112 80 114 178 114 300 c 0
 114 453 109 600 108 611 c 0
 106 639 94 644 32 646 c 1
 36 692 l 1x9e
 48.8865494251 687.92197803 97.3751662822 685.174377115 158.999996935 683.653027918 c 0
 240.415345386 681.643104748 350.612110013 681.715630459 428.99999728 684.052641734 c 0
 467.299042198 685.194467378 497.114570127 686.855096199 511 689 c 1
 515 648 l 1
 428 637 414 656 410 572 c 0
 408 525 407 149 407 149 c 2
 407 90 409 52 450 52 c 0
 482 52 640 52 663 53 c 0
 733 57 762 91 787 166 c 1
 822 159 l 1
 822 102 810 122 783 -21 c 1
 761 -12 755 -3 711 -1 c 1
 626.878 -1 409.423 2 304 2 c 0x6e
EndSplineSet
Position2: "cpsp-1" dx=0 dy=0 dh=50 dv=100
EndChar
StartChar: uni20B9
Encoding: 8377 8377 923
Width: 426
UnlinkRmOvrlpSave: 1
Flags: HW
HStem: -42 23<381.506 409> 283 31<32 113.386> 460.095 28.999<33.25 411.25>
VStem: 248 79<400.509 544.149>
LayerCount: 2
Fore
SplineSet
33.25 666.09375 m 1
 411.25 666.09375 l 1
 411.25 637.094726562 l 1
 33.25 637.094726562 l 1
 33.25 666.09375 l 1
33.25 489.09375 m 1
 411.25 489.09375 l 1
 411.25 460.094726562 l 1
 33.25 460.094726562 l 1
 33.25 489.09375 l 1
32.5 666 m 1
 57.25390625 666 67.658203125 666 96 666 c 0
 222.431640625 666 327 583 327 480 c 0
 327 393 262.599609375 334 189 304 c 1
 265.474609375 110.581054688 332.772460938 -13.0947265625 412 -19 c 1
 409 -42 l 1
 258 -39 178 134 114 284 c 1
 100.875 283 89.2080078125 283 79 283 c 0
 60.6474609375 283 50.3525390625 285.400390625 32 286 c 1
 32 316 l 1
 49.912109375 315.5 59.087890625 314 77 314 c 3
 219.663085938 314 248 410.737304688 248 469 c 3
 248 534.418945312 188.37890625 638 75 638 c 3
 61.8720703125 638 35.193359375 638 33.5 638 c 1
 32.5 666 l 1
EndSplineSet
EndChar
StartChar: afii61289
Encoding: 8467 8467 143
Width: 445
UnlinkRmOvrlpSave: 1
Flags: HW
LayerCount: 2
Fore
SplineSet
346 644 m 3
 335.462983142 644 323.497922477 600.734577468 305 543 c 0
 300.386903342 528.601886552 282.449166598 472.806204914 272 422 c 0
 254.192422672 340.363225645 241.546675702 223.285545768 235 138 c 1
 233 126.929545652 229 93.2432432432 235 92 c 1
 245.6 91.4166666667 258.2 100.230769231 288 120 c 1
 312 96 l 1
 281.697841727 52.9010989011 197.784172662 -10 150 -10 c 3
 101.345703125 -10 97.9638255218 11.4882764093 95 37 c 0
 93.25 52.0634765625 97.4682785202 69.7124196202 102 96 c 0
 114.882352941 170.727868852 154.891687055 312.335283369 175 404 c 0
 185.333007812 451.103515625 200.24634711 513.794315812 204 530 c 0
 240.365234376 687 269.211841406 684.79264213 341 729 c 0
 365.391251342 744.020203862 392.738725142 766 411 766 c 3
 450.899912732 766 474 688.956521739 474 638 c 3
 474 473.145630747 199.324525791 212.56561616 24 -10 c 1
 -6 18 l 1
 170.116304838 251.344726563 366 391.957905627 366 599 c 3
 366 613.593505859 355.36695772 644 346 644 c 3
EndSplineSet
EndChar
StartChar: afii61352
Encoding: 8470 8470 144
Width: 1092
Flags: HW
HStem: -10 44<32.4365 94.0591> 304 32<803.437 1040.44> 378 36<879.824 982.056> 654 40<859.276 968.41> 655 39<687.642 747.437> 663 38<515.7 585.175>
VStem: 105.437 55<66.5382 314.07> 113.437 56<351.62 541> 624.437 36<86 545> 635.437 37<-2.08108 26.7511> 765.437 56<470.969 612.714> 1024.44 57<456.251 599.062>
LayerCount: 2
Fore
SplineSet
22.4365234375 692 m 1xe930
 61.4365234375 688 113.424804688 684 154.436523438 684 c 0
 169.436523438 684 171.235351562 680.715820312 177.436523438 673 c 0
 316.782226562 499.627929688 461.07421875 333.961914062 614.436523438 176 c 1
 623.436523438 296.780273438 625.481445312 417.5625 624.436523438 545 c 0
 623.436523438 667 571.436523438 656 512.436523438 663 c 1
 516.436523438 701 l 1xe5b0
 608.436523438 689.111328125 676.436523438 689.888671875 747.436523438 694 c 1
 752.436523438 655 l 1
 703.436523438 649 682.21484375 651.020507812 678.436523438 609 c 0
 663.436523438 442.189453125 660.436523438 264.596679688 660.436523438 86 c 0xe9b0
 660.436523438 63 666.436523438 23 672.436523438 0 c 1
 635.436523438 -11 l 1
 619.436523438 34.9658203125 584.576171875 76.6904296875 553.436523438 113 c 0
 428.65625 255.825195312 301.461914062 401.782226562 169.436523438 541 c 1xe970
 160.436523438 154 l 2
 158.122070312 52.4189453125 194.436523438 44.6748046875 285.436523438 35 c 1
 277.436523438 -11 l 1
 185.436523438 9 101.436523438 -2 32.4365234375 -10 c 1
 27.4365234375 34 l 1
 85.4365234375 34 102.629882812 45.0400390625 105.436523438 93 c 0xea30
 114.436523438 246.783203125 117.194335938 409.412109375 113.436523438 571 c 0
 112.436523438 614 77.4365234375 649 20.4365234375 648 c 1
 22.4365234375 692 l 1xe930
EndSplineSet
Refer: 396 186 N 1 0 0 1 743.437 0 2
EndChar
StartChar: uni2123
Encoding: 8483 8483 925
Width: 853
UnlinkRmOvrlpSave: 1
Flags: HW
LayerCount: 2
Fore
SplineSet
195 -49 m 1
 331.458007812 105.635742188 467.717773438 447.91796875 445 458 c 1
 318 506 l 1
 302.25 545.15625 389.03515625 597.225585938 444 636 c 1
 491.190429688 619.23046875 517.809570312 609.76953125 565 593 c 1
 523.55078125 511.280273438 315.419921875 -6.6552734375 279 -88 c 1
 195 -49 l 1
EndSplineSet
Refer: 1344 86 N 1 0 0 1 0 0 2
EndChar
StartChar: uni2572
Encoding: 9586 9586 1466
Width: 926
VWidth: 0
Flags: HW
LayerCount: 2
Fore
SplineSet
926 -348 m 1
 911 -348 l 1
 0 892 l 1
 0 912 l 1
 15 912 l 1
 926 -328 l 1
 926 -348 l 1
EndSplineSet
EndChar
StartChar: uni263F
Encoding: 9791 9791 972
Width: 500
UnlinkRmOvrlpSave: 1
Flags: HW
LayerCount: 2
Fore
SplineSet
53 663 m 1
 103.144441835 546.715162568 190.598320927 535.999023438 258.392578125 535.999023438 c 3
 321.879275669 535.999023438 403.356465713 561.221109614 447 663 c 1
 463 660 l 1
 443.474422046 532.663280116 431.876712326 516.564514044 334 465 c 1
 176 463 l 1
 71.82389149 513.654912482 48.6013403044 540.154351505 37 660 c 1
 53 663 l 1
EndSplineSet
Refer: 251 9792 N 1 0 0 1 0 0 2
EndChar
StartChar: uni2646
Encoding: 9798 9798 977
Width: 558
Flags: HW
LayerCount: 2
Fore
SplineSet
123.200195312 240.240234375 m 0
 78.61328125 288.932617188 62.1865234375 353.172851562 73.919921875 432.959960938 c 1
 65.70703125 434.719726562 45.4677734375 419.172851562 13.2001953125 386.3203125 c 1
 8.7998046875 389.840820312 l 1
 43.4130859375 430.907226562 70.693359375 486.640625 90.640625 557.040039062 c 1
 99.4404296875 557.040039062 l 1
 112.932617188 478.426757812 139.040039062 411.252929688 177.759765625 355.520507812 c 1
 171.599609375 353.759765625 l 1
 142.852539062 400.693359375 121.147460938 425.040039062 106.479492188 426.799804688 c 1
 98.8525390625 358.747070312 112.786132812 307.852539062 148.280273438 274.120117188 c 0
 183.7734375 240.38671875 229.38671875 221.172851562 285.120117188 216.479492188 c 1
 286.879882812 432.959960938 l 1
 276.907226562 432.959960938 256.959960938 417.413085938 227.040039062 386.3203125 c 1
 221.759765625 389.840820312 l 1
 256.373046875 430.907226562 283.653320312 486.640625 303.599609375 557.040039062 c 1
 312.400390625 557.040039062 l 1
 331.172851562 486.640625 357.573242188 430.907226562 391.599609375 389.840820312 c 1
 386.3203125 386.3203125 l 1
 356.400390625 417.413085938 336.453125 432.959960938 326.479492188 432.959960938 c 1
 329.120117188 216.479492188 l 1
 383.6796875 221.172851562 428.70703125 240.532226562 464.200195312 274.559570312 c 0
 499.693359375 308.586914062 513.626953125 359.626953125 506 427.6796875 c 1
 491.919921875 425.333007812 470.506835938 400.986328125 441.759765625 354.640625 c 1
 434.719726562 356.400390625 l 1
 473.440429688 412.1328125 499.546875 479.306640625 513.040039062 557.919921875 c 1
 521.840820312 557.919921875 l 1
 541.200195312 487.520507812 568.479492188 431.786132812 603.6796875 390.719726562 c 1
 599.280273438 387.200195312 l 1
 567.013671875 420.052734375 546.7734375 435.599609375 538.559570312 433.840820312 c 1
 550.29296875 354.640625 532.986328125 289.520507812 486.640625 238.479492188 c 0
 440.29296875 187.440429688 388.373046875 159.280273438 330.879882812 154 c 1
 330.879882812 108.827148438 332.052734375 73.0400390625 334.400390625 46.640625 c 1
 384.852539062 47.8134765625 424.453125 57.7861328125 453.200195312 76.5595703125 c 1
 471.6796875 76.5595703125 l 1
 471.6796875 -32.5595703125 l 1
 453.200195312 -32.5595703125 l 1
 424.453125 -12.02734375 384.852539062 -1.1728515625 334.400390625 0 c 1
 335.573242188 -55.1474609375 346.1328125 -96.5068359375 366.080078125 -124.080078125 c 1
 366.080078125 -141.6796875 l 1
 253.440429688 -141.6796875 l 1
 253.440429688 -124.080078125 l 1
 271.040039062 -95.919921875 280.426757812 -54.5595703125 281.599609375 0 c 1
 231.147460938 0 193.599609375 -10.8525390625 168.959960938 -32.5595703125 c 1
 150.479492188 -32.5595703125 l 1
 150.479492188 76.5595703125 l 1
 168.959960938 76.5595703125 l 1
 191.840820312 57.7861328125 229.38671875 47.8134765625 281.599609375 46.640625 c 1
 282.7734375 73.0400390625 283.653320312 108.827148438 284.240234375 154 c 1
 224.986328125 159.280273438 171.306640625 188.02734375 123.200195312 240.240234375 c 0
EndSplineSet
EndChar
StartChar: uni264A
Encoding: 9802 9802 981
Width: 563
Flags: HW
LayerCount: 2
Fore
SplineSet
332.883789062 148.544921875 m 1
 332.317382812 178.534179688 331.540039062 208.557617188 331.540039062 238.565429688 c 0
 331.540039062 266.377929688 332.208007812 294.180664062 334.328125 321.932617188 c 1
 302.200195312 320.817382812 269.931640625 321.8828125 237.940429688 318.107421875 c 1
 232.640625 307.373046875 231.33203125 295.8828125 231.33203125 284.138671875 c 0
 231.33203125 272.684570312 232.577148438 260.989257812 232.577148438 249.518554688 c 0
 232.577148438 244.739257812 232.360351562 240 231.749023438 235.33203125 c 1
 231.453125 184.891601562 228.295898438 134.491210938 223.107421875 84.3251953125 c 1
 243.912109375 79.9541015625 265.150390625 79.0908203125 286.393554688 79.0908203125 c 0
 300.311523438 79.0908203125 314.231445312 79.4609375 328.033203125 79.4609375 c 0
 329.266601562 79.4609375 330.498046875 79.458984375 331.73046875 79.451171875 c 1
 333.69140625 86.2783203125 334.299804688 93.8115234375 334.299804688 101.666015625 c 0
 334.299804688 114.509765625 332.673828125 128.213867188 332.673828125 141.100585938 c 0
 332.673828125 143.618164062 332.736328125 146.102539062 332.883789062 148.544921875 c 1
43.748046875 -25.998046875 m 0
 38.03515625 -1.6181640625 41.8447265625 26.4384765625 29.3330078125 47.6953125 c 1
 48.10546875 71.3359375 86.0673828125 61.4091796875 112.46875 72.0185546875 c 0
 138.362304688 79.861328125 187.556640625 65.2890625 186.89453125 105.513671875 c 0
 189.313476562 152.8828125 192.780273438 200.420898438 192.780273438 247.926757812 c 0
 192.780273438 269.541992188 192.063476562 291.1484375 190.202148438 312.73046875 c 1
 166.956054688 335.219726562 130.043945312 320.063476562 101.694335938 331.608398438 c 0
 75.5390625 339.869140625 22.5654296875 324.950195312 23.818359375 365.7734375 c 1
 29.31640625 384.538085938 19.8623046875 426.033203125 44.2705078125 426.033203125 c 0
 47.095703125 426.033203125 50.3740234375 425.4765625 54.1826171875 424.264648438 c 0
 81.44140625 416.799804688 106.935546875 405.1171875 134.967773438 400.27734375 c 1
 189.381835938 382.836914062 247.297851562 378.3359375 304.231445312 376.797851562 c 0
 357.0390625 377.102539062 409.123046875 388.553710938 460.614257812 398.685546875 c 1
 474.505859375 399.057617188 496.674804688 413.49609375 511.416015625 413.49609375 c 0
 517.1484375 413.49609375 521.755859375 411.313476562 524.318359375 405.274414062 c 1
 523.58203125 403.297851562 523.255859375 401.212890625 523.255859375 399.049804688 c 0
 523.255859375 383.100585938 540.905273438 362.875 540.905273438 350.120117188 c 0
 540.905273438 343.838867188 536.625 339.3671875 523.844726562 338.111328125 c 0
 475.319335938 331.24609375 426.447265625 326.901367188 377.67578125 321.932617188 c 1
 371.16796875 290.013671875 370.6015625 257.198242188 366.475585938 224.998046875 c 1
 366.401367188 175.313476562 371.094726562 125.801757812 374.786132812 76.2998046875 c 1
 426.274414062 62.6025390625 480.366210938 63.3349609375 532.200195312 52.76171875 c 1
 538.543945312 47.134765625 540.696289062 40.2470703125 540.696289062 32.744140625 c 0
 540.696289062 16.525390625 530.634765625 -2.5634765625 531.115234375 -17.994140625 c 1
 526.631835938 -21.0703125 521.986328125 -22.318359375 517.2265625 -22.318359375 c 0
 498.010742188 -22.318359375 476.943359375 -1.9970703125 457.216796875 0.23828125 c 1
 415.14453125 13.2880859375 370.928710938 17.7470703125 327.359375 22.8798828125 c 0
 315.041992188 24.0849609375 302.7109375 24.640625 290.387695312 24.640625 c 0
 255.75 24.640625 221.185546875 20.2490234375 187.204101562 13.541015625 c 0
 139.434570312 6.236328125 94.513671875 -12.576171875 50.6875 -32.0625 c 0
 47.4140625 -31.501953125 45.271484375 -28.6748046875 43.748046875 -25.998046875 c 0
EndSplineSet
EndChar
StartChar: uniE002
Encoding: 57346 57346 1084
Width: 0
Flags: HW
LayerCount: 2
Fore
SplineSet
-97.443359375 0.109375 m 3
 -97.443359375 53.8544921875 -53.849609375 97.443359375 0.001953125 97.443359375 c 3
 53.849609375 97.443359375 97.443359375 53.8544921875 97.443359375 0.109375 c 3
 97.443359375 -53.6416015625 53.849609375 -97.443359375 0.001953125 -97.443359375 c 3
 -53.849609375 -97.443359375 -97.443359375 -53.6416015625 -97.443359375 0.109375 c 3
EndSplineSet
EndChar
StartChar: a.pcap
Encoding: 57347 57347 1
Width: 472
Flags: HW
AnchorPoint: "Ogonek" 347 27 basechar 0
AnchorPoint: "Top" 250 465 basechar 0
AnchorPoint: "Bottom" 221 -15 basechar 0
LayerCount: 2
Fore
SplineSet
162 135 m 1
 183.17161264 128.75 233.239651352 130 253 130 c 1
 245.385439917 158.035531851 215.230352493 206.178448016 200 223 c 1
 187.46 191.888270548 173.4 161.667701198 162 135 c 1
229 -9 m 1
 229 -9 227 16.2 226 26 c 1
 261.860887097 27.4384615385 268.243227947 50.9915575149 268 60 c 0
 267.64 73.3333333333 267.159765625 76.6669921875 265 90 c 1
 247.396696671 101.454101562 172.985351562 108 147 99 c 1
 142.333007812 84.9306640625 144.854529626 89.9201138837 140 75 c 0
 132.667698907 52.464599917 157.618181818 19.724137931 197 27 c 1
 204 -7 l 1
 180.194854707 -2.9169921875 134.692966475 -0.875 92.8076171875 -0.875 c 3
 64.1616020146 -0.875 37.2803998316 -1.9169921875 21 -4 c 1
 21 -1.84615384615 17.25 14.3076923077 16 24 c 1
 42.6758974359 31.8 74.4411327476 56.0040512644 78 63 c 0
 135.555555556 176.141538462 191.1339469 297.023858401 226 390 c 0
 229 398 228.25 400 228 415 c 1
 272 415 l 1
 273.5 395 272.714556618 397.912072667 275 391 c 0
 317.863636364 267 349.227272727 166 413 37 c 0
 418.746548116 25.3758349591 440.142857143 21 451 21 c 1
 451 19 455 5 458 -3 c 1
 430.144146125 -0.380859375 391.688941703 1.0947265625 352.567382812 1.0947265625 c 3
 305.810757446 1.0947265625 258.02446553 -1.97302783621 229 -9 c 1
EndSplineSet
EndChar
StartChar: g.pcap
Encoding: 57353 57353 277
Width: 543
Flags: HW
AnchorPoint: "Bottom" 288 -15 basechar 0
AnchorPoint: "Top" 285 465 basechar 0
LayerCount: 2
Fore
SplineSet
56 205 m 3
 56 368 235 412 318 412 c 1
 354 412 381.187469715 400.953132571 409 394 c 0
 417 392 419 406 428 407 c 1
 446 406 l 1
 458 301 l 1
 437 297 l 1
 385 330 337.801960973 380 274 380 c 3
 174.954555885 380 193 258 198 217 c 0
 208 135 251.884393064 41 316 41 c 3
 322 41 325.058512164 44.2389025838 330 47 c 0
 341 56.8780487805 346 75.5 348 92 c 0
 348.524687066 96.3286682976 348.735358178 100.621341737 349 106 c 0
 351.125 149.189125254 356.137605948 183 332 183 c 0
 325.315827496 183 320.705882353 183 314 183 c 1
 315 205 l 1
 374 199 458 200 487 204 c 1
 489 187 l 1
 478 186 469.922455012 176.958337668 468 151 c 0
 465.674455037 119.598858734 466.195100447 89.1791442928 464 67 c 0
 461.898465383 45.7662384367 466 41 480 32 c 1
 478 19 l 1
 432 12 320 -6 288 -6 c 1
 158 -6 56 78 56 205 c 3
EndSplineSet
EndChar
StartChar: h.pcap
Encoding: 57354 57354 293
Width: 603
Flags: HW
AnchorPoint: "Bottom" 307 -15 basechar 0
AnchorPoint: "Top" 311 465 basechar 0
LayerCount: 2
Fore
SplineSet
65 409 m 1
 100.970073031 405.899131635 132.709376831 402.798263271 166.658176466 402.798263271 c 3
 187.450171411 402.798263271 243.071289062 403.9609375 267 407 c 1
 269 383 l 1
 256 379 245.421634213 372.224637741 240 362 c 1
 230.782964916 342.533691931 232.142857143 274.218854866 229 218 c 1
 391 220 l 1
 389 247.5900625 389 279.752997394 385 319 c 0
 381 371.517931519 367 377 355 385 c 1
 358 408 l 1
 380.90234375 403.419921875 430.013789697 400.937207592 453.527579394 400.937207592 c 3
 481.349470565 400.937207592 509.734154144 404.412558482 539 412 c 1
 543 388 l 1
 528.324324324 384.305555556 520.748160352 372.184468054 515 333 c 0
 503.94099719 284.152683547 494.907565532 203.787903084 494.907565532 142.805180582 c 3
 494.907565532 109.763632134 506.218606985 70.7026187991 512 60 c 0
 526.151367188 33.802734375 549 16 542 21 c 1
 542 21 539 5 539 -2 c 1
 518.501425325 2.39255171604 483.239257812 4.8798828125 457.048828125 4.8798828125 c 3
 429.577148438 4.8798828125 384.084960938 2.1435546875 359 -4 c 1
 359 -2 354 12 353 20 c 1
 364 23 372.451634277 36.3604892057 380 82 c 0
 387.857142857 121.09765625 389.428571429 144.55625 391 186 c 1
 227 186 l 1
 228 148.469756381 228 110.191031041 231 79 c 0
 233 28.9816220814 258 26 265 21 c 1
 265 21 262 4 262 -3 c 1
 233.12890625 2.2490234375 187.052734375 5.0185546875 157.387695312 5.0185546875 c 3
 130.541992188 5.0185546875 85.8528607142 2.7506218944 64 -2 c 1
 64 -2 61 18 60 28 c 1
 59.8888888889 30.7941176471 91.3559190349 36.3963789684 100 81 c 0
 110.263599063 133.960365003 114.144139522 213.911611367 114.144139522 272.663590411 c 3
 114.144139522 308.122688953 109.50715843 335.469522161 104 341 c 0
 94.0922822886 375.551599856 67.1914893617 382.807692308 63 383 c 1
 65 409 l 1
EndSplineSet
EndChar
StartChar: j.pcap
Encoding: 57356 57356 312
Width: 310
Flags: HW
AnchorPoint: "Bottom" 169 -77 basechar 0
AnchorPoint: "Top" 162 465 basechar 0
LayerCount: 2
Fore
SplineSet
90 313 m 0
 81.1435546875 373.620117188 52 373 40 380 c 1
 43 408 l 1
 73.5263671875 402.077148438 121.807617188 399.682617188 151.26171875 399.682617188 c 0
 186.454101562 399.682617188 221.893554688 403.100585938 260 408 c 1
 261 377 l 1
 250 376 225.28515625 368.03515625 220 316 c 0
 213.931640625 256.25390625 214 201.467773438 214 130 c 3
 214 56 219 27.076171875 219 2 c 3
 219 -52 179.0625 -85.990234375 134 -115 c 0
 110.700195312 -130 82.2998046875 -142 57 -151 c 1
 46.7919921875 -151 22 -118 22 -118 c 1
 32.9638671875 -107.385742188 53.193359375 -99.1923828125 68 -92.71875 c 0
 71.9482421875 -91.0185546875 74.50390625 -90.185546875 78 -88 c 0
 134 -53 105 37 102 72 c 0
 93.9716796875 165.662109375 97.6396484375 260.706054688 90 313 c 0
EndSplineSet
EndChar
StartChar: n.pcap
Encoding: 57360 57360 346
Width: 587
Flags: HW
AnchorPoint: "Top" 311 465 basechar 0
AnchorPoint: "Bottom" 295 -15 basechar 0
LayerCount: 2
Fore
SplineSet
63 406 m 1
 109.213592233 401 163.424001728 401 203 401 c 0
 212 401 214.361523477 398.331933831 218 394 c 0
 285 309.138796543 352 243.594830451 439 194 c 1
 439.999976186 197.25 440.873610404 202.559287753 441.349609375 207 c 0
 441.683765646 210.117426576 442 214.661157113 442 219 c 0
 442 371.525974026 416 383.922077922 392 385 c 1
 394 410 l 1
 426.30942523 405.123105626 456.389091204 403.590850136 484.465545845 403.590850136 c 0
 502.445376185 403.590850136 519.603695466 404.219223594 536 405 c 1
 539 379 l 1
 520 379 517.828212257 369.612874541 504 307 c 0
 486.634615385 224.783505155 485 119.905314394 485 32 c 0
 485 21.7916666667 487.5 6.47916666667 489 -3 c 1
 462 -13 l 1
 453.219512195 2.61403508772 439.100450002 17.2511821472 422 34 c 0
 342.688888889 111.680257161 255.844444444 187.634939482 173 261 c 1
 173 263.532714844 166 210 166 177 c 1
 166 86.6666666667 173 32 224 27 c 1
 219 -10 l 1
 196.614088118 -2.12347544897 173.197046502 0.425545475769 150.529953807 0.425545475769 c 0
 118.518773309 0.425545475769 88.0032891267 -4.65821569495 64 -7 c 1
 60 28 l 1
 92 32 98.5296960221 46.7193523877 108 113 c 0
 114.116615041 155.808890515 115.522624035 196.400086646 115.522624035 241.159686842 c 0
 115.522624035 252.524908984 116.090335481 261.437574342 114 277 c 0
 106.158057039 335.382807661 79 357 62 371 c 1
 63 406 l 1
EndSplineSet
EndChar
StartChar: p.pcap
Encoding: 57362 57362 399
Width: 450
Flags: HW
AnchorPoint: "Top" 234 465 basechar 0
AnchorPoint: "Bottom" 172 -15 basechar 0
LayerCount: 2
Fore
SplineSet
215 161 m 3
 239.728971963 161 269 184.284313725 269 256 c 1
 269 315.607998512 255.870117188 358.0859375 235 370 c 0
 231.868747723 371.78752879 228 374 223 374 c 3
 221 374 218.791168661 359.707853948 218 348 c 0
 215 303.60546875 210 241.368164062 213 166 c 1
 214.178710938 163.286132812 214.428571429 161 215 161 c 3
62 402 m 1
 78 401 107 400 130 400 c 1
 171 400 203 406 243 406 c 1
 338 406 399 328.576171875 399 266 c 1
 399 175 305 138 234 138 c 3
 223.879882812 138 215 136 215 130 c 1
 217 107.9765625 220.391207012 89.0374362691 223 78 c 0
 233 35.69140625 244 30 253 30 c 1
 251 -7 l 1
 222.678710938 -1.8076171875 185.03125 1.15625 159.0078125 1.15625 c 1
 129.8984375 1.15625 108.318749255 -2.55230787577 74 -11 c 1
 64 15 l 1
 84 26 90.455598788 49.0969560935 97 91 c 0
 100.182617188 111.377929688 102.77734375 135.342773438 102.77734375 160.807617188 c 3
 102.77734375 213.348632812 100.244140625 271.026367188 93 322 c 0
 89.025520227 349.96655712 89.320754717 375.333333333 59 372 c 1
 62 402 l 1
EndSplineSet
EndChar
StartChar: q.pcap
Encoding: 57363 57363 422
Width: 536
Flags: HW
AnchorPoint: "Top" 272 465 basechar 0
AnchorPoint: "Bottom" 265 -15 basechar 0
AnchorPoint: "Middle" 266.697 213.853 basechar 0
LayerCount: 2
Fore
SplineSet
236 386 m 3
 215.776251584 386 190 356 190 276 c 3
 190 169.372881356 218.125 43 295 43 c 3
 324.092393283 43 343 63.3076153011 343 137 c 3
 343 292.484162896 294.432624113 386 236 386 c 3
370 26 m 1
 470.862815884 -38.125 523.202166065 -85 644 -85 c 3
 690.344827586 -85 746.620689655 -83.5 764 -82 c 1
 772 -103 l 1
 743.497584541 -117 620.367149758 -151 536 -151 c 3
 415.134796238 -151 340.990595611 -79.4965517241 212 -7 c 1
 139.431578947 18.0277777778 56 95.4722222222 56 210 c 3
 56 349 162 412 271 412 c 3
 377 412 477 333 477 211 c 3
 477 121.78680203 423.859259259 63.9898477157 370 26 c 1
EndSplineSet
EndChar
StartChar: t.pcap
Encoding: 57366 57366 477
Width: 478
Flags: HW
AnchorPoint: "Top" 247 465 basechar 0
AnchorPoint: "Bottom" 245 -15 basechar 0
LayerCount: 2
Fore
SplineSet
120 405 m 0
 182.262026058 401.788454182 245.328167816 399.959481645 308.419537123 399.959481645 c 3
 344.316272701 399.959481645 380.227896556 399.583005244 416 402 c 0
 425.977251719 402.674127679 439 413 437 411 c 1
 454 400 l 1
 445.428571429 373.697674419 429.904296875 326.430664062 430 289 c 1
 404 294 l 1
 404 294 405.333007812 302 404 306 c 1
 406 343 344 354 319 356 c 1
 311.576919818 293.571491219 308.918981268 276.251056892 308.918981268 177.572384011 c 3
 308.918981268 154.781141807 309.606326495 129.891008464 312 106 c 0
 319.208007812 34.0576171875 328 31.6669921875 354 26 c 1
 350 -7 l 1
 327.93359375 -2.271484375 290.432909327 -0.182569073572 262.025246319 -0.182569073572 c 3
 218.339885218 -0.182569073572 175.509765625 -5.1220703125 144 -13 c 1
 138 27 l 1
 173.291992188 28 171.205078125 56.96875 175 76 c 0
 182.69921875 114.245117188 187.506835938 183.633789062 187.506835938 256.456054688 c 3
 187.506835938 312.025390625 181.597018495 344.459604073 169 356 c 1
 148.636363636 359 132.986235707 356.216104759 110 346 c 0
 92 338 81.7884615385 337.085106383 54 309 c 1
 24 323 l 1
 39 354 58 403 66 420 c 1
 82 408 93.5952017329 406.805782364 120 405 c 0
EndSplineSet
EndChar
StartChar: x.pcap
Encoding: 57370 57370 1217
Width: 509
Flags: HW
AnchorPoint: "Top" 257 465 basechar 0
AnchorPoint: "Bottom" 257 -15 basechar 0
LayerCount: 2
Fore
SplineSet
38 403 m 1
 69.0607976672 401.629670691 124.740234375 400.467773438 150.373046875 400.467773438 c 0
 180.858398438 400.467773438 209.86328125 402.111328125 243 407 c 1
 244 384 l 1
 240.521484375 383.666992188 235.827833208 383.107781019 233 381 c 0
 224.653677258 374.778904428 224.208984375 363.165039062 231 347 c 1
 240 322 276.973632812 259.646484375 278 258 c 1
 283 272.79296875 289.111386344 301.553519171 290 308 c 0
 292.15234375 323.614257812 300 356 290 367 c 0
 285.700195312 371.729492188 275 380 269 382 c 1
 272 404 l 1
 292.747070312 401.838867188 326.231445312 400.798828125 351.301757812 400.798828125 c 0
 384.234375 400.798828125 423.179546221 402.593413823 451 406 c 1
 453 383 l 1
 447 381 430 372 385 337 c 0
 375.532129508 329.636100729 341 301 292 243 c 1
 319.135714286 210.030319941 370.112621145 143.099294154 423 83 c 0
 445 58 480 30 485 25 c 1
 483 -1 l 1
 465.222273835 2.55533854167 407.197265625 4.3330078125 375.63671875 4.3330078125 c 0
 336.185546875 4.3330078125 285.333007812 1.5556640625 262 -4 c 1
 257 18 l 1
 263.3046875 19.9091796875 265.373219943 25.1098452268 271 31 c 0
 289.046875 49.8916015625 266.274145392 89.8430888242 258 107 c 0
 248.069335938 127.591796875 240.565429688 137.958984375 231 157 c 1
 216.5 133.428710938 212.194335938 116.334960938 207 99 c 0
 200.391601562 76.9462890625 191.381421225 54.2430860184 215 25 c 0
 219.240234375 19.75 224.200195312 16.25 225 17 c 1
 225 -4 l 1
 197.3125 -1.91015625 168.533203125 -0.3662109375 140.373046875 -0.3662109375 c 0
 114.62890625 -0.3662109375 68.4020202536 -1.65685424949 45 -5 c 1
 44 17 l 1
 36 8 106 56 132 79 c 0
 136.995911602 83.4194602635 175 123 214 176 c 1
 111.752 312.715231788 109.803710938 310.830078125 104 318 c 0
 70 360 49 379 38 379 c 1
 38 403 l 1
EndSplineSet
EndChar
StartChar: y.pcap
Encoding: 57371 57371 1221
Width: 499
Flags: HW
AnchorPoint: "Top" 258 465 basechar 0
AnchorPoint: "Bottom" 264 -15 basechar 0
LayerCount: 2
Fore
SplineSet
254 380 m 1
 251 380 245.523220657 379.793067144 240 378 c 0
 228.897080724 374.395530617 226 366.954545455 234 351 c 1
 254 306 286 268 299 254 c 1
 309.4921875 271.484375 316 288 320 311 c 0
 323.634765625 331.899414062 315 354 304 368 c 0
 297.707579045 376.008535761 288.333007812 379.375 286 381 c 1
 287 407 l 1
 300.6953125 404.618164062 333.3984375 401.52734375 372.922851562 401.52734375 c 1
 399.77734375 401.52734375 447.625976562 402.954101562 463 407 c 1
 466 375 l 1
 434 375 394.405273438 333.662109375 366 300 c 0
 347.77734375 278.404296875 331 249 319 222 c 1
 317 194.916992188 316 168 320 115 c 0
 323.54717117 67.999982003 338 32.384765625 364 27 c 1
 361 -7 l 1
 332.145507812 -3.087890625 293.942382812 -0.37109375 261.548828125 -0.37109375 c 1
 227.706054688 -0.37109375 193.65625 -3.3359375 163 -11 c 1
 155 20 l 1
 193 25 194 74 198 112 c 0
 201.04846694 140.960435931 204 173.775700935 203 186 c 1
 203.238104839 213.254970006 153 273 103 323 c 0
 77.4559204511 348.544079549 57 371 32 382 c 1
 34 407 l 1
 54.5029296875 404.587890625 100.459960938 402.17578125 140.953125 402.17578125 c 0
 167.610351562 402.17578125 237.899414062 403.220703125 251 406 c 1
 254 380 l 1
EndSplineSet
EndChar
StartChar: z.pcap
Encoding: 57372 57372 1224
Width: 504
Flags: HW
AnchorPoint: "Top" 263 465 basechar 0
AnchorPoint: "Bottom" 247 -15 basechar 0
LayerCount: 2
Fore
SplineSet
45 310 m 1
 86 403.944335938 67 417.666992188 92 424 c 1
 102 403 127.89844321 403.801879614 145 403 c 0
 161 402.25 357.981445312 400 418 400 c 0
 425 400 436 401 440 402 c 1
 448 388 l 1
 447.176470588 387 434.424743219 366.837188508 434 366 c 0
 432.473282443 362.990769159 242.653320312 68.044921875 242 53 c 1
 249 54 l 0
 278 56 414 85 441 118 c 1
 460 109 l 1
 436 54 426 11 409 -17 c 1
 394 -10 387.948220041 -6.25145821304 339 -4 c 0
 252 0 103 5 54 0 c 1
 47 18 l 1
 72 31.92 94.0285383053 59.7073341162 105 76 c 1
 147 153.864973957 220.352539062 262.002929688 263 359 c 1
 264 364 l 1
 264 365 260.150982969 365.267032455 257 365 c 0
 198 360 96 339 65 300 c 1
 45 310 l 1
EndSplineSet
EndChar
StartChar: ae.pcap
Encoding: 57379 57379 6
Width: 680
Flags: HW
AnchorPoint: "Top" 374 465 basechar 0
AnchorPoint: "Bottom" 356 -15 basechar 0
LayerCount: 2
Fore
SplineSet
298 319 m 1
 255.440677966 249.448007186 244.406779661 233.272873496 205 171 c 1
 234.376 169 277.624 167 307 171 c 1
 308.350253889 210.350483475 308.863640583 302.236350134 303 321 c 1
 298 319 l 1
250 403 m 1
 292.197688037 401.132260577 346.868593435 400.38082533 399.72747482 400.38082533 c 0
 488.373561208 400.38082533 571.92343959 402.494191539 583 405 c 1
 590.208111566 398.821618658 592.821397686 393.350133538 592.821397686 385.87609291 c 0
 592.821397686 371.575379949 583.254052737 349.943231223 578 302 c 1
 558 300 l 1
 556.097560976 302.238095238 544.468325967 330.54450737 519 347 c 0
 498.198457302 360.440209341 486.522336921 368.828216077 460.264985763 368.828216077 c 1
 454.293463778 368.828216077 448.014515154 364.764380029 443 358 c 0
 440.276603375 354.326247069 433.071974177 339.439685601 431 331 c 0
 421 290.267418981 413 252.190653935 411 215 c 1
 428.711864407 217 452.240911026 220.806431952 463 223 c 0
 508.559821633 232.288757555 529 237 538 266 c 1
 559 262 l 1
 554.43132713 245.552777669 552.576114593 225.348456416 552.576114593 204.820027424 c 0
 552.576114593 180.41543193 555.198071009 155.552777669 559 136 c 1
 536 130 l 1
 532 150 506 172 485 180 c 0
 458.166453462 190.222303443 437 190 411 191 c 1
 411 139.985714286 414 99 435 63 c 0
 437.019298574 59.5383453018 446.771588046 50.4983754471 451 48 c 0
 458.861163243 43.3551977794 465.657002772 41 472 41 c 0
 494.100694291 41 508.454854549 49.3441788618 542 64 c 0
 584.288745286 82.4758861152 597.853333333 103 613 120 c 1
 632 115 l 1
 623 75 614 33 607 -4 c 1
 543.046216217 -2.85166852265 471.612417869 -0.384671863407 406.558992876 -0.384671863407 c 0
 358.311639695 -0.384671863407 313.573847116 -1.74165738677 278 -6 c 1
 272 17 l 1
 292.714285714 24.0436507937 299 36 302 67 c 0
 303.009142441 77.4278052235 306 100.444288874 307 130 c 1
 282.862068966 137 213.034482759 143 182 135 c 1
 174.820512821 120 151.733624408 91.1765951098 147 72 c 0
 143.018223943 55.8692509818 150.333333333 29 167 28 c 1
 164 -7 l 1
 145.916666667 -2.91666666667 110.819444444 -0.875 78.1608796296 -0.875 c 0
 54.8333333333 -0.875 32.75 -1.91666666667 19 -4 c 1
 19 -1.76923076923 18 14.9615384615 16 25 c 1
 42.9824561404 29.6 75.5041345679 50.8008086104 84 63 c 0
 162 175 231.069767442 282.994205729 288 377 c 1
 279 380 265 381 247 384 c 1
 250 403 l 1
EndSplineSet
EndChar
StartChar: oe.pcap
Encoding: 57443 57443 362
Width: 733
UnlinkRmOvrlpSave: 1
Flags: HW
AnchorPoint: "Top" 386 465 basechar 0
AnchorPoint: "Bottom" 390 -15 basechar 0
LayerCount: 2
Fore
SplineSet
224 364 m 3
 203.096679688 364 188 351.007575323 188 285 c 3
 188 161.265402845 252.670520231 41 327 41 c 3
 342.033296378 41 349 44 352 52 c 0
 355.140543536 60.3747827614 367.184570313 116.928794072 367.184570313 219.185546875 c 3
 367.184570313 275.130257808 352.54499532 304.943130876 340 315 c 0
 303.86892375 343.964977339 251 364 224 364 c 3
287 -9 m 3
 144 -9 56 107.224390244 56 200 c 3
 56 314 165 413 292 413 c 3
 351.564767054 413 295.133774088 401.380859375 472.076171875 401.380859375 c 3
 557.238037349 401.380859375 637.350837207 403.494071242 648 406 c 1
 655.207983779 399.820997055 657.821289062 394.351109214 657.821289062 386.875976562 c 3
 657.821289062 372.575107185 648.253798269 350.943554031 643 303 c 1
 618 300 l 1
 615 304 593.746930415 335.822646669 584 350 c 0
 562 382 522 376 505 363 c 0
 497.708007812 357.423828125 493 351 487 339 c 0
 477.944335938 320.889648438 473 258 472 216 c 1
 487.559570312 216 528.077363483 219.19932397 539 222 c 0
 578 232 596 244 606 267 c 1
 627 263 l 1
 622.431913381 246.552609082 620.576171875 226.348626478 620.576171875 205.8203125 c 3
 620.576171875 181.41446221 623.198379465 156.552610087 627 137 c 1
 604 131 l 1
 596 161 586.909014003 166.090933124 536 183 c 0
 520.091497731 188.283895869 493.77734375 192 472 192 c 1
 473 140.586914062 478.12109375 99.451171875 497 63 c 0
 500.926757812 55.24609375 505.450195312 50.275390625 513 48 c 0
 515.141601562 47.3544921875 524.099609375 47 529 47 c 3
 542.75 47 562 52 587 66 c 0
 629.965938412 90.0609255104 655 111 662 120 c 1
 681 115 l 1
 672 75 657 4.4481236204 656 -4 c 1
 592.764827348 -2.8337137294 523.690325366 -0.384765625 459.928710938 -0.384765625 c 3
 384.602413271 -0.384765625 356.827934205 -9 287 -9 c 3
EndSplineSet
EndChar
StartChar: question.pcap
Encoding: 57474 57474 424
Width: 318
Flags: HW
HStem: -23.6595 124.397<115.951 151.786> 327 81<75.291 215.291>
VStem: 76.0845 117.897<17.488 57.1421> 126 18<139.523 159.072> 249 27<266.214 305.949>
LayerCount: 2
Fore
SplineSet
54 327 m 1xd8
 56 340 57 351 57 361 c 3
 57 404 42 421 42 429 c 3
 42 434 48 437 68 440 c 1
 89 408 96 408 126 408 c 3
 201 408 276 365 276 299 c 3
 276 189 198 183 188 179 c 0
 161 172 147 161 144 140 c 9
 144 140 131 139 126 139 c 1
 122.8 161 119.92 181.24 119.92 198.504 c 0
 119.92 224.4 126.4 243.6 148 252 c 0
 167 258 249 245 249 290 c 3
 249 313.95221718 187.6155292 327.673689228 92.0742575282 327.673689228 c 0
 79.9171764462 327.673689228 67.2070588846 327.451523381 54 327 c 1xd8
EndSplineSet
Refer: 405 46 N 0.836151 0 0 0.88855 51 -5 2
EndChar
StartChar: Circumflex
Encoding: 58020 58020 1258
Width: 281
Flags: HMW
AnchorPoint: "Top" 140 699 mark 0
LayerCount: 2
Fore
SplineSet
279.504882812 769.361328125 m 1
 261.09765625 741.854492188 l 1
 140.5 774.263671875 l 1
 19.9033203125 741.854492188 l 1
 1.4951171875 769.361328125 l 1
 121.845703125 876.400390625 l 1
 159.154296875 876.400390625 l 1
 279.504882812 769.361328125 l 1
EndSplineSet
EndChar
StartChar: Breve
Encoding: 58023 58023 1253
Width: 321
Flags: HW
AnchorPoint: "Top" 162 699 mark 0
LayerCount: 2
Fore
SplineSet
16.7646 838.464 m 1
 55.185453125 857.798148438 l 1
 70.2126056991 838.80658977 115.074225826 829.280885061 160.081786268 829.280885061 c 3
 205.019954782 829.280885061 250.103534059 838.766814096 265.813546875 857.798148438 c 1
 304.235 838.464 l 1
 283.3205 777.7865 221.529825 747.44775 159.9293125 747.44775 c 3
 98.3288 747.44775 36.91845 777.7865 16.7646 838.464 c 1
EndSplineSet
EndChar
StartChar: Uni030B
Encoding: 58027 58027 1331
Width: 300
Flags: HW
AnchorPoint: "Top" 87 699 mark 0
LayerCount: 2
Fore
SplineSet
-14.5 752.899414062 m 1
 -6.58296690579 785.327482943 21.1008824545 853.104209616 53 901 c 1
 53 901 108.223214287 876.976111777 143 857.599609375 c 1
 89.9414153373 820.43754055 71.489897495 802.166850264 19 732.599609375 c 1
 -14.5 752.899414062 l 1
147.94140625 758.984375 m 1
 151.699744252 786.749922768 193.004572284 860.060754677 224.64453125 896.0390625 c 1
 224.64453125 896.0390625 277.23377455 871.902282497 308.515625 854.3671875 c 1
 272.257807028 830.127797561 229.857270787 795.130705409 181.88671875 732.943359375 c 1
 147.94140625 758.984375 l 1
EndSplineSet
EndChar
StartChar: Uni030F
Encoding: 58034 58034 1332
Width: 300
Flags: HW
AnchorPoint: "Top" 87 699 mark 0
LayerCount: 2
Fore
SplineSet
190 754 m 1
 156.5 731.700195312 l 1
 105.254427372 800.51051801 85.8952628163 821.153968668 33 859 c 1
 67.3903715801 877.751292659 122 901 122 901 c 1
 153.761006448 854.90422086 181.372472152 787.306970962 190 754 c 1
26 760 m 1
 -5 732 l 1
 -67.2697412744 803.552737062 -87.9630631751 823.606832803 -135 854 c 1
 -102.918069082 872.534454535 -49 898 -49 898 c 1
 -14.9193492794 856.75927284 26.5893547917 773.350546716 26 760 c 1
EndSplineSet
EndChar
StartChar: circumcombhigh
Encoding: 58081 58081 185
Width: 0
Flags: HW
LayerCount: 2
Fore
SplineSet
-71.2197265625 473.559570312 m 1
 -85.3955078125 451.318359375 l 1
 -198 491.013671875 l 1
 -308.604492188 451.318359375 l 1
 -323.780273438 473.559570312 l 1
 -215.364257812 591.680664062 l 1
 -179.635742188 591.680664062 l 1
 -71.2197265625 473.559570312 l 1
EndSplineSet
EndChar
StartChar: thinrule
Encoding: 58113 58113 487
Width: 1000
Flags: HW
LayerCount: 2
Fore
SplineSet
0 -20 m 1
 0 20 l 1
 1000 20 l 1
 1000 -20 l 1
 0 -20 l 1
EndSplineSet
EndChar
StartChar: f.alt
Encoding: 58119 58119 248
Width: 400
Flags: HW
HStem: -6 36<34 97.3708 215.17 284.568> 1 32<191.619 282.018> 355 46<39 113 187 338> 701 55<236.497 325.797>
VStem: 114 71<42.7113 360 397 621.375>
AnchorPoint: "Top" 267 748 basechar 0
AnchorPoint: "Bottom" 158 -15 basechar 0
LayerCount: 2
Back
SplineSet
348 755 m 3
 357.729632777 755 390.181818182 749 406 725 c 1
 404.505050505 685 388.808080808 674.16796875 332 622 c 1
 316.373242187 635.142578125 283.219259259 669 256 669 c 3
 180.617315554 669 240.671924327 566.886705371 237 503 c 0
 235.627908318 479.127390104 231 434.386138614 229 393 c 1
 272.390728476 397 311.609271524 397 355 401 c 1
 355 333 l 1
 311.210526316 337 270.789473684 339 227 343 c 1
 225 317.477611941 225 294.754097591 225 286 c 3
 225 212.577405858 229.928183619 144.162780189 237 72 c 0
 238.971141164 51.8859276216 251.032217876 41.6468294932 272 40 c 0
 297.464423865 38 321.315068494 38 347 38 c 1
 345 -7 l 1
 287.25 -2 204.75 0 147 0 c 3
 108.509433962 0 49.4905660377 -3 11 -7 c 1
 10 38 l 1
 19.1666666667 38 29.1847291019 39.8980618579 40 41 c 0
 81.7945679672 45.2583333333 86.6545438454 62.0864772878 93 99 c 0
 100.806002588 144.40998264 107 202.783783784 107 259 c 3
 107 276.745406871 105 309.936170213 105 343 c 1
 76.6216216218 341 49.3783783784 335 21 333 c 1
 21 401 l 1
 49.3783783784 399 76.6216216218 395 105 393 c 1
 105 435.65625 105 484.875 105 498 c 3
 105 603.952606635 153.939551066 650.533150614 228 705 c 0
 271.247954885 736.806178316 295.555555555 755 348 755 c 3
EndSplineSet
Fore
SplineSet
381 755 m 3
 394.194775928 755 417.548141312 749.799725507 439 729 c 1
 437 689 416 678.16796875 340 626 c 1
 323.606657609 638.023763021 296.554952871 669 281 669 c 3
 233.440554003 669 231.504313457 612.681580566 227.139648438 539 c 0
 224.620117188 493.958007812 225.564453125 446.0625 223 393 c 1
 279.554744526 397 315.445255474 397 372 401 c 1
 372 333 l 1
 315.139486849 337 277.860513151 339 221 343 c 1
 221 317.477539062 221 294.75390625 221 286 c 3
 221 208.803710938 224.575123568 105.814442839 231 61 c 0
 233.868164062 40.994140625 245.069484794 31.0669401593 266 29 c 0
 286.252657158 27 290.571561592 27 311 27 c 1
 309 -7 l 1
 256.5 -2 195.5 0 143 0 c 3
 110.453125 0 66.546875 -3 34 -7 c 1
 33 26 l 1
 42.1669921875 26 52.2441641588 27.4187852214 63 29 c 0
 92.9658203125 33.4052734375 91.5377203783 50.5600388133 95 89 c 0
 99.345703125 137.248171062 101 199.269881231 101 259 c 3
 101 276.745117188 101 309.936523438 101 343 c 1
 76 341 58 335 33 333 c 1
 33 401 l 1
 58 399 76 395 101 393 c 1
 101 435.65625 101 467.875 101 481 c 3
 101 586.952148438 162.256271524 661.75282354 239 705 c 0
 291.72805447 734.0859375 318.940483941 755 381 755 c 3
EndSplineSet
EndChar
StartChar: uniFB00.alt
Encoding: 58121 58121 1157
Width: 670
Flags: HW
HStem: -6 36<34 97.3708 215.17 284.568> 1 32<191.619 282.018> 355 46<39 113 187 338> 701 55<236.497 325.797>
VStem: 114 71<42.7113 360 397 621.375>
LayerCount: 2
Back
SplineSet
670 755 m 4
 682.967279791 755 705.918000944 749.599714949 727 728 c 5
 725 688 704 677.16796875 628 625 c 5
 611.050951087 637.303385417 589.522917374 669 567 669 c 4
 524.206857601 669 519.261557211 612.687906339 515.139648438 539 c 4
 512.620117188 493.958007812 513.564453125 446.0625 511 393 c 5
 563.758789062 397 597.241210938 397 650 401 c 5
 650 333 l 5
 596.905273438 337 562.094726562 339 509 343 c 5
 509 317.477539062 509 294.75390625 509 286 c 4
 509 208.803710938 512.575123566 105.814442839 519 61 c 4
 521.868164062 40.994140625 533.069482075 31.0669126145 554 29 c 4
 574.252929688 27 578.571289062 27 599 27 c 5
 597 -7 l 5
 544.5 -2 483.5 0 431 0 c 4
 398.453125 0 354.546875 -3 322 -7 c 5
 321 26 l 5
 330.166992188 26 340.244164159 27.4187852214 351 29 c 4
 380.965820312 33.4052734375 379.537711538 50.5600396095 383 89 c 4
 387.345703125 137.248046875 389 199.26953125 389 259 c 4
 389 276.745117188 389 309.936523438 389 343 c 5
 368.779411765 343 354.220588235 343 334 343 c 4
 284.294298537 343 251.705701463 343 202 343 c 5
 202 317.477539062 202 294.75390625 202 286 c 4
 202 208.803710938 205.575123566 105.814442839 212 61 c 4
 214.868164062 40.994140625 226.102892355 31.3810922819 247 29 c 4
 264.552539063 27 268.295117187 27 286 27 c 5
 284 -7 l 5
 233.397590361 -2 174.602409639 0 124 0 c 4
 91.453125 0 47.546875 -3 15 -7 c 5
 14 26 l 5
 23.1669921875 26 33.2441641588 27.4187852214 44 29 c 4
 73.9658203125 33.4052734375 72.5377115383 50.5600396095 76 89 c 4
 80.345703125 137.248046875 82 199.26953125 82 259 c 4
 82 276.745117188 82 309.936523438 82 343 c 5
 57 341 39 335 14 333 c 5
 14 401 l 5
 39 399 57 395 82 393 c 5
 82 421.114346591 82 442.349431818 82 451 c 4
 82 556.952148438 154.36210258 628.416387172 240 675 c 4
 293.470703125 704.0859375 321.06640625 725 384 725 c 4
 409.362441831 725 451.189879512 715.610750914 493 681 c 5
 503.503883166 689.740842639 512.865980846 697.855615544 526 705 c 4
 579.470703125 734.0859375 607.06640625 755 670 755 c 4
404.669921875 568.685546875 m 5
 372.993244878 597.117281404 340.193606994 639 284 639 c 4
 217.014648438 639 213.327451543 582.686250784 208.139648438 509 c 4
 205.620117188 473.213211687 206.564453125 435.159246575 204 393 c 5
 253.342752361 393 284.657247639 393 334 393 c 4
 354.220588235 393 368.779411765 393 389 393 c 5
 389 435.65625 389 467.875 389 481 c 4
 389 513.267996279 394.683697596 542.410129921 404.669921875 568.685546875 c 5
EndSplineSet
Fore
SplineSet
670 755 m 0
 687.517202524 755 718.520808293 745.799514358 747 709 c 1
 745 669 724 658.16796875 648 606 c 1
 625.49388587 623.616210938 596.907480448 669 567 669 c 0
 524.206857601 669 519.261557211 612.687906339 515.139648438 539 c 0
 512.620117188 493.958007812 513.564453125 446.0625 511 393 c 1
 571.349981733 397 609.650018267 397 670 401 c 1
 670 333 l 1
 609.374106549 337 569.625893451 339 509 343 c 1
 509 317.477539062 509 294.75390625 509 286 c 0
 509 208.803710938 512.575123566 105.814442839 519 61 c 0
 521.868164062 40.994140625 533.069482075 31.0669126145 554 29 c 0
 574.252929688 27 578.571289062 27 599 27 c 1
 597 -7 l 1
 544.5 -2 483.5 0 431 0 c 0
 398.453125 0 354.546875 -3 322 -7 c 1
 321 26 l 1
 330.166992188 26 340.244164159 27.4187852214 351 29 c 0
 380.965820312 33.4052734375 379.537711538 50.5600396095 383 89 c 0
 387.345703125 137.248046875 389 199.26953125 389 259 c 0
 389 276.745117188 389 309.936523438 389 343 c 1
 368.779411765 343 354.220588235 343 334 343 c 0
 284.294298537 343 251.705701463 343 202 343 c 1
 202 317.477539062 202 294.75390625 202 286 c 0
 202 208.803710938 205.575123566 105.814442839 212 61 c 0
 214.868164062 40.994140625 226.102892355 31.3810922819 247 29 c 0
 264.552539063 27 268.295117187 27 286 27 c 1
 284 -7 l 1
 233.397590361 -2 174.602409639 0 124 0 c 0
 91.453125 0 47.546875 -3 15 -7 c 1
 14 26 l 1
 23.1669921875 26 33.2441641588 27.4187852214 44 29 c 0
 73.9658203125 33.4052734375 72.5377115383 50.5600396095 76 89 c 0
 80.345703125 137.248046875 82 199.26953125 82 259 c 0
 82 276.745117188 82 309.936523438 82 343 c 1
 57 341 39 335 14 333 c 1
 14 401 l 1
 39 399 57 395 82 393 c 1
 82 421.114346591 82 442.349431818 82 451 c 0
 82 556.952148438 154.36210258 628.416387172 240 675 c 0
 293.470703125 704.0859375 321.06640625 725 384 725 c 0
 409.362441831 725 451.189879512 715.610750914 493 681 c 1
 503.503883166 689.740842639 512.865980846 697.855615544 526 705 c 0
 579.470703125 734.0859375 607.06640625 755 670 755 c 0
404.669921875 568.685546875 m 1
 372.993244878 597.117281404 340.193606994 639 284 639 c 0
 217.014648438 639 213.327451543 582.686250784 208.139648438 509 c 0
 205.620117188 473.213211687 206.564453125 435.159246575 204 393 c 1
 253.342752361 393 284.657247639 393 334 393 c 0
 354.220588235 393 368.779411765 393 389 393 c 1
 389 435.65625 389 467.875 389 481 c 0
 389 513.267996279 394.683697596 542.410129921 404.669921875 568.685546875 c 1
EndSplineSet
EndChar
StartChar: five.smaller
Encoding: 58363 58363 258
Width: 254
Flags: HW
LayerCount: 2
Fore
SplineSet
64.412109375 275.584960938 m 1
 101.001953125 278.762695312 172.698242188 277.9609375 184.212890625 279.265625 c 0
 204.377929688 281.44140625 210.048828125 294.260742188 217.013671875 303.67578125 c 1
 217.013671875 303.67578125 236.056640625 297.2421875 239.998046875 296.162109375 c 1
 213.08203125 255.551757812 212.901367188 187.872070312 194.9140625 188.16015625 c 0
 173.227539062 188.5078125 116.11328125 186.161132812 83.365234375 187.16796875 c 1
 83.365234375 187.16796875 72.5615234375 177.919921875 78.7578125 168.12890625 c 1
 141.826171875 171.37109375 206.377929688 151.439453125 206.377929688 97.953125 c 3
 206.377929688 35.2451171875 79.693359375 -11.7265625 9.9990234375 -16.060546875 c 1
 9.9990234375 -16.060546875 10.234375 6.6611328125 8.6103515625 10.9921875 c 1
 53.7646484375 12.19140625 120.900390625 31.5595703125 120.900390625 63.80078125 c 3
 120.900390625 73.580078125 99.396484375 86.734375 29.75 82.05078125 c 1
 41.318359375 122.698242188 57.9296875 202.646484375 64.412109375 275.584960938 c 1
EndSplineSet
EndChar
StartChar: five.tabulartext
Encoding: 58373 58373 260
Width: 463
Flags: HW
LayerCount: 2
Fore
SplineSet
129 393.5 m 1
 218.700248579 395.450195312 337.511316373 395.425009147 359 398.5 c 0
 379.824932392 402.759765625 390.625469501 428.610351562 400 448.5 c 1
 400 448.5 422.540364583 437.672712054 428 435.5 c 1
 395.726472077 386.856283426 380.762976153 278.730806193 365 280.5 c 0
 321.003535829 283.372070312 245.380185883 277.5 156 277.5 c 1
 156 277.5 143.786865234 243.431963075 153 216.5 c 1
 238.501093502 224.961538462 350 180.410595414 350 48.5 c 3
 350 -96.6894086516 173.909446023 -207.931688805 52 -217 c 1
 52 -217 52.509765625 -185.129211426 49 -178 c 1
 131.34610722 -181.355450237 248 -104.870658694 248 8 c 3
 248 57.062413369 208.889961359 121.967741935 82 111 c 1
 99.859375 176.507246377 122.15625 290.163643973 129 393.5 c 1
EndSplineSet
Substitution2: "pnum-1" five
Substitution2: "lnum-1" five.tabularlining
Substitution2: "numr-1" five.numerator
Substitution2: "dnom-1" five.denom
EndChar
StartChar: two.tabularlining
Encoding: 58380 58380 513
Width: 463
Flags: HW
LayerCount: 2
Fore
SplineSet
45 515 m 1
 83.3330078125 578.43359375 140.028320312 637 238 637 c 3
 322.811523438 637 392 562.885742188 392 465 c 3
 392 298.613220078 108.453125 101.363674496 132 107 c 1
 352 112 l 2
 386.071102223 113.158733535 424 155.2 434 175 c 1
 454 155 l 1
 454 155 389.538461538 44.6613965744 382 -11 c 1
 348 5 273 2 199 2 c 0
 95.55859375 2 27.7470703125 0 22 0 c 1
 16 18 l 1
 104.31640625 172.381879478 276 219.728879139 276 418 c 3
 276 510.554468969 219.703847164 555 167 555 c 3
 116.549295176 555 86.935716712 528.076336596 65 501 c 1
 45 515 l 1
EndSplineSet
Substitution2: "pnum-1" two.proportionallining
Substitution2: "onum-1" two.tabulartext
Substitution2: "numr-1" two.numerator
Substitution2: "dnom-1" two.denom
EndChar
StartChar: five.tabularlining
Encoding: 58383 58383 259
Width: 463
Flags: HW
LayerCount: 2
Fore
SplineSet
145 635.5 m 1
 234.700195312 637.450195312 353.51171875 637.424804688 375 640.5 c 0
 395.825195312 644.759765625 406.624999999 670.610351562 416 690.5 c 1
 416 690.5 438.540039062 679.672851562 444 677.5 c 1
 411.726562499 628.856445312 396.762695312 520.73046875 381 522.5 c 0
 337.00390625 525.372070312 261.379882812 519.5 172 519.5 c 1
 172 519.5 143.503255208 476.49567751 165 442.5 c 1
 255.897548776 450.235386029 374 409.363637408 374 288.5 c 3
 374 121.983398437 188.454639 -5.59956512832 60 -16 c 1
 60 -16 60.509765625 15.87109375 57 23 c 1
 145.966463176 19.2075051366 272 111.7734375 272 248 c 3
 272 290.394196429 230.27024822 346.460388765 94 337 c 1
 113.379321809 406.216957619 137.573803191 526.311420866 145 635.5 c 1
EndSplineSet
Substitution2: "pnum-1" five.proportionallining
Substitution2: "onum-1" five.tabulartext
Substitution2: "numr-1" five.numerator
Substitution2: "dnom-1" five.denom
EndChar
StartChar: four.proportionallining
Encoding: 58392 58392 268
Width: 511
Flags: HW
HStem: 191 45.5<91.3721 291 352 442.937>
VStem: 290 70<351.645 500.5> 291 61<29.5995 191 236.5 459.914>
LayerCount: 2
Fore
SplineSet
271 252.5 m 1
 271 360.541992188 288.6328125 410.272460938 271 461 c 1
 271 461 178.287109375 320.984375 111 252.5 c 1
 271 252.5 l 1
390 644.5 m 1
 390.389648438 630.577148438 386.565429688 620.205078125 383 599.5 c 0
 370 524 371.01953125 402.583984375 367 252 c 1
 397.12890625 248.12890625 434.91796875 259.044921875 468 293.5 c 1
 468 293.5 484.3203125 286.83984375 489 284.5 c 1
 489 284.5 466.295898438 218.924804688 450 177 c 1
 420.380859375 187.791015625 391.938476562 186.068359375 367 186 c 1
 368.05859375 107.948242188 373.266601562 60.7421875 389 27.5 c 1
 339.879882812 9 278.120117188 -20 263 -45.5 c 1
 263 -45.5 236.029296875 -25.4287109375 232 -16.5 c 1
 274.94140625 7.3818359375 270.80859375 137.302734375 269 184 c 1
 123.653320312 184 86.880859375 185.176757812 43 164 c 1
 43 164 24.794921875 183.637695312 19 189 c 1
 34.3564453125 206.983398438 335.865234375 599.041015625 357.5 660.299804688 c 1
 390 644.5 l 1
EndSplineSet
Substitution2: "tnum-1" four.tabularlining
Substitution2: "onum-1" four
Substitution2: "numr-1" four.numerator
Substitution2: "dnom-1" four.denom
EndChar
StartChar: one.proportionalliningalt
Encoding: 58419 58419 374
Width: 373
Flags: HW
LayerCount: 2
Fore
SplineSet
251 568 m 0
 249 549.291671875 237 405.858747182 237 304 c 3
 237 218.205223691 248 98.4917410714 252 82 c 0
 267.0859375 35.0710678119 304.598268423 28 315 30 c 1
 314 0 l 1
 269.178263882 3.33430744054 226.123600975 5.16766644784 182.979312118 5.16766644784 c 0
 142.580472237 5.16766644784 102.102507384 3.53797358788 60 0 c 1
 58 27 l 1
 79.9065310252 29 90.08203125 37.192126261 120 89 c 0
 128 104.348612552 140 138.854586616 140 304 c 3
 140 381.432670674 136.808457311 395.855449982 135.173828125 461.599609375 c 0
 134.159487593 494.995869128 122.558528003 519.599609375 90 519.599609375 c 3
 77.1469621529 519.599609375 75.9488331545 519.714191481 69.5 519.799804688 c 1
 61.5 548.799804688 l 1
 131.28046416 568.992570312 211.798576624 620.387585938 269.5 682.799804688 c 1
 291.5 662.799804688 l 1
 272.806952364 637.277456429 253.419921876 588.085612924 251 568 c 0
EndSplineSet
EndChar
